<svg id="Layer_1" data-name="Layer 1" xmlns="http://www.w3.org/2000/svg" viewBox="0 0 894.19 369.95"><defs><style>.cls-1{fill:#604945;}.cls-2{fill:#84904b;}.cls-3{fill:#d7c461;}</style></defs><path class="cls-1" d="M103.11,185.49S147,233.12,172,226.61c15.42-3.08,15.76-1,15.76-1s4.45,16.11,7.54,30.16-7.2,131.93-7.2,131.93H222s-8.23-90.81-8.91-95.61,33.92-30.15,36-34.95c0,0,45.92,3.77,69.56-18.51,0,0-26,9.94-54.48,7.2,0,0,34.95-37.35,32.21-69.91,0,0-20.56,56.2-80.19,90.47,0,0-8.22-26,8.23-71.28s63.39-43.17,67.5-84.3c0,0-11.3,19.88-37,33.24S208,185.83,201.8,206.39c0,0-5.14-27.76-19.19-39.41s-30.84-56.2-32.21-71.27c0,0-3.1,55.4,24,82.24,0,0,11,9.94,13.7,29.81,0,0-5.14,4.8-15.76,4.8S138.75,211.53,103.11,185.49Z" transform="translate(-44.81 -19.28)"/><path class="cls-2" d="M111.9,174.05v10.28c-1.73-1.15-3.48-2.37-5.25-3.69a5.75,5.75,0,0,0-2.28-1v-5.59a3.77,3.77,0,0,1,7.53,0Z" transform="translate(-44.81 -19.28)"/><path class="cls-2" d="M111.91,202.64v70.61a3.74,3.74,0,0,1-4.75,3.62h0a3.75,3.75,0,0,1-2.75-3.62V195.45C106.44,197.49,109,200,111.91,202.64Z" transform="translate(-44.81 -19.28)"/><path class="cls-2" d="M126.11,124.54v68.64c-2.42-1.32-4.91-2.81-7.52-4.44v-64.2a3.76,3.76,0,0,1,7.52,0Z" transform="translate(-44.81 -19.28)"/><path class="cls-2" d="M126.11,214.56v62.67a3.76,3.76,0,0,1-4.77,3.62h0a3.76,3.76,0,0,1-2.75-3.62v-68.7C121,210.52,123.46,212.57,126.11,214.56Z" transform="translate(-44.81 -19.28)"/><path class="cls-2" d="M140.35,112.05v88c-2.4-1-4.89-2.06-7.53-3.35V112.05a3.77,3.77,0,0,1,7.53,0Z" transform="translate(-44.81 -19.28)"/><path class="cls-2" d="M140.34,224.25v57a3.75,3.75,0,0,1-4.76,3.62h0a3.76,3.76,0,0,1-2.75-3.62V219.43C135.29,221.1,137.79,222.77,140.34,224.25Z" transform="translate(-44.81 -19.28)"/><path class="cls-2" d="M154.56,80.66V91.39a6,6,0,0,0-7.5-.67V80.66a3.75,3.75,0,1,1,7.5,0Z" transform="translate(-44.81 -19.28)"/><path class="cls-2" d="M154.56,158.14v46.49c-2.33-.55-4.82-1.24-7.5-2.13V132.18A123.93,123.93,0,0,0,154.56,158.14Z" transform="translate(-44.81 -19.28)"/><path class="cls-2" d="M311.08,147.23v87.53c-2,.6-4.58,1.29-7.53,2V147.23a3.77,3.77,0,0,1,7.53,0Z" transform="translate(-44.81 -19.28)"/><path class="cls-2" d="M303.55,255.08a74.72,74.72,0,0,0,7.53-3.67v95.77a3.77,3.77,0,0,1-7.53,0Z" transform="translate(-44.81 -19.28)"/><path class="cls-2" d="M325.29,184.84V309.58a3.76,3.76,0,0,1-7.52,0V247.1a51.66,51.66,0,0,0,5-4.15,6,6,0,0,0-5-10.25V184.84a3.76,3.76,0,1,1,7.52,0Z" transform="translate(-44.81 -19.28)"/><path class="cls-2" d="M296.84,117.88v52.05a5.93,5.93,0,0,0-6.08,3.91c0,.07-.48,1.29-1.44,3.42V135.13A47.59,47.59,0,0,0,296.84,117.88Z" transform="translate(-44.81 -19.28)"/><path class="cls-2" d="M296.84,206v32.14c-2.35.43-4.86.84-7.52,1.17v-17.9A123.69,123.69,0,0,0,296.84,206Z" transform="translate(-44.81 -19.28)"/><path class="cls-2" d="M289.32,259.68c2.49-.6,5-1.29,7.52-2.13v59.91a3.76,3.76,0,1,1-7.52,0Z" transform="translate(-44.81 -19.28)"/><path class="cls-2" d="M282.61,143v47.48c-2.06,3.66-4.56,7.79-7.53,12.22V149.68A92.84,92.84,0,0,0,282.61,143Z" transform="translate(-44.81 -19.28)"/><path class="cls-2" d="M282.61,232.05V240c-1.94.15-4,.24-6,.29C278.46,237.87,280.5,235.12,282.61,232.05Z" transform="translate(-44.81 -19.28)"/><path class="cls-2" d="M282.61,261.12v73.5a3.77,3.77,0,1,1-7.53,0V262.25Q278.76,261.81,282.61,261.12Z" transform="translate(-44.81 -19.28)"/><path class="cls-2" d="M268.4,76.94V128c-2.28,1.85-4.8,3.72-7.53,5.54V76.94a3.77,3.77,0,0,1,7.53,0Z" transform="translate(-44.81 -19.28)"/><path class="cls-2" d="M268.4,154.74v57.39c-2.3,3.05-4.8,6.16-7.53,9.33V160.15c1.34-1,2.66-1.92,4-2.87C266.05,156.44,267.22,155.6,268.4,154.74Z" transform="translate(-44.81 -19.28)"/><path class="cls-2" d="M268.4,262.92v47.59a3.77,3.77,0,1,1-7.53,0V263.3C263.15,263.25,265.69,263.13,268.4,262.92Z" transform="translate(-44.81 -19.28)"/><path class="cls-2" d="M254.16,62.42v75.2c-.65.36-1.34.72-2,1.08-1.87,1-3.72,2-5.51,3.12V62.42a3.76,3.76,0,1,1,7.52,0Z" transform="translate(-44.81 -19.28)"/><path class="cls-2" d="M254.16,165.23v63.66c-2.37,2.49-4.86,5-7.52,7.47V171.8C249.06,169.45,251.57,167.29,254.16,165.23Z" transform="translate(-44.81 -19.28)"/><path class="cls-2" d="M254.16,263.32v59.25a3.76,3.76,0,1,1-7.52,0V268.24c2.3-2,4-3.65,5.24-5Z" transform="translate(-44.81 -19.28)"/><path class="cls-2" d="M239.92,25.82V146.3c-2.58,1.87-5.08,3.86-7.5,5.94V25.82a3.75,3.75,0,1,1,7.5,0Z" transform="translate(-44.81 -19.28)"/><path class="cls-2" d="M239.92,179.2v63.13c-2.39,2.06-4.91,4.07-7.5,6V191.43A64.37,64.37,0,0,1,239.92,179.2Z" transform="translate(-44.81 -19.28)"/><path class="cls-2" d="M239.92,274.06v11.62a3.75,3.75,0,1,1-7.5,0v-5.22c1.9-1.63,3.69-3.16,5.25-4.48Z" transform="translate(-44.81 -19.28)"/><path class="cls-2" d="M225.71,51.11V158.47c-2.66,2.62-5.17,5.35-7.52,8.13V51.11a3.76,3.76,0,0,1,7.52,0Z" transform="translate(-44.81 -19.28)"/><path class="cls-2" d="M225.71,210.67v40.38a3.76,3.76,0,0,1-5.32,3.43C219.75,245.42,220.13,230.49,225.71,210.67Z" transform="translate(-44.81 -19.28)"/><path class="cls-2" d="M168.79,48.88v85c-2.87-6.45-5.46-13.19-7.52-19.34V48.88a3.76,3.76,0,1,1,7.52,0Z" transform="translate(-44.81 -19.28)"/><path class="cls-2" d="M168.79,180.76v25.77a69.28,69.28,0,0,1-7.52-.65V171A65.45,65.45,0,0,0,168.79,180.76Z" transform="translate(-44.81 -19.28)"/><path class="cls-2" d="M181.5,204.8a20.68,20.68,0,0,1-6,1.58V189.25A50.42,50.42,0,0,1,181.5,204.8Z" transform="translate(-44.81 -19.28)"/><path class="cls-2" d="M183,77.9v81a75.68,75.68,0,0,1-7.53-11.39V77.9a3.77,3.77,0,0,1,7.53,0Z" transform="translate(-44.81 -19.28)"/><path class="cls-2" d="M197.24,23V176a53.9,53.9,0,0,0-7.5-10.5V23a3.75,3.75,0,1,1,7.5,0Z" transform="translate(-44.81 -19.28)"/><path class="cls-2" d="M211.48,66V175.13a120.36,120.36,0,0,0-7.53,11.7V66a3.77,3.77,0,0,1,7.53,0Z" transform="translate(-44.81 -19.28)"/><path class="cls-3" d="M167.79,263.22c-5.64-.27-11.67-.7-17.27-3.35a9,9,0,0,1-4.24-3.32,3.79,3.79,0,0,1,1.3-5.19,1,1,0,0,1,1.24.11c3.94,3.19,8.62,4.33,13.52,4.9a46,46,0,0,0,11.25,0c4.79-.61,9.42-1.72,13.29-4.88a.9.9,0,0,1,1.32-.06c2,1.71,2.67,3.91.48,6.1a16.83,16.83,0,0,1-6.77,3.64,32.73,32.73,0,0,1-6.78,1.5A63.82,63.82,0,0,1,167.79,263.22Z" transform="translate(-44.81 -19.28)"/><path class="cls-3" d="M168,254.81a34.86,34.86,0,0,1-13.12-2,13,13,0,0,1-5.28-3.28,3.17,3.17,0,0,1,.28-4.85c.3-.25.56-.38.87,0,3,3.28,7,4.28,11.16,4.9a34.5,34.5,0,0,0,18.61-1.82,10.87,10.87,0,0,0,4.22-2.84c.53-.62.87-.51,1.34,0,1.42,1.66,1.42,3.21-.09,4.76a14.28,14.28,0,0,1-6.19,3.5A35.14,35.14,0,0,1,168,254.81Z" transform="translate(-44.81 -19.28)"/><path class="cls-3" d="M167.88,248.15A29.5,29.5,0,0,1,155.73,246a11.33,11.33,0,0,1-3-1.83,3.09,3.09,0,0,1-.36-4.47,9.54,9.54,0,0,1,3.09-2.09.65.65,0,0,1,1,.3c1.79,3.72,5.21,4.83,8.87,5.33a17,17,0,0,0,10.32-1.54,8.14,8.14,0,0,0,3.63-3.64c.33-.66.61-.71,1.21-.37a10.44,10.44,0,0,1,2.8,2.13A2.71,2.71,0,0,1,183,244c-2.6,2.18-5.72,3.08-9,3.65A28.35,28.35,0,0,1,167.88,248.15Z" transform="translate(-44.81 -19.28)"/><path class="cls-3" d="M168.15,269.92c-5.43,0-10.5-.5-15.32-2.56a11.53,11.53,0,0,1-4.24-2.81,2.88,2.88,0,0,1-.82-2.83c.18-.61.5-.9,1.18-.56a39.12,39.12,0,0,0,14.72,3.66,48.8,48.8,0,0,0,20-2.33,25.34,25.34,0,0,0,3-1.3c.74-.37,1.08-.09,1.26.57a2.91,2.91,0,0,1-.86,2.82,13.26,13.26,0,0,1-5.53,3.3A37.73,37.73,0,0,1,168.15,269.92Z" transform="translate(-44.81 -19.28)"/><path class="cls-3" d="M169.62,227.63c0,1,0,2,0,3a.93.93,0,0,0,.91,1.06,15.28,15.28,0,0,1,3.19.83,8.52,8.52,0,0,1,1.84.91c2.73,1.83,2.76,4.41,0,6.18a14.48,14.48,0,0,1-9.1,1.88,12,12,0,0,1-6.72-2.22c-2.14-1.67-2.17-3.81,0-5.5a10.64,10.64,0,0,1,5.14-2c1-.17,1.32-.61,1.29-1.58-.05-1.79,0-3.57,0-5.36,0-1.37.61-2,1.74-2s1.73.67,1.75,2c0,.95,0,1.9,0,2.85Z" transform="translate(-44.81 -19.28)"/><path class="cls-3" d="M167.76,276a32.67,32.67,0,0,1-13-2.34,12.43,12.43,0,0,1-2.61-1.6,3,3,0,0,1-1.12-1.55c-.17-.54-.4-1.18.07-1.61s.91.12,1.34.29a38.91,38.91,0,0,0,10.86,2.45,54.57,54.57,0,0,0,11.71-.29,31.16,31.16,0,0,0,8.56-2.28c.36-.15.77-.53,1.15-.13a1.33,1.33,0,0,1,.11,1.31,3.85,3.85,0,0,1-1.62,2.14c-3.05,2.17-6.59,2.85-10.18,3.34A27,27,0,0,1,167.76,276Z" transform="translate(-44.81 -19.28)"/><path class="cls-3" d="M167.8,281.06a20.18,20.18,0,0,1-7.26-1.57,5.3,5.3,0,0,1-2-1.42c-.24-.28-.65-.55-.39-1s.62-.17.95-.11c1.16.19,2.31.47,3.48.59a43.62,43.62,0,0,0,14-.56c.37-.08.9-.36,1.11.16s-.27.75-.55,1A7.52,7.52,0,0,1,174,280,21.15,21.15,0,0,1,167.8,281.06Z" transform="translate(-44.81 -19.28)"/><path class="cls-3" d="M167.81,284.15a11.07,11.07,0,0,1-3.94-.86,3,3,0,0,1-1.11-.77c-.13-.15-.36-.3-.21-.53s.34-.09.52-.06c.63.11,1.25.26,1.89.33a24.11,24.11,0,0,0,7.58-.31c.21,0,.49-.2.61.09s-.15.41-.3.56a4.12,4.12,0,0,1-1.66.95A11.54,11.54,0,0,1,167.81,284.15Z" transform="translate(-44.81 -19.28)"/><path class="cls-1" d="M173.23,333.21a37,37,0,0,0-10.67-10,29.67,29.67,0,0,1,8.26,3.15c-2.37-2.6-5.33-4.31-8.3-6a17.93,17.93,0,0,1,5.1,2.23c-.37-.84-6.54-13.92-15.63-18.65a15.22,15.22,0,0,1,6.21,1.39c-1.29-2.22-6-6.95-11.4-10.38a36.28,36.28,0,0,0-15.22-5.89,23.1,23.1,0,0,0-3.44-.17h0c-.42,0-.86,0-1.24,0h-.84c-2.87.06-12.42.53-18.24,3.69.62,1.18.69,3.66.58,6,0,.06,0,.1,0,.15-.06,8.34-2.15,11.53-2.15,11.53.61-9.71-4.47-14.48-4.47-14.48,2.25.22,5.39,2.74,5.45,2.78a18.1,18.1,0,0,0-1.86-4.39c-.79-1.25-1.62-2.5-2.55-3.71a29.48,29.48,0,0,1,4.92,1.95,28.65,28.65,0,0,0-7.1-4.78,17.29,17.29,0,0,1,4.27,1.72,44.85,44.85,0,0,0-6.45-9.23v0a24,24,0,0,0-7.33-5.76,14.58,14.58,0,0,1,3.07.33,10.69,10.69,0,0,1,2.45.79c-1.16-1.81-5.28-5.61-10-8.4a34.07,34.07,0,0,0-13.41-4.73,21.45,21.45,0,0,0-5.47,0c-1.07,0-2.13,0-3.2,0a18.83,18.83,0,0,0-5,1c-.65.18-1.4.37-2.28.69h.7a11.55,11.55,0,0,0-1.3.7c-.46.32-.7.23-.93-.23a4.77,4.77,0,0,0-.65-.88c-.23-.28-.41-.75-.88-.56s-.37.6-.37,1c0,.83.14,1.67.19,2.55a1,1,0,0,1-1,1.21,7.27,7.27,0,0,0-2.59,1c-.33.13-.61.69-1,.09a1.86,1.86,0,0,1-.33-1.81c.28-.46.7.14,1.07.23.14,0,.23.14.42,0,.13-.33-.1-.56-.28-.74a12.1,12.1,0,0,1-2-2.83c-.14-.33-.32-.74-.79-.65s-.46.55-.41.93c0,2.08-.28,4.22.37,6.3a2.73,2.73,0,0,1-.51,2.14,19.89,19.89,0,0,0-2.09,8.34c0,.37-.18.84.37,1.12.79-1.53,1.11-3.34,2.37-4.87a11.58,11.58,0,0,1-.65,6.21,2.63,2.63,0,0,0,.46,3.16,8.11,8.11,0,0,1,2.51,5.33c.18,3.52-.17,11-.22,14.61-.05.6-.09,1.21-.19,1.81A5.31,5.31,0,0,0,52,313.64a15.8,15.8,0,0,0,2.55,1.53,2.32,2.32,0,0,0,2.88-.65,2.74,2.74,0,0,1,1.39-.83c1.39-.38,2.41-2,2.55-3.85a14.81,14.81,0,0,0,0-1.49v-.6c1.16-4.36,5.6-11.13,7.22-15.4v.09l1.72,4.69s.18,1,.51,2.31a45.88,45.88,0,0,1-.05,5.57,32.71,32.71,0,0,0-1.53,8.72,18.35,18.35,0,0,0,2.69,10.9A7.76,7.76,0,0,1,73,328.52c0,.36,0,.7.06,1.06h0a22.7,22.7,0,0,0,2.07,7.52c.93,2.23,1.91,4.41,2.88,6.63l3,14.8c.32,1.71,1.06,3.29,1.44,5,.6,3.06,1.53,6.12,1.25,9.23-.33,4.49-.88,8.9-3.39,12.89-1.53,2.41-1.25,2.64,1.63,2.64H85c.84.05,1.77-.23,2.32.74.09.14.56.14.84.14,2.36.05,4.68,0,7,.05,1,0,1.34-.51,1.67-1.35.78-1.9.27-3.57-.79-5.24A4.46,4.46,0,0,1,96.2,378a5.16,5.16,0,0,0,.46-3.34,77.48,77.48,0,0,1-1.16-10.3,3.49,3.49,0,0,1,.42-1.8,8.87,8.87,0,0,0,1-3.9,14.35,14.35,0,0,0-.05-2.78c-.33-3.29.74-6.31,1.58-9.37.55-2.09,1-4.17,1.34-6.26l0-.1,2.3-.23a48.3,48.3,0,0,0,7.37-1.85l2.23-.84.18-.09a30.56,30.56,0,0,0,.65,4.59c.38,1.44.79,2.88,1.26,4.32a44.46,44.46,0,0,1,1.57,9.87c.37,4.09-.74,8-1.76,11.92-.88,3.2-2.46,6.22-3.48,9.42A47.53,47.53,0,0,1,106.4,385c-.55,1.11-.46,1.2.79,1.3a28.12,28.12,0,0,0,6.22,0,1.68,1.68,0,0,0,1.48-1.11c.42-1.25.74-2.5-.28-3.71-.28-.32-.42-.74,0-1.07,1.76-1.25,2.18-3.06,2.18-5,0-3.34,1.44-6.27,2.64-9.28.79-1.86,1.53-3.76,2.32-5.66a1.81,1.81,0,0,0,.19-.65c-.33-2,.74-3.52,1.71-5.05a5.52,5.52,0,0,0,.33-5.43,29.62,29.62,0,0,1-1.67-5.56c-.46-3.39-.88-11.78-.88-11.78l.55-.37c1.49-.93,3-1.95,4.36-3l2.42-1.81a22.73,22.73,0,0,1,1.9,10.57c-.33,6,1.94,16,1.94,16.37l.05.05c0,.93.42,1.9.51,2.88.23,2.45,1.35,4.77,1.3,7.32,0,2-.56,4-.7,6.08-.18,2.73-1.11,5.29-1.71,7.93a2.84,2.84,0,0,0-.05,1.53,3,3,0,0,1-.93,3.15c-1.53,1.44-1.48,3.25-1.43,5.06,0,.42.23.65.65.65a23.73,23.73,0,0,0,6.3,0c.65-.14,1.12-.41,1.16-1,.1-1.43.33-2.83-.41-4.17a2.74,2.74,0,0,1,.13-3.06c1-1.44.56-3.06.47-4.64-.23-3.85-.74-7.74.09-11.59a14.19,14.19,0,0,1,1-2.23,11,11,0,0,0,1-5,53.81,53.81,0,0,1,.46-5.52V351s0-.13.09-.88.28-2,.7-4.36c.79-4.68-.56-4.49,1.3-10.66s3.24-17.76,3.24-17.76a.39.39,0,0,0,0-.14,46.11,46.11,0,0,0,.27-7.56,5.12,5.12,0,0,1,.51,2.59,23,23,0,0,1,.14,5.43c6.64,7.61,9.46,21.33,9.46,21.33a18,18,0,0,0,.1-5.1,49.29,49.29,0,0,1,1.25,24.58,16.24,16.24,0,0,0,1.71-2.46,19.71,19.71,0,0,0,2.09-14.79c1.39,2.27,1.25,8.07,0,12.1a31.41,31.41,0,0,1-4.73,9.23,4.35,4.35,0,0,1-.23.88,15.07,15.07,0,0,0,4.73-5.38,29.06,29.06,0,0,1-2.09,5.48,3.66,3.66,0,0,0-.32.46.37.37,0,0,0,0,.51c.28.23.38-.09.47-.28a28.42,28.42,0,0,0,3.52-6.31,28.81,28.81,0,0,0,2.23-11.5,34.53,34.53,0,0,0-3.29-13.63A54.86,54.86,0,0,1,166,343.73a24.66,24.66,0,0,0-1.62-9.23,101.36,101.36,0,0,1,6.26,16.93c.32-7-1.72-13.63-3.62-18.27a37.77,37.77,0,0,1,3.52,3.76c1.16,1.48,2.18,3.1,3.2,4.68.19.23.24.79.7.6s.05-.69-.09-1a37.21,37.21,0,0,0-4.69-7.7.62.62,0,0,1-.18-.56c.93.93,1.9,1.81,2.78,2.79a33.66,33.66,0,0,1,2.64,3.34,33.88,33.88,0,0,1,4,7.23C179.63,344.89,176.11,337.19,173.23,333.21ZM91.79,369.8a36.68,36.68,0,0,1-1.06,5.47,5,5,0,0,0,0,3,5,5,0,0,1-.37,3.75,11,11,0,0,1-1.62,2.93c-1.63-2.69-1.63-3.71.23-6.17a2.52,2.52,0,0,0,.37-2.46,16.42,16.42,0,0,1-1.07-4.41c-.28-3.47-1.11-6.91-.55-10.43A15.61,15.61,0,0,0,87,355a2.61,2.61,0,0,1-.09-1.67c.79-2.23.18-4.45-.23-6.59a39,39,0,0,1-1.21-8.35,1.87,1.87,0,0,0-.09-.46h-.28l.7-3.06h.09c1.53.09,3.75.46,3.75,3,0,.05,0,.05,0,.1,0,1.9,0,3.85.14,5.75a4.8,4.8,0,0,1,.09.51c.19,1.48.79,6.21,1,7.93.23,2,.65,10.71.65,10.71A20.58,20.58,0,0,1,91.79,369.8Zm46.57-45.13c2.69-22.72-6.68-32.09-7.7-33C148.56,303.85,138.36,324.67,138.36,324.67Z" transform="translate(-44.81 -19.28)"/><path class="cls-1" d="M412.88,167.3a15,15,0,0,1-5.47,3.56q13.08,1.78,19.89,8.84a23.89,23.89,0,0,1,6.81,17.23q0,12.33-10.41,20t-27.37,7.63q-17,0-26.57-8t-9.61-22.44v-1.52l1.47-.26q2.67,18.94,16.55,24.54v-74a8.21,8.21,0,0,0-2.73-5.65A8.55,8.55,0,0,0,369.5,135h-1.61v-1.27h22.43q12.56,0,20.09,5.47t7.55,14.3Q418,162.35,412.88,167.3Zm-26-29.49v81.37a72.47,72.47,0,0,0,10.15.63q12.81,0,19.95-6.54t7.15-17a21.49,21.49,0,0,0-2.21-9.91,18.44,18.44,0,0,0-5.54-6.74q-8.81-6.49-24.83-6.49h-.13l-.13-1.14h.13a17.15,17.15,0,0,0,11.68-4.26q4.88-4.26,4.87-13.16,0-16.78-19.35-16.78Z" transform="translate(-44.81 -19.28)"/><path class="cls-1" d="M440.92,221.47a8.35,8.35,0,0,0,5.94-2.35,8,8,0,0,0,2.6-5.66v-71.2a6.44,6.44,0,0,0-2.54-5.15,9.11,9.11,0,0,0-6-2.1h-1.61l-.13-1.27H478.3a59.7,59.7,0,0,0,9-.76,38.07,38.07,0,0,0,6.87-1.53v16h-1.33v-2.29a7.07,7.07,0,0,0-2.2-5.21,7.79,7.79,0,0,0-5.28-2.29H458.14V177H480.7a6.86,6.86,0,0,0,4.54-1.91,5.92,5.92,0,0,0,1.87-4.45v-1.78h1.33v20.09h-1.33V187a5.86,5.86,0,0,0-1.8-4.32,6.63,6.63,0,0,0-4.48-1.91H458.14v38h19.09q9.87,0,15.08-4.2T501,202.14h1.34l-7.75,20.6h-55.4v-1.27Z" transform="translate(-44.81 -19.28)"/><path class="cls-1" d="M496.05,126.49h3.34a44.45,44.45,0,0,1,14.22,3,28.65,28.65,0,0,1,6.94,4.2q3.41,2.73,5.8,5.08a35.68,35.68,0,0,1,4.88,6.17c1.64,2.54,3,4.7,4,6.48a72.41,72.41,0,0,1,3.41,7q2.4,5.47,3.87,9.48c1,2.67,1.51,4.13,1.6,4.38a5.92,5.92,0,0,0,.4.89c.27.68.49,1.27.67,1.78q.41-.88,1.87-4.7t2.73-6.87q1.28-3,3.94-8.64a70.31,70.31,0,0,1,4.87-8.84q2.2-3.24,5.68-7.44a32.17,32.17,0,0,1,6.94-6.48,33.18,33.18,0,0,1,18.16-5.47v1.27q-7.49,0-15.29,7.51a69.24,69.24,0,0,0-13.35,18.11,132.86,132.86,0,0,0-9.08,22q-3.54,11.37-3.53,19.39v18.69a7.37,7.37,0,0,0,4.13,6.86,8.69,8.69,0,0,0,4.41,1.15h1.6v1.27h-29.1v-1.27h1.73a8.53,8.53,0,0,0,5.88-2.29,7.71,7.71,0,0,0,2.67-5.6V194.64q0-8.52-3.74-20a123,123,0,0,0-9.61-21.93,67.79,67.79,0,0,0-14-17.74q-8.15-7.24-16-7.25Z" transform="translate(-44.81 -19.28)"/><path class="cls-1" d="M591.37,144.74q14.28-12.78,37-12.78t37,12.78q14.28,12.78,14.29,33.5t-14.29,33.5q-14.28,12.78-37,12.78t-37-12.78q-14.29-12.78-14.29-33.5T591.37,144.74ZM598.65,209q11.28,11.7,29.7,11.69T658.05,209q11.28-11.7,11.28-30.77t-11.28-30.77q-11.28-11.7-29.7-11.7t-29.7,11.7q-11.29,11.7-11.29,30.77T598.65,209Z" transform="translate(-44.81 -19.28)"/><path class="cls-1" d="M782,135a8.15,8.15,0,0,0-5.74,2.23,7.5,7.5,0,0,0-2.53,5.4v65.6a100.49,100.49,0,0,0,.93,14l.27,2.29h-1.2l-72.76-74v63.32a7.08,7.08,0,0,0,2.4,5.4,8.14,8.14,0,0,0,5.74,2.23h2.54v1.27h-27.5v-1.27h2.54a8.15,8.15,0,0,0,5.74-2.23,7.22,7.22,0,0,0,2.4-5.53v-66a91.34,91.34,0,0,0-.94-13.86l-.26-2H695l72.76,74V142.77a7.68,7.68,0,0,0-2.54-5.53,8.12,8.12,0,0,0-5.74-2.23h-2.53v-1.27h27.5V135Z" transform="translate(-44.81 -19.28)"/><path class="cls-1" d="M870.18,146q13.27,12.27,13.28,32.23t-13.28,32.23q-13.29,12.27-34.64,12.27H790.28v-1.27H792a8.36,8.36,0,0,0,6-2.35,8,8,0,0,0,2.6-5.66v-71.2a6.39,6.39,0,0,0-2.6-5.15,9.23,9.23,0,0,0-6-2.1h-1.6l-.13-1.27h45.26Q856.89,133.74,870.18,146Zm-60.94-8.46v81.37h26.3a38.24,38.24,0,0,0,19.82-5.08,34.61,34.61,0,0,0,13.35-14.3,46,46,0,0,0,4.74-21.3q0-18.31-10.48-29.5t-27.43-11.19Z" transform="translate(-44.81 -19.28)"/><path class="cls-1" d="M494.18,241.81h-1.07a12.93,12.93,0,0,0-8.41,3.05,10.25,10.25,0,0,0-3.07,4.19l-22.69,69.17c-.18.68-.4,1.57-.67,2.67l-.93,3.94a33.06,33.06,0,0,0-.4,4.58,26,26,0,0,0,.13,2.92h-1.34L424.9,277l-21.1,41.2a33.57,33.57,0,0,0-3.6,14.11H399l-33-83.28a12.57,12.57,0,0,0-5-5.46,12.92,12.92,0,0,0-6.48-1.78h-1.06v-1.28H401.4v1.28h-1.2a5.18,5.18,0,0,0-5.34,3.56,10.29,10.29,0,0,0-.13,1.78,7.88,7.88,0,0,0,.53,2.54l14.55,34.58,23.1-45.77,1.2.13,26.56,46.79,10.68-35.73a13.25,13.25,0,0,0,.27-2.48,7.77,7.77,0,0,0-.4-2.35,4.11,4.11,0,0,0-1.73-2.16,5.62,5.62,0,0,0-3.21-.89h-1.2v-1.28h29.1Z" transform="translate(-44.81 -19.28)"/><path class="cls-1" d="M539.7,238.75q17.22,0,29.71,5.47a41.93,41.93,0,0,1,19.15,16q6.68,10.49,6.68,24.85,0,21.75-14.82,34T539.7,331.31q-25.89,0-40.65-12.27T484.3,285q0-21.73,14.75-34T539.7,238.75Zm-19,75.65Q527.55,325,539.77,325t19.09-10.56q6.87-10.54,6.88-29.37t-6.88-29.37q-6.87-10.54-19.09-10.55t-19.09,10.55q-6.87,10.56-6.87,29.37T520.68,314.4Z" transform="translate(-44.81 -19.28)"/><path class="cls-1" d="M680.41,254.52a21.14,21.14,0,0,1,2.14,9.22,29.84,29.84,0,0,1-1.07,8.39,27.94,27.94,0,0,1-3.34,7.18q-4.93,7.63-16.95,9.41a23.53,23.53,0,0,1,9.34,5,37.84,37.84,0,0,1,8.28,9.92q10,16.27,15.35,21a15.15,15.15,0,0,0,10.15,3.69v1.27H687.62q-17.36,0-24.83-3.68-10.68-5.22-15.22-17.93a76.93,76.93,0,0,1-2.07-7.76q-.87-4.07-1.47-5.91a23.63,23.63,0,0,0-1.4-3.43,8.9,8.9,0,0,0-1.73-2.48,10.49,10.49,0,0,0-3.74-2.29v-1.27h2.13A12.58,12.58,0,0,0,650.91,278a20.2,20.2,0,0,0,2.47-7.69c.31-2.75.47-4.47.47-5.15v-1.27q-.95-16.78-15.22-16.78h-5.88v73.1a7.45,7.45,0,0,0,2.54,5.66,8.52,8.52,0,0,0,6,2.35h1.6v1.27H595v-1.27h1.74a8.43,8.43,0,0,0,5.94-2.29,7.8,7.8,0,0,0,2.6-5.59V249.82a7.77,7.77,0,0,0-4.27-7,9.38,9.38,0,0,0-4.27-1H595v-1.28h52.2Q673.33,240.53,680.41,254.52Z" transform="translate(-44.81 -19.28)"/><path class="cls-1" d="M783,252.29q14.09,11.78,14.09,32.74T783,317.77q-14.09,11.76-39.18,11.76H693.23v-1.27H695a8.29,8.29,0,0,0,5.94-2.35,8,8,0,0,0,2.61-5.66v-71.2a6.39,6.39,0,0,0-2.61-5.15,9.17,9.17,0,0,0-5.94-2.09h-1.6l-.13-1.28h50.59Q768.92,240.53,783,252.29Zm-52.13-5.4v76.29h10.28a22.51,22.51,0,0,0,19.49-10.11q7.08-10.11,7.08-28t-7.08-28a22.51,22.51,0,0,0-19.49-10.11Z" transform="translate(-44.81 -19.28)"/><path class="cls-1" d="M854.16,334.56q15.42,3.87,25.63,6.35t21.29,4.52a113.67,113.67,0,0,0,20.3,2,48.21,48.21,0,0,0,16.55-2.67l1.07.89a45.86,45.86,0,0,1-15.22,11.82,40.26,40.26,0,0,1-17.42,4.2,87.31,87.31,0,0,1-18-2A105.28,105.28,0,0,1,870,354l-19.09-7.88q-10-4.14-18.69-7.95-20.16-8.65-34.71-8.65v-1.14l44.32-81.63h-24q-10.81.13-15.08,7.76a18.06,18.06,0,0,0-2,8.77v1h-1.33V238.12a37.79,37.79,0,0,0,7,1.52,60.85,60.85,0,0,0,9.14.77h46.06a74.82,74.82,0,0,0,8.47-.51,19.9,19.9,0,0,0,5.68-1.15v1.15l-47.79,88.49Q838.75,330.69,854.16,334.56Z" transform="translate(-44.81 -19.28)"/></svg>