<svg width="44" height="44" viewBox="0 0 44 44" fill="none" xmlns="http://www.w3.org/2000/svg">
<rect width="44" height="44" rx="22" fill="#84904B"/>
<g clip-path="url(#clip0_2514_2367)">
<path d="M22.2529 26.2791C22.942 26.2791 23.5012 26.046 23.5012 25.7552C23.5012 25.4655 22.942 25.2313 22.2529 25.2313C21.5638 25.2313 21.0046 25.4655 21.0046 25.7552C21.0046 26.0455 21.5638 26.2791 22.2529 26.2791ZM25.6444 21.3638C26.2641 21.3638 26.7679 21.8925 26.7679 22.5426C26.7679 23.1923 26.2641 23.7214 25.6444 23.7214C25.0247 23.7214 24.5209 23.1923 24.5209 22.5426C24.5209 21.8925 25.0252 21.3638 25.6444 21.3638ZM18.8614 23.7219C18.2422 23.7219 17.7379 23.1928 17.7379 22.5431C17.7379 21.8925 18.2422 21.3643 18.8614 21.3643C19.4811 21.3643 19.9849 21.893 19.9849 22.5431C19.9849 23.1928 19.4811 23.7219 18.8614 23.7219ZM11.0178 24.7022C11.0867 26.6658 15.1998 31.9714 11.0178 33.9361L14.7628 32.6263C14.7628 33.4122 14.5132 33.6741 14.5132 33.6741C17.0848 34.0644 20.3904 33.5688 22.8776 33.0339C23.8897 32.9642 24.8649 32.7259 25.7787 32.3486C25.4591 33.1638 24.8115 34 24.8115 34C26.8713 33.6726 28.3693 32.5593 28.3693 32.5593L28.6189 33.869C34.7358 31.7079 34.5885 20.5193 33.2378 17.1694C32.5512 15.4667 31.2405 11.3409 26.1223 12.8471C26.1223 12.8471 20.9317 7.8873 14.7623 14.2224C13.1989 15.8303 10.7682 17.4979 11.0178 24.7022ZM22.2379 30.9613C18.8939 30.9613 16.0611 28.7263 15.043 25.6258C14.9161 25.6861 14.7798 25.7222 14.6355 25.7222C14.0138 25.7222 13.5155 25.1218 13.5155 24.38C13.5155 23.6481 14.0034 23.0545 14.614 23.0393C14.7718 23.3107 14.9501 23.5726 15.1483 23.8225C14.9396 23.0739 14.8258 22.3053 14.8258 21.5414C14.8258 21.3355 14.8402 21.138 14.8567 20.941C16.4826 21.3549 18.767 20.8504 20.8982 19.44C21.9987 18.7118 22.908 17.84 23.5806 16.9305C24.7805 17.632 25.9175 19.0906 29.5367 20.6031C29.5762 20.9065 29.6031 21.2161 29.6031 21.5414C29.6031 22.3053 29.4893 23.0749 29.2806 23.8225C29.4888 23.5606 29.675 23.2871 29.8383 23.0026C29.8383 23.0147 29.8393 23.0293 29.8393 23.0414C29.8513 23.0403 29.8623 23.0367 29.8738 23.0367C30.4955 23.0367 30.9938 23.6371 30.9938 24.3794C30.9938 25.1213 30.4955 25.7217 29.8738 25.7217C29.719 25.7217 29.5717 25.684 29.4374 25.6164C28.4202 28.7227 25.584 30.9613 22.2379 30.9613Z" fill="white"/>
</g>
<defs>
<clipPath id="clip0_2514_2367">
<rect width="24" height="24" fill="white" transform="translate(10 10)"/>
</clipPath>
</defs>
</svg>
