<svg width="44" height="44" viewBox="0 0 44 44" fill="none" xmlns="http://www.w3.org/2000/svg">
<rect width="44" height="44" rx="22" fill="#84904B"/>
<g clip-path="url(#clip0_2514_2404)">
<path d="M21.9999 13.6074C25.8462 13.6074 28.9642 16.7254 28.9642 20.5717C28.9642 23.5143 26.8967 26.7212 22.8144 30.2273C22.3459 30.6296 21.6539 30.6296 21.1836 30.2257L20.9138 29.9918C17.0122 26.578 15.0356 23.4487 15.0356 20.5717C15.0356 16.7254 18.1537 13.6074 21.9999 13.6074ZM21.9999 14.6789C18.7454 14.6789 16.1071 17.3172 16.1071 20.5717C16.1071 23.0732 17.9274 25.9551 21.6175 29.1838L21.8836 29.4145C21.9505 29.472 22.0494 29.472 22.1163 29.4145C25.9849 26.0919 27.8928 23.1327 27.8928 20.5717C27.8928 17.3172 25.2545 14.6789 21.9999 14.6789ZM21.9999 17.8931C23.4793 17.8931 24.6785 19.0924 24.6785 20.5717C24.6785 22.051 23.4793 23.2503 21.9999 23.2503C20.5206 23.2503 19.3214 22.051 19.3214 20.5717C19.3214 19.0924 20.5206 17.8931 21.9999 17.8931ZM21.9999 18.9646C21.1123 18.9646 20.3928 19.6841 20.3928 20.5717C20.3928 21.4593 21.1123 22.1789 21.9999 22.1789C22.8875 22.1789 23.6071 21.4593 23.6071 20.5717C23.6071 19.6841 22.8875 18.9646 21.9999 18.9646Z" fill="white" stroke="white"/>
</g>
<defs>
<clipPath id="clip0_2514_2404">
<rect width="24" height="24" fill="white" transform="translate(10 10)"/>
</clipPath>
</defs>
</svg>
