<?xml version="1.0" encoding="utf-8"?>
<!-- Generator: Adobe Illustrator 25.1.0, SVG Export Plug-In . SVG Version: 6.00 Build 0)  -->
<svg version="1.1" id="Layer_1" xmlns="http://www.w3.org/2000/svg" xmlns:xlink="http://www.w3.org/1999/xlink" x="0px" y="0px"
	 viewBox="0 0 164 76" style="enable-background:new 0 0 164 76;" xml:space="preserve">
<style type="text/css">
	.st0{fill:#604945;}
	.st1{fill:#828F4B;}
	.st2{fill:#D6C260;}
	.st3{font-family:'CinzelDecorative-Regular';}
	.st4{font-size:22.8015px;}
	.st5{letter-spacing:-1;}
	.st6{letter-spacing:-1.9;}
	.st7{font-family:'CinzelDecorative-Bold';}
</style>
<path class="st0" d="M12.8,35c0,0,7.9,8.5,12.3,7.4c2.8-0.6,2.8-0.2,2.8-0.2s0.8,2.9,1.4,5.4s-1.3,23.7-1.3,23.7h6.1
	c0,0-1.5-16.3-1.6-17.1s6.1-5.4,6.5-6.3c0,0,8.2,0.7,12.5-3.3c0,0-4.7,1.8-9.8,1.3c0,0,6.3-6.7,5.8-12.5c0,0-3.7,10.1-14.4,16.2
	c0,0-1.5-4.7,1.5-12.8c3-8.1,11.4-7.7,12.1-15.1c0,0-2,3.6-6.6,6s-8.4,7.5-9.5,11.2c0,0-0.9-5-3.4-7.1s-5.5-10.1-5.8-12.8
	c0,0-0.6,9.9,4.3,14.7c0,0,2,1.8,2.5,5.3c0,0-0.9,0.9-2.8,0.9C23.3,39.8,19.2,39.6,12.8,35z"/>
<path class="st1" d="M14.4,32.9v1.8c-0.3-0.2-0.6-0.4-0.9-0.7c-0.1-0.1-0.3-0.1-0.4-0.2v-1c0-0.4,0.3-0.7,0.6-0.7
	C14.1,32.2,14.4,32.5,14.4,32.9C14.4,32.9,14.4,32.9,14.4,32.9z"/>
<path class="st1" d="M14.4,38.1v12.7c0,0.4-0.3,0.7-0.7,0.7c-0.1,0-0.1,0-0.2,0h0c-0.3-0.1-0.5-0.3-0.5-0.6v-14
	C13.4,37.1,13.9,37.6,14.4,38.1z"/>
<path class="st1" d="M17,24v12.3c-0.4-0.2-0.9-0.5-1.3-0.8V24c0-0.4,0.3-0.7,0.6-0.7C16.6,23.3,16.9,23.6,17,24C17,24,17,24,17,24z"
	/>
<path class="st1" d="M17,40.2v11.2c0,0.4-0.3,0.7-0.7,0.7c-0.1,0-0.1,0-0.2,0l0,0c-0.3-0.1-0.5-0.3-0.5-0.6V39.1
	C16,39.5,16.5,39.8,17,40.2z"/>
<path class="st1" d="M19.5,21.8v15.8c-0.4-0.2-0.9-0.4-1.3-0.6V21.8c0-0.4,0.3-0.7,0.6-0.7C19.2,21.1,19.5,21.4,19.5,21.8
	C19.5,21.8,19.5,21.8,19.5,21.8z"/>
<path class="st1" d="M19.5,41.9v10.2c0,0.4-0.3,0.7-0.7,0.7c-0.1,0-0.1,0-0.2,0l0,0c-0.3-0.1-0.5-0.3-0.5-0.6V41.1
	C18.6,41.4,19.1,41.7,19.5,41.9z"/>
<path class="st1" d="M22.1,16.2v1.9c-0.4-0.3-0.9-0.4-1.3-0.1v-1.8c0-0.4,0.3-0.7,0.7-0.7S22.1,15.8,22.1,16.2z"/>
<path class="st1" d="M22.1,30.1v8.3c-0.4-0.1-0.9-0.2-1.3-0.4V25.4C21,27,21.4,28.6,22.1,30.1z"/>
<path class="st1" d="M50.1,28.1v15.7c-0.4,0.1-0.8,0.2-1.3,0.4v-16c0-0.4,0.3-0.7,0.6-0.7C49.8,27.4,50.1,27.7,50.1,28.1
	C50.1,28.1,50.1,28.1,50.1,28.1z"/>
<path class="st1" d="M48.8,47.5c0.5-0.2,0.9-0.4,1.3-0.7V64c0,0.4-0.3,0.7-0.7,0.6c-0.4,0-0.6-0.3-0.6-0.6V47.5z"/>
<path class="st1" d="M52.7,34.9v22.4c0,0.4-0.3,0.7-0.6,0.7c-0.4,0-0.7-0.3-0.7-0.6c0,0,0,0,0-0.1V46c0.3-0.2,0.6-0.5,0.9-0.7
	c0.4-0.4,0.5-1.1,0.1-1.5c-0.2-0.3-0.6-0.4-0.9-0.3v-8.6c0-0.4,0.3-0.7,0.7-0.6C52.4,34.2,52.7,34.5,52.7,34.9z"/>
<path class="st1" d="M47.6,22.9v9.3c-0.5,0-0.9,0.2-1.1,0.7c0,0-0.1,0.2-0.3,0.6v-7.6C46.9,25,47.3,24,47.6,22.9z"/>
<path class="st1" d="M47.6,38.7v5.8c-0.4,0.1-0.9,0.2-1.3,0.2v-3.2C46.7,40.5,47.2,39.6,47.6,38.7z"/>
<path class="st1" d="M46.2,48.3c0.4-0.1,0.9-0.2,1.3-0.4v10.7c0,0.4-0.3,0.7-0.6,0.7c-0.4,0-0.7-0.3-0.7-0.6c0,0,0,0,0-0.1V48.3z"/>
<path class="st1" d="M45,27.4v8.5c-0.4,0.7-0.8,1.4-1.3,2.2v-9.5C44.1,28.2,44.6,27.8,45,27.4z"/>
<path class="st1" d="M45,43.3v1.4c-0.3,0-0.7,0-1.1,0.1C44.3,44.4,44.6,43.9,45,43.3z"/>
<path class="st1" d="M45,48.5v13.2c0,0.4-0.3,0.7-0.6,0.7c-0.4,0-0.7-0.3-0.7-0.6c0,0,0,0,0-0.1v-13C44.1,48.7,44.6,48.6,45,48.5z"
	/>
<path class="st1" d="M42.5,15.5v9.2c-0.4,0.3-0.9,0.7-1.3,1V15.5c0-0.4,0.3-0.7,0.7-0.6C42.2,14.9,42.5,15.2,42.5,15.5z"/>
<path class="st1" d="M42.5,29.5v10.3c-0.4,0.5-0.9,1.1-1.3,1.7v-11c0.2-0.2,0.5-0.3,0.7-0.5C42.1,29.8,42.3,29.6,42.5,29.5z"/>
<path class="st1" d="M42.5,48.9v8.5c0,0.4-0.3,0.7-0.7,0.6c-0.4,0-0.6-0.3-0.6-0.6v-8.5C41.5,48.9,42,48.9,42.5,48.9z"/>
<path class="st1" d="M39.9,12.9v13.5c-0.1,0.1-0.2,0.1-0.4,0.2c-0.3,0.2-0.7,0.4-1,0.6V12.9c0-0.4,0.3-0.7,0.6-0.7
	C39.6,12.2,39.9,12.5,39.9,12.9C39.9,12.9,39.9,12.9,39.9,12.9L39.9,12.9z"/>
<path class="st1" d="M39.9,31.3v11.4c-0.4,0.4-0.9,0.9-1.3,1.3V32.5C39,32.1,39.5,31.7,39.9,31.3z"/>
<path class="st1" d="M39.9,48.9v10.6c0,0.4-0.3,0.7-0.6,0.7c-0.4,0-0.7-0.3-0.7-0.6c0,0,0,0,0-0.1v-9.7c0.4-0.4,0.7-0.7,0.9-0.9
	L39.9,48.9z"/>
<path class="st1" d="M37.4,6.3v21.6c-0.5,0.3-0.9,0.7-1.3,1.1V6.3c0-0.4,0.3-0.7,0.7-0.7C37.1,5.7,37.4,6,37.4,6.3z"/>
<path class="st1" d="M37.4,33.9v11.3c-0.4,0.4-0.9,0.7-1.3,1.1V36C36.4,35.3,36.8,34.5,37.4,33.9z"/>
<path class="st1" d="M37.4,50.9v2.1c0,0.4-0.3,0.7-0.7,0.7c-0.4,0-0.7-0.3-0.7-0.7V52c0.3-0.3,0.7-0.6,0.9-0.8
	C37.1,51.1,37.2,51,37.4,50.9z"/>
<path class="st1" d="M34.8,10.9v19.3c-0.5,0.5-0.9,1-1.3,1.5V10.9c0-0.4,0.3-0.7,0.7-0.6C34.5,10.2,34.8,10.5,34.8,10.9z"/>
<path class="st1" d="M34.8,39.5v7.2c0,0.4-0.3,0.7-0.7,0.7c-0.1,0-0.2,0-0.3-0.1C33.8,45.7,33.8,43,34.8,39.5z"/>
<path class="st1" d="M24.6,10.5v15.2c-0.5-1.2-1-2.4-1.3-3.5V10.5c0-0.4,0.3-0.7,0.6-0.7C24.3,9.8,24.6,10.1,24.6,10.5
	C24.6,10.4,24.6,10.5,24.6,10.5z"/>
<path class="st1" d="M24.6,34.1v4.6c-0.5,0-0.9,0-1.3-0.1v-6.3C23.7,33,24.1,33.6,24.6,34.1z"/>
<path class="st1" d="M26.9,38.4c-0.3,0.1-0.7,0.2-1.1,0.3v-3.1C26.3,36.5,26.7,37.5,26.9,38.4z"/>
<path class="st1" d="M27.2,15.7v14.5c-0.5-0.6-1-1.3-1.3-2V15.7c0-0.4,0.3-0.7,0.7-0.6C26.9,15.1,27.2,15.3,27.2,15.7z"/>
<path class="st1" d="M29.7,5.8v27.4c-0.4-0.7-0.8-1.3-1.3-1.9V5.8c0-0.4,0.3-0.7,0.7-0.7C29.4,5.2,29.7,5.5,29.7,5.8z"/>
<path class="st1" d="M32.3,13.5v19.6c-0.5,0.7-0.9,1.4-1.3,2.1V13.5c0-0.4,0.3-0.7,0.7-0.6C32,12.9,32.3,13.2,32.3,13.5z"/>
<path class="st2" d="M24.4,48.9c-1,0-2.1-0.1-3.1-0.6c-0.3-0.1-0.6-0.3-0.8-0.6c-0.2-0.3-0.1-0.7,0.2-0.9c0.1-0.1,0.2,0,0.2,0
	c0.7,0.6,1.5,0.8,2.4,0.9c0.7,0.1,1.3,0.1,2,0c0.9-0.1,1.7-0.3,2.4-0.9c0.1-0.1,0.2-0.1,0.2,0c0,0,0,0,0,0c0.3,0.3,0.5,0.7,0.1,1.1
	c-0.3,0.3-0.8,0.5-1.2,0.7c-0.4,0.1-0.8,0.2-1.2,0.3C25.3,48.9,24.9,48.9,24.4,48.9z"/>
<path class="st2" d="M24.5,47.4c-0.8,0-1.6-0.1-2.4-0.4c-0.4-0.1-0.7-0.3-0.9-0.6c-0.2-0.2-0.2-0.6,0-0.8c0,0,0,0,0.1-0.1
	c0.1,0,0.1-0.1,0.2,0c0.5,0.6,1.3,0.8,2,0.9c1.1,0.2,2.3,0.1,3.3-0.3c0.3-0.1,0.5-0.3,0.8-0.5c0.1-0.1,0.2-0.1,0.2,0
	c0.3,0.3,0.3,0.6,0,0.9c-0.3,0.3-0.7,0.5-1.1,0.6C25.9,47.3,25.2,47.4,24.5,47.4z"/>
<path class="st2" d="M24.4,46.2c-0.7,0-1.5-0.1-2.2-0.4c-0.2-0.1-0.4-0.2-0.5-0.3c-0.2-0.2-0.3-0.5-0.1-0.8c0,0,0,0,0,0
	c0.2-0.2,0.4-0.3,0.6-0.4c0,0,0.1,0,0.2,0c0,0,0,0,0,0c0.3,0.7,0.9,0.9,1.6,1c0.6,0.1,1.3,0,1.9-0.3c0.3-0.1,0.5-0.4,0.7-0.7
	c0.1-0.1,0.1-0.1,0.2-0.1c0.2,0.1,0.4,0.2,0.5,0.4c0.2,0.3,0.2,0.5-0.1,0.8c-0.5,0.4-1,0.6-1.6,0.7C25.2,46.2,24.8,46.2,24.4,46.2z"
	/>
<path class="st2" d="M24.5,50.1c-1,0-1.9-0.1-2.7-0.5c-0.3-0.1-0.5-0.3-0.8-0.5c-0.1-0.1-0.2-0.3-0.1-0.5c0-0.1,0.1-0.2,0.2-0.1
	c0.8,0.4,1.7,0.6,2.6,0.7c1.2,0.1,2.4,0,3.6-0.4c0.2-0.1,0.4-0.1,0.5-0.2c0.1-0.1,0.2,0,0.2,0.1c0,0.2,0,0.4-0.2,0.5
	c-0.3,0.3-0.6,0.5-1,0.6C26.1,50,25.3,50.1,24.5,50.1z"/>
<path class="st2" d="M24.8,42.5c0,0.2,0,0.4,0,0.5c0,0.1,0.1,0.2,0.1,0.2c0,0,0,0,0,0c0.2,0,0.4,0.1,0.6,0.1c0.1,0,0.2,0.1,0.3,0.2
	c0.5,0.3,0.5,0.8,0,1.1s-1.1,0.4-1.6,0.3c-0.4,0-0.9-0.1-1.2-0.4c-0.4-0.3-0.4-0.7,0-1c0.3-0.2,0.6-0.3,0.9-0.4
	c0.2,0,0.2-0.1,0.2-0.3c0-0.3,0-0.6,0-1c0-0.2,0.1-0.4,0.3-0.4c0.2,0,0.3,0.1,0.3,0.4C24.8,42.2,24.8,42.4,24.8,42.5L24.8,42.5z"/>
<path class="st2" d="M24.4,51.2c-0.8,0-1.6-0.1-2.3-0.4c-0.2-0.1-0.3-0.2-0.5-0.3c-0.1-0.1-0.2-0.2-0.2-0.3c0-0.1-0.1-0.2,0-0.3
	c0.1-0.1,0.2,0,0.2,0.1c0.6,0.2,1.3,0.4,1.9,0.4c0.7,0.1,1.4,0,2.1-0.1c0.5-0.1,1-0.2,1.5-0.4c0.1,0,0.1-0.1,0.2,0
	c0,0.1,0.1,0.2,0,0.2c0,0.2-0.2,0.3-0.3,0.4c-0.5,0.4-1.2,0.5-1.8,0.6C25.1,51.2,24.7,51.2,24.4,51.2z"/>
<path class="st2" d="M24.4,52.1c-0.4,0-0.9-0.1-1.3-0.3c-0.1-0.1-0.3-0.1-0.4-0.3c0,0-0.1-0.1-0.1-0.2c0-0.1,0.1,0,0.2,0
	c0.2,0,0.4,0.1,0.6,0.1c0.8,0.1,1.7,0.1,2.5-0.1c0.1,0,0.2-0.1,0.2,0c0,0.1,0,0.1-0.1,0.2c-0.2,0.1-0.3,0.3-0.5,0.3
	C25.2,52,24.8,52.1,24.4,52.1z"/>
<path class="st2" d="M24.4,52.7c-0.2,0-0.5-0.1-0.7-0.2c-0.1,0-0.1-0.1-0.2-0.1c0,0-0.1-0.1,0-0.1s0.1,0,0.1,0c0.1,0,0.2,0,0.3,0.1
	c0.5,0.1,0.9,0,1.4-0.1c0,0,0.1,0,0.1,0s0,0.1-0.1,0.1c-0.1,0.1-0.2,0.1-0.3,0.2C24.8,52.6,24.6,52.7,24.4,52.7z"/>
<path class="st0" d="M25.4,61.5c-0.5-0.7-1.2-1.3-1.9-1.8c0.6,0.1,1,0.3,1.5,0.6c-0.4-0.5-1-0.8-1.5-1.1c0.3,0.1,0.6,0.2,0.9,0.4
	c-0.1-0.1-1.2-2.5-2.8-3.3c0.4,0,0.8,0.1,1.1,0.2c-0.2-0.4-1.1-1.2-2-1.9c-0.5-0.3-1.4-0.9-2.7-1.1c-0.2,0-0.4,0-0.6,0l0,0
	c-0.1,0-0.2,0-0.2,0H17l0,0c-0.5,0-2.2,0.1-3.3,0.7c0.1,0.2,0.1,0.7,0.1,1.1c0,0,0,0,0,0c0,1.5-0.4,2.1-0.4,2.1
	c0.1-1.7-0.8-2.6-0.8-2.6c0.4,0,1,0.5,1,0.5c-0.1-0.3-0.2-0.5-0.3-0.8c-0.1-0.2-0.3-0.4-0.5-0.7c0.3,0.1,0.6,0.2,0.9,0.3
	c-0.4-0.4-0.8-0.6-1.3-0.9c0.3,0.1,0.5,0.2,0.8,0.3c-0.3-0.6-0.7-1.2-1.2-1.7v0c-0.4-0.4-0.8-0.8-1.3-1c0.2,0,0.4,0,0.5,0.1
	c0.2,0,0.3,0.1,0.4,0.1c-0.2-0.3-0.9-1-1.8-1.5c-0.7-0.5-1.6-0.7-2.4-0.8c-0.3,0-0.7,0-1,0c-0.2,0-0.4,0-0.6,0
	c-0.3,0-0.6,0.1-0.9,0.2c-0.1,0-0.2,0.1-0.4,0.1h0.1c-0.1,0-0.2,0.1-0.2,0.1c-0.1,0.1-0.1,0-0.2,0c0-0.1-0.1-0.1-0.1-0.2
	c0-0.1-0.1-0.1-0.2-0.1C4,48.9,4,49,4,49.1c0,0.2,0,0.3,0,0.5c0,0.1,0,0.2-0.1,0.2c0,0,0,0,0,0c-0.2,0-0.3,0.1-0.5,0.2
	c-0.1,0-0.1,0.1-0.2,0c-0.1-0.1-0.1-0.2-0.1-0.3c0.1-0.1,0.1,0,0.2,0c0,0,0,0,0.1,0c0-0.1,0-0.1-0.1-0.1C3.2,49.4,3.1,49.2,3,49
	c0-0.1-0.1-0.1-0.1-0.1c-0.1,0-0.1,0.1-0.1,0.2c0,0.4-0.1,0.8,0.1,1.1c0,0.1,0,0.3-0.1,0.4c-0.3,0.5-0.3,1-0.4,1.5
	c0,0.1,0,0.1,0.1,0.2c0.1-0.3,0.2-0.6,0.4-0.9c0.1,0.4,0,0.8-0.1,1.1c-0.1,0.2-0.1,0.4,0.1,0.6c0.3,0.3,0.4,0.6,0.4,1
	c0,0.6,0,2,0,2.6c0,0.1,0,0.2,0,0.3c-0.1,0.4,0.1,0.8,0.4,1c0.1,0.1,0.3,0.2,0.5,0.3c0.2,0.1,0.4,0,0.5-0.1C4.7,58.1,4.8,58,4.9,58
	c0.2-0.1,0.4-0.4,0.5-0.7c0-0.1,0-0.2,0-0.3v-0.1c0.2-0.8,1-2,1.3-2.8v0L6.9,55c0,0,0,0.2,0.1,0.4c0,0.3,0,0.7,0,1
	c-0.2,0.5-0.3,1-0.3,1.6c0,0.7,0.1,1.4,0.5,2c0.1,0.2,0.2,0.5,0.2,0.7c0,0.1,0,0.1,0,0.2l0,0c0,0.5,0.2,0.9,0.4,1.3
	C8,62.6,8.2,63,8.3,63.4L8.9,66c0.1,0.3,0.2,0.6,0.3,0.9c0.1,0.5,0.3,1.1,0.2,1.7c-0.1,0.8-0.2,1.6-0.6,2.3
	c-0.3,0.4-0.2,0.5,0.3,0.5h0.6c0.1,0,0.3,0,0.4,0.1c0,0,0.1,0,0.2,0c0.4,0,0.8,0,1.3,0c0.2,0,0.2-0.1,0.3-0.2
	c0.1-0.3,0.1-0.6-0.1-0.9c-0.2-0.3-0.1-0.6,0-0.8c0.1-0.2,0.1-0.4,0.1-0.6c-0.1-0.6-0.2-1.2-0.2-1.8c0-0.1,0-0.2,0.1-0.3
	c0.1-0.2,0.2-0.5,0.2-0.7c0-0.2,0-0.3,0-0.5c-0.1-0.6,0.1-1.1,0.3-1.7c0.1-0.4,0.2-0.7,0.2-1.1v0l0.4,0c0.4-0.1,0.9-0.2,1.3-0.3
	l0.4-0.1l0,0c0,0.3,0.1,0.6,0.1,0.8c0.1,0.3,0.1,0.5,0.2,0.8c0.2,0.6,0.2,1.2,0.3,1.8c0.1,0.7-0.1,1.4-0.3,2.1
	c-0.2,0.6-0.4,1.1-0.6,1.7c-0.2,0.5-0.4,0.9-0.7,1.4C13.3,71,13.3,71,13.6,71c0.4,0,0.7,0,1.1,0c0.1,0,0.2-0.1,0.3-0.2
	c0.1-0.2,0.1-0.4-0.1-0.7c-0.1-0.1-0.1-0.1,0-0.2c0.3-0.2,0.4-0.5,0.4-0.9c0-0.6,0.3-1.1,0.5-1.7c0.1-0.3,0.3-0.7,0.4-1
	c0,0,0-0.1,0-0.1c-0.1-0.4,0.1-0.6,0.3-0.9c0.2-0.3,0.2-0.7,0.1-1c-0.1-0.3-0.2-0.7-0.3-1c-0.1-0.6-0.2-2.1-0.2-2.1l0.1-0.1
	c0.3-0.2,0.5-0.3,0.8-0.5l0.4-0.3c0.3,0.6,0.4,1.2,0.3,1.9c-0.1,1.1,0.3,2.9,0.3,2.9l0,0c0,0.2,0.1,0.3,0.1,0.5
	c0,0.4,0.2,0.9,0.2,1.3c0,0.4-0.1,0.7-0.1,1.1c0,0.5-0.2,0.9-0.3,1.4c0,0.1,0,0.2,0,0.3c0.1,0.2,0,0.4-0.2,0.6
	c-0.3,0.3-0.3,0.6-0.3,0.9c0,0.1,0,0.1,0.1,0.1c0.4,0,0.8,0.1,1.1,0c0.1,0,0.2-0.1,0.2-0.2c0-0.3,0.1-0.5-0.1-0.7
	c-0.1-0.2-0.1-0.4,0-0.5c0.2-0.3,0.1-0.5,0.1-0.8c0-0.7-0.1-1.4,0-2.1c0-0.1,0.1-0.3,0.2-0.4c0.1-0.3,0.2-0.6,0.2-0.9
	c0-0.3,0-0.7,0.1-1v-0.1c0,0,0,0,0-0.2c0-0.1,0.1-0.4,0.1-0.8c0.1-0.8-0.1-0.8,0.2-1.9c0.3-1.1,0.6-3.2,0.6-3.2c0,0,0,0,0,0
	c0.1-0.4,0.1-0.9,0.1-1.4c0.1,0.1,0.1,0.3,0.1,0.5c0,0.3,0.1,0.6,0,1c1.2,1.4,1.7,3.8,1.7,3.8c0-0.3,0.1-0.6,0-0.9
	c0.4,1.1,0.6,2.6,0.2,4.4c0.1-0.1,0.2-0.3,0.3-0.4c0.5-0.8,0.6-1.8,0.4-2.7c0.2,0.4,0.2,1.4,0,2.2c-0.2,0.6-0.5,1.2-0.8,1.7
	c0,0.1,0,0.1,0,0.2c0.4-0.2,0.6-0.6,0.8-1c-0.1,0.3-0.2,0.7-0.4,1c0,0,0,0.1-0.1,0.1c0,0,0,0.1,0,0.1c0.1,0,0.1,0,0.1-0.1
	c0.7-0.9,1-2,1-3.2c0-0.8-0.2-1.7-0.6-2.4c0.4,0.8,0.8,2,0.8,2c0-0.6-0.1-1.1-0.3-1.7c0.7,1.3,1.1,3,1.1,3c0.1-1.3-0.3-2.4-0.6-3.3
	c0.2,0.2,0.4,0.4,0.6,0.7c0.2,0.3,0.4,0.6,0.6,0.8c0,0,0,0.1,0.1,0.1c0.1,0,0-0.1,0-0.2c-0.2-0.5-0.5-1-0.8-1.4c0,0,0-0.1,0-0.1
	c0.2,0.2,0.3,0.3,0.5,0.5c0.2,0.2,0.3,0.4,0.5,0.6c0.1,0.2,0.3,0.4,0.4,0.6c0.1,0.2,0.2,0.4,0.3,0.7C26.6,63.6,25.9,62.2,25.4,61.5z
	 M10.8,68c0,0.3-0.1,0.7-0.2,1c-0.1,0.2-0.1,0.4,0,0.5c0.1,0.2,0,0.5-0.1,0.7c-0.1,0.2-0.2,0.4-0.3,0.5c-0.3-0.5-0.3-0.7,0-1.1
	c0.1-0.1,0.1-0.3,0.1-0.4c-0.1-0.3-0.2-0.5-0.2-0.8c0-0.6-0.2-1.2-0.1-1.9c0-0.4,0-0.8-0.1-1.2c0-0.1,0-0.2,0-0.3
	c0.1-0.4,0-0.8,0-1.2c-0.1-0.5-0.2-1-0.2-1.5c0,0,0-0.1,0-0.1H9.6l0.1-0.5h0c0.3,0,0.7,0.1,0.7,0.5c0,0,0,0,0,0c0,0.3,0,0.7,0,1
	c0,0,0,0.1,0,0.1c0,0.3,0.1,1.1,0.2,1.4c0,0.4,0.1,1.9,0.1,1.9C10.8,67.2,10.9,67.6,10.8,68L10.8,68z M19.2,59.9
	c0.5-4.1-1.2-5.8-1.4-5.9C21,56.2,19.2,59.9,19.2,59.9z"/>
<text transform="matrix(1.05 0 0 1 58.9082 41.6611)" class="st0 st3 st4 st5">B</text>
<text transform="matrix(1.05 0 0 1 71.6689 41.6611)" class="st0 st3 st4 st5">e</text>
<text transform="matrix(1.05 0 0 1 84.2627 41.6611)" class="st0 st3 st4 st6">Y</text>
<text transform="matrix(1.05 0 0 1 96.8809 41.6611)" class="st0 st3 st4 st5">o</text>
<text transform="matrix(1.05 0 0 1 115.9619 41.6611)" class="st0 st3 st4 st5">n</text>
<text transform="matrix(1.05 0 0 1 134.6338 41.6611)" class="st0 st3 st4 st5">d</text>
<text transform="matrix(1.05 0 0 1 58.9082 60.8115)" class="st0 st7 st4 st5">w</text>
<text transform="matrix(1.05 0 0 1 80.3599 60.8115)" class="st0 st7 st4 st5">o</text>
<text transform="matrix(1.05 0 0 1 100.207 60.8115)" class="st0 st7 st4 st5">r</text>
<text transform="matrix(1.05 0 0 1 117.9473 60.8115)" class="st0 st7 st4 st5">d</text>
<text transform="matrix(1.05 0 0 1 136.5264 60.8115)" class="st0 st7 st4 st5">Z</text>
</svg>
