<svg width="168" height="167" viewBox="0 0 168 167" fill="none" xmlns="http://www.w3.org/2000/svg">
<circle cx="84" cy="83.5" r="83.5" fill="white"/>
<path fill-rule="evenodd" clip-rule="evenodd" d="M86.5214 42.646V47.2741C86.4906 47.4802 86.5047 47.6906 86.5633 47.8907C86.6217 48.0909 86.7228 48.2761 86.8598 48.4339C86.9969 48.5915 87.1667 48.7176 87.3575 48.8039C87.4322 48.8376 87.5092 48.8651 87.5882 48.8857C87.7106 48.9177 87.8373 48.934 87.9646 48.9334C89.6761 49.1927 91.3557 49.6284 92.9767 50.2337C93.9887 50.5947 94.9543 51.0733 95.8533 51.66C100.154 54.5224 100.193 58.5586 95.8533 61.363C91.514 64.1671 86.5702 64.6619 81.5486 64.2737C77.7747 64.0021 74.1083 63.2162 70.9978 60.8098C67.6239 58.1998 67.5848 54.8523 70.9392 52.2032C73.3133 50.4655 76.104 49.3783 79.0325 49.0498C80.661 48.8073 81.0998 48.0794 81.0512 46.5853C80.9633 43.8004 81.0024 41.0061 81.0512 38.2118C81.0512 36.0575 82.0264 35 83.7913 35C85.556 35 86.4924 36.0381 86.5409 38.1923V42.6557L86.5214 42.646ZM83.7818 74.7232C77.246 74.9362 70.7389 73.7689 64.6893 71.2982C62.976 70.5734 61.3843 69.5916 59.9698 68.3872C59.4601 67.9732 59.0398 67.4606 58.7344 66.8805C58.4293 66.3004 58.2451 65.6649 58.1931 65.0122C58.1411 64.3595 58.2224 63.7031 58.4324 63.0824C58.6422 62.4617 58.976 61.8899 59.4139 61.401C60.5333 60.0545 62.0319 59.2848 63.536 58.512C63.7877 58.3828 64.0394 58.2536 64.2896 58.1215C64.4137 58.0272 64.5588 57.9637 64.7128 57.9365C64.8668 57.9097 65.0248 57.92 65.174 57.9666C65.3231 58.0132 65.4587 58.0946 65.5696 58.2044C65.6805 58.3142 65.763 58.4489 65.8106 58.597C68.6286 64.4186 74.0017 66.1457 79.7546 66.9317C85.2839 67.8422 90.9612 66.9969 95.9803 64.5159C98.4504 63.2879 100.45 61.2915 101.675 58.8297C102.202 57.7916 102.65 57.7235 103.625 58.2573C105.27 59.1073 106.757 60.2294 108.023 61.5757C110.041 63.8657 109.885 66.2913 107.545 68.2514C103.459 71.657 98.5547 73.1027 93.4451 73.947C90.2616 74.5508 87.0216 74.811 83.7818 74.7232ZM63.3535 82.0204C69.9664 84.3684 76.9714 85.4291 83.9867 85.1449C90.2682 85.3602 96.5403 84.5068 102.533 82.6222C106.195 81.645 109.55 79.7627 112.284 77.1496C114.663 74.7143 114.654 72.2885 112.431 69.6977C111.699 68.844 111.153 68.6693 110.315 69.6397C108.494 71.6255 106.22 73.1465 103.684 74.0739C94.2059 77.8966 84.3769 78.4207 74.4306 76.9266C67.9365 75.9465 61.5788 74.3938 56.8789 69.2514C56.3816 68.7079 55.9816 68.9118 55.5038 69.3097C55.4521 69.3483 55.4013 69.3875 55.3513 69.4278L55.2751 69.4904C55.2484 69.5127 55.222 69.5353 55.1958 69.5585C55.0407 69.6946 54.8944 69.8398 54.7577 69.9936C54.7261 70.0291 54.695 70.0651 54.6646 70.1014C54.6005 70.1777 54.5388 70.2558 54.4793 70.3358C54.3385 70.5254 54.2112 70.7249 54.0986 70.9333C53.7544 71.5698 53.5541 72.2733 53.5113 72.9949C53.4685 73.7165 53.5846 74.4387 53.8512 75.1109C54.1181 75.7833 54.529 76.3897 55.0553 76.8877C57.3662 79.238 60.2126 80.9989 63.3535 82.0204ZM56.5074 93.0628C65.303 97.206 74.7809 97.885 83.6448 98.3024C87.5063 98.2452 91.3615 97.9633 95.1899 97.4582C98.8158 97.051 102.388 96.264 105.848 95.1101C109.709 93.8001 113.561 92.3252 116.486 89.4145C119.929 85.9892 118.797 82.5544 115.735 79.8764C115.596 79.7406 115.431 79.6346 115.249 79.5651C115.165 79.5331 115.079 79.5091 114.992 79.4931C114.888 79.4745 114.783 79.4673 114.678 79.4719C114.483 79.4802 114.292 79.5279 114.117 79.6126C113.941 79.6972 113.785 79.8167 113.658 79.9636C107.574 84.9122 100.3 86.6296 92.7618 87.5999C86.8877 88.3132 80.9478 88.3132 75.0736 87.5999C67.3702 86.7171 60.0276 84.9122 53.8259 79.925C53.5768 79.6666 53.2421 79.5068 52.8835 79.4748C52.5253 79.4427 52.1673 79.5405 51.8756 79.7504C50.529 80.5637 49.5596 81.8731 49.178 83.3938C48.7965 84.9148 49.0335 86.5238 49.8377 87.8715C51.359 90.472 53.9233 91.84 56.5074 93.0628ZM60.1353 104.773C67.702 107.995 75.6784 108.839 84.2206 108.781C91.3807 108.993 98.5202 107.911 105.292 105.588C108.501 104.414 111.611 103.017 113.971 100.426C114.573 99.8826 115.017 99.1873 115.255 98.4139C115.39 97.9753 115.457 97.5208 115.454 97.0662C115.452 96.7188 115.409 96.3715 115.326 96.031C115.063 94.9832 114.527 94.5463 113.376 95.119C111.831 95.8975 110.239 96.5782 108.608 97.1565C98.4081 100.708 87.8968 101.601 77.1705 100.815C69.1162 100.223 61.3251 98.6606 54.0311 95.0801C52.9683 94.556 52.4612 94.9929 52.1785 95.9632C51.9748 96.7463 51.9865 97.5694 52.2132 98.3462C52.4396 99.1232 52.8723 99.8251 53.4656 100.378C55.3346 102.316 57.6124 103.818 60.1353 104.773ZM63.1274 114.729C69.6607 117.581 76.574 118.299 83.6046 118.387C86.3556 118.504 89.1115 118.358 91.8344 117.95C97.4804 117.193 103.048 116.126 107.836 112.72C109.062 111.955 109.966 110.772 110.381 109.392C110.534 109.066 110.599 108.706 110.57 108.347C110.541 107.988 110.419 107.643 110.215 107.345C109.745 106.847 109.245 107.112 108.776 107.36L108.773 107.361C108.721 107.389 108.67 107.416 108.619 107.442C108.549 107.478 108.479 107.511 108.411 107.539C104.113 109.351 99.5798 110.553 94.9451 111.11C88.8417 111.907 82.6708 112.059 76.5352 111.566C70.6924 111.105 64.9461 109.814 59.4708 107.733C59.2823 107.658 59.095 107.537 58.9071 107.416C58.4149 107.097 57.9176 106.775 57.3743 107.267C56.6677 107.907 56.9539 108.821 57.2099 109.638L57.2573 109.79C57.563 110.766 58.179 111.617 59.0125 112.216C60.2819 113.209 61.6627 114.052 63.1274 114.729ZM83.6557 126.208C79.7448 126.096 75.889 125.261 72.2858 123.743C71.0544 123.266 69.9523 122.508 69.0682 121.531C68.7073 121.094 68.0931 120.667 68.4634 120.017C68.7536 119.508 69.1874 119.63 69.6101 119.748C69.727 119.781 69.8434 119.814 69.9554 119.833C70.628 119.947 71.2992 120.079 71.9709 120.211C73.1208 120.436 74.2723 120.662 75.4357 120.803C82.7455 121.683 90.1499 121.388 97.3658 119.93C97.4706 119.907 97.5835 119.875 97.6999 119.841C98.2323 119.687 98.8391 119.512 99.1112 120.172C99.3767 120.817 98.948 121.188 98.5363 121.545C98.434 121.633 98.3326 121.721 98.2432 121.812C96.8796 123.076 95.2362 124.004 93.4456 124.519C90.2881 125.576 86.9865 126.145 83.6557 126.208ZM77.4917 129.661C79.4529 130.491 81.5534 130.945 83.6836 131C85.5031 130.962 87.3055 130.645 89.0273 130.059C89.9982 129.779 90.8897 129.277 91.6307 128.594C91.6827 128.54 91.7436 128.488 91.8051 128.436C92.0321 128.244 92.2677 128.044 92.099 127.701C91.92 127.337 91.585 127.438 91.2922 127.527C91.2339 127.545 91.1773 127.562 91.1239 127.575C87.1986 128.36 83.173 128.517 79.1983 128.041C78.6616 127.99 78.1384 127.901 77.6215 127.804C77.1521 127.715 76.6881 127.619 76.2241 127.536C75.9413 127.487 75.6293 127.274 75.4049 127.633C75.2233 127.924 75.4259 128.132 75.6129 128.324C75.6566 128.369 75.6994 128.413 75.7365 128.458C76.2183 128.991 76.8197 129.403 77.4917 129.661Z" fill="#E0CF6F"/>
</svg>
