<svg width="168" height="167" viewBox="0 0 168 167" fill="none" xmlns="http://www.w3.org/2000/svg">
<circle cx="84" cy="83.5" r="83.5" fill="white"/>
<path d="M130.624 88.6712C128.448 85.6527 125.692 83.0924 122.515 81.1381C124.877 81.5599 126.816 82.5396 128.79 83.5206C126.992 81.5585 124.735 80.2621 122.48 78.9656C123.853 79.3224 125.161 79.8898 126.358 80.6474C126.075 80.0165 121.387 70.1356 114.477 66.5621C116.109 66.5766 117.719 66.9348 119.201 67.613C118.214 65.9313 114.653 62.3573 110.528 59.7644C108.378 58.4333 104.5 56.0147 98.9647 55.3145C98.0952 55.2095 97.2192 55.1669 96.3435 55.187C96.0275 55.1926 95.6955 55.1898 95.4041 55.2104H94.7697L94.7646 55.2184C92.5829 55.2653 85.3197 55.6201 80.896 58.0114C81.3733 58.8983 81.4224 60.7768 81.3436 62.534C81.3436 62.5758 81.3436 62.6062 81.3436 62.6489C81.3035 68.9479 79.7123 71.3575 79.7123 71.3575C80.1735 64.0255 76.312 60.4174 76.312 60.4174C78.0254 60.5875 80.4117 62.4867 80.4551 62.5214C80.1339 61.3591 79.6599 60.244 79.0455 59.2048C78.4461 58.2589 77.8113 57.3126 77.1062 56.4014C78.395 56.7761 79.646 57.2688 80.8432 57.8732C79.2921 56.3316 77.3882 55.2803 75.4495 54.2641C76.5842 54.5496 77.6751 54.9857 78.6927 55.5606C77.3621 53.04 75.7155 50.6972 73.7923 48.588V48.5529C72.2388 46.7571 70.3465 45.2812 68.2221 44.2084C69.0042 44.2093 69.7841 44.2914 70.549 44.4535C71.1928 44.5801 71.8198 44.78 72.4175 45.0493C71.5361 43.6825 68.3985 40.8093 64.8025 38.7072C61.7006 36.8109 58.2281 35.5926 54.6158 35.1332C53.2349 34.9556 51.8367 34.9556 50.4558 35.1332C49.6446 35.0979 48.8338 35.0979 48.0233 35.1332C46.7145 35.202 45.4214 35.4496 44.1806 35.8691C43.6868 36.0097 43.1228 36.1503 42.4531 36.395H42.9818C42.6417 36.5487 42.312 36.7242 41.9947 36.9204C41.642 37.1656 41.4656 37.0953 41.2873 36.7451C41.143 36.5091 40.9777 36.2864 40.7936 36.0796C40.6172 35.8691 40.4762 35.5171 40.1239 35.6577C39.8767 35.7983 39.8409 36.1133 39.8409 36.4283C39.8758 37.0592 39.9465 37.69 39.9824 38.3556C40.0032 38.4651 39.9998 38.5777 39.9725 38.6857C39.9452 38.7937 39.8945 38.8945 39.8241 38.9812C39.7537 39.0678 39.6651 39.1382 39.5646 39.1874C39.4641 39.2366 39.354 39.2636 39.242 39.2663C38.5406 39.397 37.8706 39.6586 37.2674 40.0373C37.0207 40.1423 36.8094 40.5628 36.492 40.1076C36.2454 39.6858 35.9983 39.1965 36.2454 38.7409C36.4567 38.3903 36.7741 38.8459 37.0561 38.9162C37.1617 38.9513 37.2325 39.0212 37.3735 38.9513C37.4791 38.7057 37.3027 38.5295 37.1617 38.3889C36.5552 37.753 36.0447 37.033 35.646 36.2516C35.5403 36.0064 35.3993 35.6891 35.0466 35.7613C34.6938 35.8335 34.6943 36.1831 34.7292 36.462C34.7645 38.0388 34.5179 39.6492 35.0121 41.2269C35.0643 41.5076 35.0567 41.796 34.99 42.0737C34.9232 42.3513 34.7987 42.6119 34.6245 42.8388C33.5318 44.8013 33.2144 46.9382 33.038 49.1458C33.0026 49.427 32.8965 49.7767 33.321 49.9867C33.9204 48.8308 34.167 47.4641 35.1192 46.3077C35.3911 47.8882 35.2203 49.5125 34.6254 51.0028C34.4125 51.3833 34.3317 51.823 34.3955 52.2537C34.4593 52.6844 34.6641 53.0823 34.9782 53.3858C36.0975 54.4455 36.7767 55.8837 36.8816 57.4167C37.0231 60.0794 36.7524 65.7597 36.717 68.4567C36.6816 68.9123 36.6467 69.3679 36.5755 69.8234C36.4442 70.6088 36.5519 71.4152 36.8848 72.1393C37.2177 72.8634 37.7607 73.4722 38.444 73.8876C39.0517 74.3339 39.7011 74.7211 40.3833 75.0439C40.7484 75.2257 41.1657 75.2762 41.5641 75.1869C41.9625 75.0975 42.3175 74.8737 42.5687 74.5537C42.8533 74.2472 43.2204 74.0282 43.6265 73.9228C44.6838 73.6416 45.4596 72.3812 45.5653 71.0144C45.5653 70.6291 45.6006 70.279 45.5653 69.8933V69.44C46.4467 66.1464 49.8196 61.0281 51.0538 57.8048V57.8746L52.3583 61.4134C52.3583 61.4134 52.4997 62.1844 52.7459 63.1654C52.8215 64.5664 52.8097 65.9707 52.7105 67.3702C52.0247 69.5034 51.6333 71.7192 51.5471 73.957C51.3491 76.8456 52.0638 79.7236 53.5915 82.1889C54.1315 83.0779 54.4236 84.0937 54.4376 85.132C54.4296 85.4034 54.4682 85.663 54.4819 85.9288H54.4843C54.5946 87.9288 55.2813 89.7905 56.0594 91.6152C56.7668 93.2969 57.5049 94.943 58.2453 96.6257L60.5015 107.803C60.7481 109.099 61.3122 110.29 61.5942 111.587C62.0526 113.9 62.7576 116.212 62.5464 118.559C62.2997 121.959 61.8767 125.287 59.9728 128.3C58.8094 130.122 59.0206 130.297 61.2065 130.297H63.5688C64.2031 130.333 64.9081 130.122 65.3312 130.86C65.4019 130.965 65.7556 130.965 65.966 130.965C67.7637 131 69.5266 130.965 71.3248 131C72.0652 131 72.3468 130.615 72.5939 129.984C73.1933 128.547 72.8052 127.286 71.9945 126.025C71.2541 124.868 71.4658 123.642 72.0652 122.486C72.4609 121.707 72.5849 120.82 72.4175 119.963C71.9481 117.392 71.6536 114.793 71.5361 112.183C71.5152 111.707 71.6249 111.234 71.8535 110.816C72.3252 109.905 72.5786 108.898 72.5939 107.873C72.6526 107.173 72.6408 106.469 72.5585 105.771C72.3119 103.283 73.1245 101.005 73.7574 98.6932C74.1818 97.1164 74.4978 95.5397 74.7793 93.9625L74.7906 93.8866L76.5422 93.7178C78.4444 93.3955 80.3185 92.9268 82.1477 92.3159L83.8398 91.6855L83.9813 91.6152C84.0566 92.7821 84.2215 93.9417 84.4746 95.0837C84.7576 96.1698 85.0749 97.256 85.4268 98.3421C86.2021 100.76 86.4138 103.282 86.6251 105.805C86.9081 108.889 86.0592 111.867 85.2858 114.81C84.6156 117.228 83.4168 119.505 82.6415 121.923C81.9718 124.025 80.8437 125.882 79.8208 127.809C79.3963 128.65 79.4685 128.72 80.4202 128.791C81.9887 128.977 83.5732 128.989 85.1443 128.825C85.3947 128.811 85.6352 128.723 85.8359 128.574C86.0366 128.424 86.1886 128.219 86.2728 127.984C86.5902 127.038 86.8387 126.093 86.0611 125.181C85.8498 124.936 85.7442 124.619 86.0611 124.376C87.4009 123.429 87.7183 122.063 87.7183 120.591C87.7532 118.069 88.811 115.861 89.7278 113.584C90.3272 112.182 90.8908 110.746 91.4907 109.309C91.5655 109.155 91.6133 108.989 91.6321 108.819C91.3855 107.312 92.1981 106.156 92.9366 104.999C93.3288 104.395 93.5576 103.7 93.6009 102.982C93.6442 102.264 93.5005 101.547 93.1837 100.9C92.6223 99.5434 92.1972 98.1351 91.9146 96.6955C91.5619 94.1378 91.2445 87.7957 91.2445 87.7957L91.6689 87.5144C92.797 86.8137 93.9251 86.0427 94.9829 85.2717L96.816 83.9054C97.9332 86.4152 98.4289 89.1546 98.2615 91.8941C98.0149 96.449 99.7423 104.017 99.7423 104.262L99.7777 104.298C99.8131 104.998 100.095 105.734 100.165 106.47C100.342 108.327 101.188 110.079 101.152 112.006C101.152 113.548 100.728 115.053 100.624 116.596C100.482 118.664 99.7777 120.59 99.3193 122.588C99.202 122.963 99.1897 123.362 99.2839 123.744C99.4059 124.167 99.4042 124.616 99.2789 125.038C99.1536 125.46 98.91 125.837 98.5765 126.127C97.4131 127.213 97.4485 128.579 97.4834 129.946C97.5187 130.261 97.6602 130.436 97.9771 130.436C99.5636 130.541 101.184 130.787 102.772 130.471C103.265 130.366 103.618 130.156 103.653 129.7C103.724 128.614 103.9 127.563 103.336 126.547C103.12 126.195 103.014 125.787 103.033 125.375C103.052 124.963 103.194 124.566 103.442 124.235C104.182 123.148 103.866 121.922 103.794 120.731C103.618 117.822 103.228 114.879 103.865 111.971C104.06 111.389 104.308 110.826 104.605 110.289C105.155 109.117 105.42 107.832 105.38 106.539C105.428 105.144 105.546 103.752 105.733 102.368V102.122C105.733 102.122 105.733 102.017 105.804 101.457C105.874 100.931 106.015 99.9151 106.333 98.1631C106.932 94.6243 105.908 94.7645 107.32 90.1045C108.73 85.4793 109.788 76.6849 109.788 76.6849C109.783 76.6477 109.771 76.6118 109.752 76.5794C109.983 74.6849 110.054 72.7745 109.964 70.8682C110.26 71.4788 110.393 72.1544 110.352 72.8307C110.422 74.197 110.704 75.5633 110.457 76.93C115.499 82.6764 117.649 93.0476 117.649 93.0476C117.856 91.7726 117.88 90.475 117.72 89.1934C119.271 93.9934 120.117 100.231 118.672 107.764C119.161 107.185 119.598 106.563 119.976 105.907C121.956 102.531 122.525 98.5179 121.563 94.7293C122.62 96.4462 122.515 100.826 121.563 103.874C120.758 106.379 119.543 108.735 117.967 110.847C117.929 111.074 117.87 111.297 117.79 111.513C119.299 110.464 120.532 109.07 121.386 107.448C121 108.876 120.468 110.262 119.8 111.583C119.709 111.694 119.627 111.811 119.553 111.933C119.507 111.989 119.485 112.061 119.492 112.133C119.498 112.205 119.533 112.272 119.588 112.319C119.8 112.494 119.871 112.249 119.941 112.109C122.81 108.204 124.342 103.488 124.313 98.6538C124.197 95.0858 123.345 91.5794 121.809 88.3525C123.713 91.5758 125.088 96.6215 125.088 96.6215C125.132 94.24 124.713 91.8724 123.854 89.6489C126.675 95.1497 128.614 102.438 128.614 102.438C128.86 97.1469 127.309 92.1369 125.864 88.6328C126.82 89.5182 127.715 90.4663 128.543 91.4708C129.424 92.592 130.2 93.8186 130.975 95.0096C131.117 95.1849 131.152 95.6053 131.505 95.4652C131.821 95.2899 131.54 94.9398 131.434 94.7293C130.489 92.6541 129.293 90.7009 127.873 88.9131C127.817 88.8592 127.775 88.7928 127.75 88.7194C127.726 88.6459 127.719 88.5677 127.732 88.4912C128.437 89.1943 129.177 89.8575 129.847 90.5934C130.566 91.3945 131.237 92.2368 131.856 93.116C132.494 93.9434 133.06 94.8225 133.549 95.7441C134.091 96.6478 134.551 97.5975 134.924 98.5821C135.488 97.5008 132.809 91.6846 130.624 88.6712ZM68.7159 116.316C68.5511 117.713 68.2801 119.095 67.9052 120.451C67.6648 121.177 67.6525 121.959 67.8698 122.693C68.1507 123.64 68.0492 124.658 67.5869 125.531C67.2948 126.327 66.8783 127.072 66.3527 127.739C65.119 125.706 65.119 124.936 66.5291 123.079C66.7345 122.82 66.8686 122.513 66.9182 122.188C66.9678 121.862 66.9312 121.529 66.812 121.222C66.3892 120.155 66.1165 119.035 66.0013 117.894C65.7896 115.266 65.1553 112.673 65.5769 110.01C65.7529 108.356 65.5727 106.684 65.0482 105.105C64.8853 104.704 64.8605 104.26 64.9775 103.843C65.5769 102.162 65.119 100.48 64.8011 98.868C64.3767 96.7658 63.8494 94.6965 63.8848 92.5615C63.8784 92.4419 63.8545 92.3238 63.814 92.2109H63.6023L64.1314 89.8983H64.2017C65.3651 89.9686 67.0573 90.2489 67.0573 92.1758C67.0573 92.2109 67.0573 92.2109 67.0926 92.2461C67.0573 93.6827 67.0926 95.1521 67.1987 96.5905C67.2336 96.696 67.2336 96.8357 67.269 96.9763C67.4105 98.0974 67.8684 101.671 68.0094 102.967C68.1853 104.509 68.5027 111.062 68.5027 111.062C68.8731 112.788 68.9452 114.565 68.7159 116.316ZM104.111 82.2241C106.156 65.0552 99.0349 57.9777 98.2591 57.277C111.867 66.4918 104.111 82.2241 104.111 82.2241Z" fill="#604945"/>
</svg>
