<?xml version="1.0" encoding="utf-8"?>
<!-- Generator: Adobe Illustrator 25.1.0, SVG Export Plug-In . SVG Version: 6.00 Build 0)  -->
<svg version="1.1" id="Layer_1" xmlns="http://www.w3.org/2000/svg" xmlns:xlink="http://www.w3.org/1999/xlink" x="0px" y="0px"
	 viewBox="0 0 260 123" style="enable-background:new 0 0 260 123;" xml:space="preserve">
<style type="text/css">
	.st0{fill:#604945;}
	.st1{fill:#828F4B;}
	.st2{fill:#D6C260;}
	.st3{font-family:'CinzelDecorative-Regular';}
	.st4{font-size:29.9596px;}
	.st5{letter-spacing:-1;}
	.st6{font-family:'CinzelDecorative-Black';}
</style>
<image style="display:none;overflow:visible;" width="260" height="111" xlink:href="1DC8F91A.jpg"  transform="matrix(0.9969 0 0 0.9969 0.6424 6.5773)">
</image>
<g>
	<path class="st0" d="M14.7,45.1c0,0,10.3,11.2,16.2,9.7c3.6-0.7,3.7-0.2,3.7-0.2s1,3.8,1.8,7.1s-1.7,31.1-1.7,31.1h5.2h2.7
		c0,0-1.9-21.4-2.1-22.5c-0.2-1.1,8-7.1,8.5-8.2c0,0,10.8,0.9,16.4-4.4c0,0-6.1,2.3-12.8,1.7c0,0,8.2-8.8,7.6-16.5
		c0,0-4.8,13.2-18.9,21.3c0,0-1.9-6.1,1.9-16.8s14.9-10.2,15.9-19.9c0,0-2.7,4.7-8.7,7.8S39.4,45.2,37.9,50c0,0-1.2-6.5-4.5-9.3
		S26.1,27.5,25.8,24c0,0-0.7,13.1,5.7,19.4c0,0,2.6,2.3,3.2,7c0,0-1.2,1.1-3.7,1.1S23.1,51.3,14.7,45.1z"/>
	<g>
		<path class="st1" d="M16.7,42.4v2.4c-0.4-0.3-0.8-0.6-1.2-0.9c-0.2-0.1-0.3-0.2-0.5-0.2v-1.3c0-0.5,0.4-0.9,0.9-0.9
			C16.3,41.5,16.7,41.9,16.7,42.4z"/>
		<path class="st1" d="M16.7,49.2v16.6c0,0.6-0.6,1-1.1,0.9l0,0c-0.4-0.1-0.6-0.5-0.6-0.9V47.5C15.5,47.9,16.1,48.5,16.7,49.2z"/>
		<path class="st1" d="M20.1,30.8v16.2c-0.6-0.3-1.2-0.7-1.8-1V30.8c0-0.5,0.4-0.9,0.9-0.9C19.7,29.9,20.1,30.3,20.1,30.8z"/>
		<path class="st1" d="M20.1,52v14.8c0,0.6-0.6,1-1.1,0.9h0c-0.4-0.1-0.6-0.5-0.6-0.9V50.5C18.9,51,19.5,51.5,20.1,52z"/>
		<path class="st1" d="M23.4,27.8v20.7c-0.6-0.2-1.2-0.5-1.8-0.8V27.8c0-0.5,0.4-0.9,0.9-0.9C23,26.9,23.4,27.3,23.4,27.8z"/>
		<path class="st1" d="M23.4,54.2v13.4c0,0.6-0.6,1-1.1,0.9l0,0c-0.4-0.1-0.6-0.5-0.6-0.9V53.1C22.3,53.5,22.8,53.9,23.4,54.2z"/>
		<path class="st1" d="M26.8,20.4v2.5c-0.3-0.3-0.6-0.4-1-0.4c-0.3,0-0.5,0.1-0.8,0.2v-2.4c0-0.5,0.4-0.9,0.9-0.9
			C26.4,19.5,26.8,19.9,26.8,20.4z"/>
		<path class="st1" d="M26.8,38.7v11c-0.5-0.1-1.1-0.3-1.8-0.5V32.6C25.4,34.5,25.9,36.7,26.8,38.7z"/>
		<path class="st1" d="M63.7,36.1v20.6c-0.5,0.1-1.1,0.3-1.8,0.5V36.1c0-0.5,0.4-0.9,0.9-0.9C63.3,35.2,63.7,35.6,63.7,36.1z"/>
		<path class="st1" d="M61.9,61.5c0.6-0.3,1.2-0.5,1.8-0.9v22.6c0,0.5-0.4,0.9-0.9,0.9c-0.5,0-0.9-0.4-0.9-0.9V61.5z"/>
		<path class="st1" d="M67,45v29.4c0,0.5-0.4,0.9-0.9,0.9c-0.5,0-0.9-0.4-0.9-0.9V59.6c0.4-0.3,0.8-0.6,1.2-1
			c0.5-0.5,0.6-1.2,0.2-1.8c-0.3-0.5-0.9-0.7-1.4-0.6V45c0-0.5,0.4-0.9,0.9-0.9C66.6,44.1,67,44.5,67,45z"/>
		<path class="st1" d="M60.3,29.2v12.3c-0.6-0.1-1.2,0.3-1.4,0.9c0,0-0.1,0.3-0.3,0.8v-9.9C59.3,32.1,60,30.8,60.3,29.2z"/>
		<path class="st1" d="M60.3,49.9v7.6c-0.6,0.1-1.1,0.2-1.8,0.3v-4.2C59.2,52.4,59.8,51.2,60.3,49.9z"/>
		<path class="st1" d="M58.5,62.6c0.6-0.1,1.2-0.3,1.8-0.5v14.1c0,0.5-0.4,0.9-0.9,0.9s-0.9-0.4-0.9-0.9V62.6z"/>
		<path class="st1" d="M57,35.1v11.2c-0.5,0.9-1.1,1.8-1.8,2.9V36.7C55.8,36.2,56.4,35.7,57,35.1z"/>
		<path class="st1" d="M57,56.1V58C56.5,58,56,58,55.6,58C56,57.5,56.5,56.8,57,56.1z"/>
		<path class="st1" d="M57,62.9v17.3c0,0.5-0.4,0.9-0.9,0.9c-0.5,0-0.9-0.4-0.9-0.9V63.2C55.8,63.1,56.4,63,57,62.9z"/>
		<path class="st1" d="M53.6,19.5v12c-0.5,0.4-1.1,0.9-1.8,1.3V19.5c0-0.5,0.4-0.9,0.9-0.9C53.2,18.7,53.6,19,53.6,19.5z"/>
		<path class="st1" d="M53.6,37.9v13.5c-0.5,0.7-1.1,1.5-1.8,2.2V39.1c0.3-0.2,0.6-0.5,0.9-0.7C53.1,38.3,53.3,38.1,53.6,37.9z"/>
		<path class="st1" d="M53.6,63.4v11.2c0,0.5-0.4,0.9-0.9,0.9c-0.5,0-0.9-0.4-0.9-0.9V63.4C52.4,63.4,53,63.4,53.6,63.4z"/>
		<path class="st1" d="M50.3,16.1v17.7c-0.2,0.1-0.3,0.2-0.5,0.3c-0.4,0.2-0.9,0.5-1.3,0.7V16.1c0-0.5,0.4-0.9,0.9-0.9
			C49.9,15.2,50.3,15.6,50.3,16.1z"/>
		<path class="st1" d="M50.3,40.3v15c-0.6,0.6-1.1,1.2-1.8,1.8V41.9C49.1,41.3,49.7,40.8,50.3,40.3z"/>
		<path class="st1" d="M50.3,63.5v14c0,0.5-0.4,0.9-0.9,0.9c-0.5,0-0.9-0.4-0.9-0.9V64.6c0.5-0.5,0.9-0.9,1.2-1.2
			C49.9,63.4,50.1,63.4,50.3,63.5z"/>
		<path class="st1" d="M46.9,7.5v28.4c-0.6,0.4-1.2,0.9-1.8,1.4V7.5c0-0.5,0.4-0.9,0.9-0.9C46.5,6.6,46.9,7,46.9,7.5z"/>
		<path class="st1" d="M46.9,43.6v14.9c-0.6,0.5-1.2,1-1.8,1.4V46.5C45.6,45.4,46.2,44.5,46.9,43.6z"/>
		<path class="st1" d="M46.9,66v2.7c0,0.5-0.4,0.9-0.9,0.9c-0.5,0-0.9-0.4-0.9-0.9v-1.2c0.4-0.4,0.9-0.7,1.2-1.1
			C46.6,66.3,46.7,66.1,46.9,66z"/>
		<path class="st1" d="M43.6,13.4v25.3c-0.6,0.6-1.2,1.3-1.8,1.9V13.4c0-0.5,0.4-0.9,0.9-0.9C43.2,12.6,43.6,13,43.6,13.4z"/>
		<path class="st1" d="M43.6,51v9.5c0,0.5-0.4,0.9-0.9,0.9c-0.1,0-0.3,0-0.4-0.1C42.2,59.2,42.2,55.7,43.6,51z"/>
		<path class="st1" d="M30.1,12.9v20c-0.7-1.5-1.3-3.1-1.8-4.6V12.9c0-0.5,0.4-0.9,0.9-0.9C29.8,12,30.1,12.4,30.1,12.9z"/>
		<path class="st1" d="M30.1,44v6.1c-0.5,0-1.1-0.1-1.8-0.2v-8.2C28.9,42.5,29.5,43.3,30.1,44z"/>
		<path class="st1" d="M33.1,49.7c-0.3,0.1-0.8,0.3-1.4,0.4v-4C32.2,46.9,32.8,48.1,33.1,49.7z"/>
		<path class="st1" d="M33.5,19.8v19.1c-0.6-0.7-1.2-1.6-1.8-2.7V19.8c0-0.5,0.4-0.9,0.9-0.9S33.5,19.3,33.5,19.8z"/>
		<path class="st1" d="M36.9,6.8v36c-0.5-0.9-1.1-1.7-1.8-2.5V6.8c0-0.5,0.4-0.9,0.9-0.9C36.5,5.9,36.9,6.3,36.9,6.8z"/>
		<path class="st1" d="M40.2,17v25.7c-0.7,0.9-1.3,1.8-1.8,2.8V17c0-0.5,0.4-0.9,0.9-0.9S40.2,16.5,40.2,17z"/>
	</g>
	<g>
		<path class="st2" d="M29.9,63.4c-1.3-0.1-2.7-0.2-4.1-0.8c-0.4-0.2-0.8-0.4-1-0.8c-0.3-0.4-0.1-1,0.3-1.2c0.1-0.1,0.2-0.1,0.3,0
			c0.9,0.8,2,1,3.2,1.2c0.9,0.1,1.8,0.1,2.7,0c1.1-0.1,2.2-0.4,3.1-1.2c0.1-0.1,0.2-0.1,0.3,0c0.5,0.4,0.6,0.9,0.1,1.4
			c-0.4,0.4-1,0.7-1.6,0.9c-0.5,0.2-1.1,0.3-1.6,0.4C31.1,63.4,30.6,63.4,29.9,63.4z"/>
		<path class="st2" d="M30,61.4c-1.1,0-2.1-0.1-3.1-0.5c-0.5-0.2-0.9-0.4-1.2-0.8c-0.3-0.4-0.3-0.8,0.1-1.1c0.1-0.1,0.1-0.1,0.2,0
			c0.7,0.8,1.7,1,2.6,1.2c1.5,0.2,3,0.2,4.4-0.4c0.4-0.2,0.7-0.4,1-0.7c0.1-0.1,0.2-0.1,0.3,0c0.3,0.4,0.3,0.8,0,1.1
			c-0.4,0.4-0.9,0.7-1.5,0.8C31.8,61.4,30.9,61.5,30,61.4z"/>
		<path class="st2" d="M29.9,59.9c-1,0-2-0.1-2.9-0.5c-0.3-0.1-0.5-0.3-0.7-0.4c-0.3-0.3-0.4-0.7-0.1-1.1c0.2-0.2,0.5-0.4,0.7-0.5
			c0.1,0,0.2,0,0.2,0.1c0.4,0.9,1.2,1.1,2.1,1.3c0.8,0.1,1.7,0,2.4-0.4c0.4-0.2,0.7-0.5,0.9-0.9c0.1-0.2,0.1-0.2,0.3-0.1
			c0.2,0.1,0.5,0.3,0.7,0.5c0.3,0.3,0.3,0.7-0.1,1c-0.6,0.5-1.3,0.7-2.1,0.9C30.9,59.9,30.4,59.9,29.9,59.9z"/>
		<path class="st2" d="M30,65c-1.3,0-2.5-0.1-3.6-0.6c-0.4-0.2-0.7-0.4-1-0.7c-0.2-0.2-0.3-0.4-0.2-0.7c0-0.1,0.1-0.2,0.3-0.1
			c1.1,0.5,2.3,0.8,3.5,0.9c1.6,0.1,3.2,0,4.7-0.6c0.2-0.1,0.5-0.2,0.7-0.3c0.2-0.1,0.3,0,0.3,0.1c0.1,0.3,0,0.5-0.2,0.7
			c-0.4,0.4-0.8,0.6-1.3,0.8C32.1,64.9,31,65,30,65z"/>
		<path class="st2" d="M30.3,55c0,0.2,0,0.5,0,0.7c0,0.2,0.1,0.2,0.2,0.2c0.3,0,0.5,0.1,0.8,0.2c0.2,0.1,0.3,0.1,0.4,0.2
			c0.6,0.4,0.7,1,0,1.5c-0.7,0.4-1.4,0.5-2.1,0.4c-0.6,0-1.1-0.2-1.6-0.5c-0.5-0.4-0.5-0.9,0-1.3c0.4-0.3,0.8-0.4,1.2-0.5
			c0.2,0,0.3-0.1,0.3-0.4c0-0.4,0-0.8,0-1.3c0-0.3,0.1-0.5,0.4-0.5c0.3,0,0.4,0.2,0.4,0.5C30.3,54.6,30.3,54.8,30.3,55
			C30.3,55,30.3,55,30.3,55z"/>
		<path class="st2" d="M29.9,66.4c-1.1,0-2.1-0.1-3.1-0.6c-0.2-0.1-0.4-0.2-0.6-0.4c-0.1-0.1-0.2-0.2-0.3-0.4c0-0.1-0.1-0.3,0-0.4
			c0.1-0.1,0.2,0,0.3,0.1c0.8,0.3,1.7,0.5,2.6,0.6c0.9,0.1,1.8,0,2.8-0.1c0.7-0.1,1.4-0.3,2-0.5c0.1,0,0.2-0.1,0.3,0
			c0.1,0.1,0.1,0.2,0,0.3c-0.1,0.2-0.2,0.4-0.4,0.5c-0.7,0.5-1.6,0.7-2.4,0.8C30.7,66.4,30.3,66.5,29.9,66.4z"/>
		<path class="st2" d="M29.9,67.6c-0.6,0-1.2-0.1-1.7-0.4c-0.2-0.1-0.4-0.2-0.5-0.3c-0.1-0.1-0.2-0.1-0.1-0.2c0.1-0.1,0.1,0,0.2,0
			c0.3,0,0.5,0.1,0.8,0.1c1.1,0.1,2.2,0.1,3.3-0.1c0.1,0,0.2-0.1,0.3,0c0,0.1-0.1,0.2-0.1,0.2c-0.2,0.2-0.5,0.3-0.7,0.4
			C30.9,67.5,30.4,67.6,29.9,67.6z"/>
		<path class="st2" d="M29.9,68.4c-0.3,0-0.6-0.1-0.9-0.2c-0.1,0-0.2-0.1-0.3-0.2c0,0-0.1-0.1,0-0.1c0,0,0.1,0,0.1,0
			c0.1,0,0.3,0.1,0.4,0.1c0.6,0.1,1.2,0.1,1.8-0.1c0,0,0.1,0,0.1,0c0,0.1,0,0.1-0.1,0.1c-0.1,0.1-0.2,0.2-0.4,0.2
			C30.5,68.3,30.2,68.4,29.9,68.4z"/>
	</g>
	<path class="st0" d="M31.2,79.9c-0.7-0.9-1.5-1.7-2.5-2.3c0.7,0.1,1.3,0.4,1.9,0.7c-0.6-0.6-1.3-1-2-1.4c0.4,0.1,0.8,0.3,1.2,0.5
		c-0.1-0.2-1.5-3.3-3.7-4.4c0.9,0,1.5,0.3,1.5,0.3c-0.3-0.5-1.4-1.6-2.7-2.4c-0.7-0.4-1.9-1.2-3.6-1.4c-0.3,0-0.6,0-0.8,0l0,0
		c-0.1,0-0.2,0-0.3,0c0,0,0,0,0,0c0,0-0.1,0-0.2,0l0,0c-0.7,0-2.9,0.1-4.3,0.9c0.1,0.3,0.2,0.9,0.1,1.4c0,0,0,0,0,0
		c0,2-0.5,2.7-0.5,2.7c0.1-2.3-1.1-3.4-1.1-3.4c0.5,0.1,1.3,0.6,1.3,0.7c-0.2-0.6-0.4-1-0.4-1c-0.2-0.3-0.4-0.6-0.6-0.9
		c0.4,0.1,0.8,0.3,1.2,0.5c-0.5-0.5-1.1-0.8-1.7-1.1c0.4,0.1,0.7,0.2,1,0.4c-0.1-0.1-0.6-1.2-1.5-2.2c0,0,0,0,0,0
		c-0.5-0.5-1.1-1-1.7-1.4c0.3,0,0.5,0,0.7,0.1c0.4,0.1,0.6,0.2,0.6,0.2c-0.3-0.4-1.2-1.3-2.4-2c-0.6-0.3-1.7-0.9-3.2-1.1
		c-0.6-0.1-0.9,0-1.3,0c-0.3,0-0.5,0-0.8,0c-0.4,0-0.8,0.1-1.2,0.2c-0.2,0-0.3,0.1-0.5,0.2H4c-0.1,0.1-0.2,0.1-0.3,0.2
		c-0.1,0.1-0.2,0.1-0.2-0.1c0-0.1-0.1-0.1-0.2-0.2c-0.1-0.1-0.1-0.2-0.2-0.1c-0.1,0-0.1,0.1-0.1,0.2c0,0.2,0,0.4,0,0.6
		c0,0.2-0.1,0.3-0.2,0.3c-0.2,0-0.4,0.1-0.6,0.2c-0.1,0-0.1,0.2-0.2,0c-0.1-0.1-0.2-0.3-0.1-0.4c0.1-0.1,0.2,0,0.3,0.1
		c0,0,0.1,0,0.1,0c0-0.1,0-0.1-0.1-0.2C2,64,1.9,63.8,1.8,63.6c0-0.1-0.1-0.2-0.2-0.2c-0.1,0-0.1,0.1-0.1,0.2c0,0.5-0.1,1,0.1,1.5
		c0.1,0.2,0,0.3-0.1,0.5c-0.3,0.6-0.4,1.3-0.5,2c0,0.1,0,0.2,0.1,0.3c0.2-0.4,0.3-0.8,0.6-1.1c0.1,0.5,0,1-0.2,1.5
		c-0.1,0.3-0.1,0.5,0.1,0.7c0.3,0.4,0.6,0.8,0.6,1.3c0,0.8,0,2.6-0.1,3.4c0,0.1,0,0.3,0,0.4c-0.1,0.5,0.2,1,0.6,1.3
		c0.2,0.1,0.4,0.3,0.6,0.4c0.3,0.1,0.5,0,0.7-0.2c0.1-0.1,0.2-0.2,0.3-0.2c0.3-0.1,0.6-0.5,0.6-0.9c0-0.1,0-0.2,0-0.3v-0.1
		c0.3-1,1.3-2.6,1.7-3.6v0l0.4,1.1c0,0,0,0.2,0.1,0.5c0,0.6,0,1.3,0,1.3c-0.2,0.7-0.3,1.4-0.4,2.1c0,0.9,0.1,1.8,0.6,2.6
		c0.2,0.3,0.3,0.6,0.3,0.9c0,0.1,0,0.2,0,0.2l0,0c0,0.6,0.2,1.2,0.5,1.8c0.2,0.5,0.4,1,0.7,1.6l0.7,3.5c0.1,0.4,0.3,0.8,0.3,1.2
		c0.1,0.7,0.4,1.4,0.3,2.2c-0.1,1.1-0.2,2.1-0.8,3c-0.4,0.6-0.3,0.6,0.4,0.6h0.7c0.2,0,0.4-0.1,0.5,0.2c0,0,0.1,0,0.2,0
		c0.6,0,1.1,0,1.7,0c0.2,0,0.3-0.1,0.4-0.3c0.2-0.4,0.1-0.8-0.2-1.2c-0.2-0.4-0.2-0.7,0-1.1c0.1-0.3,0.2-0.5,0.1-0.8
		c-0.1-0.8-0.2-1.6-0.3-2.4c0-0.2,0-0.3,0.1-0.4c0.2-0.3,0.2-0.6,0.2-0.9c0-0.2,0-0.4,0-0.7c-0.1-0.8,0.2-1.5,0.4-2.2
		c0.1-0.5,0.2-1,0.3-1.5l0,0l0.5-0.1c0.5-0.1,1.1-0.2,1.7-0.4l0.5-0.2l0,0c0,0.4,0.1,0.7,0.2,1.1c0.1,0.3,0.2,0.7,0.3,1
		c0.2,0.8,0.3,1.5,0.4,2.3c0.1,1-0.2,1.9-0.4,2.8c-0.2,0.8-0.6,1.5-0.8,2.2c-0.2,0.7-0.6,1.2-0.9,1.8c-0.1,0.3-0.1,0.3,0.2,0.3
		c0.5,0,1,0.1,1.5,0c0.2,0,0.3-0.1,0.3-0.3c0.1-0.3,0.2-0.6-0.1-0.9c-0.1-0.1-0.1-0.2,0-0.3c0.4-0.3,0.5-0.7,0.5-1.2
		c0-0.8,0.3-1.5,0.6-2.2c0.2-0.4,0.4-0.9,0.5-1.3c0-0.1,0-0.1,0-0.2c-0.1-0.5,0.2-0.8,0.4-1.2c0.3-0.4,0.3-0.9,0.1-1.3
		c-0.2-0.4-0.3-0.9-0.4-1.3c-0.1-0.8-0.2-2.8-0.2-2.8l0.1-0.1c0.3-0.2,0.7-0.5,1-0.7l0.6-0.4c0,0,0.5,1.1,0.4,2.5
		c-0.1,1.4,0.5,3.8,0.5,3.9l0,0c0,0.2,0.1,0.4,0.1,0.7c0.1,0.6,0.3,1.1,0.3,1.7c0,0.5-0.1,1-0.2,1.4c0,0.6-0.3,1.2-0.4,1.9
		c0,0.1,0,0.2,0,0.4c0.1,0.3,0,0.5-0.2,0.7c-0.4,0.3-0.3,0.8-0.3,1.2c0,0.1,0.1,0.2,0.2,0.2c0.5,0,1,0.1,1.5,0
		c0.2,0,0.3-0.1,0.3-0.2c0-0.3,0.1-0.7-0.1-1c-0.1-0.2-0.1-0.5,0-0.7c0.2-0.3,0.1-0.7,0.1-1.1c-0.1-0.9-0.2-1.8,0-2.7
		c0-0.2,0.2-0.3,0.2-0.5c0.2-0.4,0.2-0.8,0.2-1.2c0-0.4,0.1-0.9,0.1-1.3v-0.1c0,0,0,0,0-0.2c0-0.2,0.1-0.5,0.2-1
		c0.2-1.1-0.1-1.1,0.3-2.5c0.4-1.4,0.8-4.2,0.8-4.2s0,0,0,0c0.1-0.6,0.1-1.2,0.1-1.8c0.1,0.2,0.1,0.4,0.1,0.6c0,0.4,0.1,0.9,0,1.3
		c1.6,1.8,2.2,5,2.2,5c0.1-0.7,0-1.1,0-1.2c0.5,1.5,0.7,3.4,0.3,5.8c0.2-0.2,0.3-0.4,0.4-0.6c0.6-1.1,0.8-2.2,0.5-3.5
		c0.3,0.5,0.3,1.9,0,2.9c-0.3,0.8-0.6,1.5-1.1,2.2c0,0.1,0,0.1-0.1,0.2c0.5-0.3,0.8-0.8,1.1-1.3c-0.1,0.4-0.3,0.9-0.5,1.3
		c0,0-0.1,0.1-0.1,0.1c0,0,0,0.1,0,0.1c0.1,0.1,0.1,0,0.1-0.1c0.3-0.5,0.6-1,0.8-1.5c0.4-0.9,0.5-1.8,0.5-2.7c0-1.1-0.3-2.2-0.8-3.2
		c0.6,1,1,2.6,1,2.6c0-0.8-0.2-1.6-0.4-2.2c0.9,1.7,1.5,4,1.5,4c0.1-1.7-0.4-3.2-0.9-4.3c0.3,0.3,0.6,0.6,0.8,0.9
		c0.3,0.3,0.5,0.7,0.8,1.1c0,0.1,0.1,0.2,0.2,0.1c0.1-0.1,0-0.2,0-0.2c-0.3-0.6-0.7-1.3-1.1-1.8c0,0-0.1-0.1,0-0.1
		c0.2,0.2,0.4,0.4,0.7,0.7c0.2,0.3,0.4,0.5,0.6,0.8c0.2,0.3,0.4,0.5,0.5,0.8c0.2,0.3,0.3,0.6,0.4,0.9C32.7,82.7,31.9,80.9,31.2,79.9
		z M12,88.5c0,0.4-0.1,0.9-0.3,1.3c-0.1,0.2-0.1,0.5,0,0.7c0.1,0.3,0,0.6-0.1,0.9c-0.1,0.2-0.2,0.5-0.4,0.7
		c-0.4-0.6-0.4-0.9,0.1-1.5c0.1-0.2,0.2-0.4,0.1-0.6c-0.1-0.3-0.2-0.7-0.3-1c-0.1-0.8-0.3-1.6-0.1-2.5c0.1-0.5,0-1-0.2-1.5
		c0-0.1-0.1-0.3,0-0.4c0.2-0.5,0-1-0.1-1.6c-0.1-0.7-0.3-1.3-0.3-2c0,0,0-0.1,0-0.1h-0.1l0.2-0.7c0,0,0,0,0,0c0.4,0,0.9,0.1,0.9,0.7
		c0,0,0,0,0,0c0,0.4,0,0.9,0,1.4c0,0,0,0.1,0,0.1c0,0.3,0.2,1.5,0.2,1.9c0.1,0.5,0.2,2.5,0.2,2.5C12.1,87.4,12.1,88,12,88.5z
		 M23,77.9c0.6-5.4-1.6-7.6-1.8-7.8C25.4,73,23,77.9,23,77.9z"/>
	<text transform="matrix(1.05 0 0 1 75.2075 53.8906)"><tspan x="0" y="0" class="st0 st3 st4 st5">BeYond</tspan><tspan x="0" y="25.2" class="st0 st6 st4 st5">wordZ</tspan></text>
</g>
<g>
	<g>
		<path class="st0" d="M15.7,103.9c-0.6,0-1.1-0.1-1.7-0.3s-1-0.5-1.3-0.9c-0.4-0.4-0.7-0.8-0.9-1.3c-0.2-0.5-0.3-1-0.3-1.6
			s0.1-1.1,0.3-1.6c0.2-0.5,0.5-0.9,0.9-1.3c0.4-0.4,0.8-0.7,1.3-0.9s1.1-0.3,1.7-0.3c0.4,0,0.9,0.1,1.3,0.2
			c0.4,0.1,0.8,0.3,1.1,0.5c0.4,0.2,0.7,0.5,0.9,0.8l-1.1,1.1c-0.3-0.4-0.6-0.6-1-0.8c-0.4-0.2-0.8-0.3-1.2-0.3
			c-0.4,0-0.7,0.1-1,0.2c-0.3,0.1-0.6,0.3-0.8,0.5c-0.2,0.2-0.4,0.5-0.5,0.8c-0.1,0.3-0.2,0.7-0.2,1c0,0.4,0.1,0.7,0.2,1
			c0.1,0.3,0.3,0.6,0.5,0.8c0.2,0.2,0.5,0.4,0.8,0.5c0.3,0.1,0.7,0.2,1,0.2c0.4,0,0.8-0.1,1.2-0.3c0.4-0.2,0.7-0.4,1-0.8l1.1,1.1
			c-0.2,0.3-0.5,0.6-0.9,0.8s-0.7,0.4-1.1,0.5C16.5,103.9,16.1,103.9,15.7,103.9z"/>
		<path class="st0" d="M23.9,103.9c-0.6,0-1.1-0.1-1.7-0.3c-0.5-0.2-1-0.5-1.3-0.9c-0.4-0.4-0.7-0.8-0.9-1.3c-0.2-0.5-0.3-1-0.3-1.6
			s0.1-1.1,0.3-1.6c0.2-0.5,0.5-0.9,0.9-1.3c0.4-0.4,0.8-0.7,1.3-0.9c0.5-0.2,1.1-0.3,1.7-0.3c0.6,0,1.1,0.1,1.6,0.3
			c0.5,0.2,1,0.5,1.3,0.9c0.4,0.4,0.7,0.8,0.9,1.3c0.2,0.5,0.3,1,0.3,1.6s-0.1,1.1-0.3,1.6c-0.2,0.5-0.5,0.9-0.9,1.3
			c-0.4,0.4-0.8,0.7-1.3,0.9C25,103.8,24.4,103.9,23.9,103.9z M23.9,102.4c0.4,0,0.7-0.1,1-0.2c0.3-0.1,0.6-0.3,0.8-0.5
			s0.4-0.5,0.5-0.8c0.1-0.3,0.2-0.7,0.2-1c0-0.4-0.1-0.7-0.2-1c-0.1-0.3-0.3-0.6-0.5-0.8c-0.2-0.2-0.5-0.4-0.8-0.5
			c-0.3-0.1-0.6-0.2-1-0.2c-0.4,0-0.7,0.1-1,0.2c-0.3,0.1-0.6,0.3-0.8,0.5c-0.2,0.2-0.4,0.5-0.5,0.8c-0.1,0.3-0.2,0.6-0.2,1
			c0,0.4,0.1,0.7,0.2,1c0.1,0.3,0.3,0.6,0.5,0.8s0.5,0.4,0.8,0.5C23.2,102.4,23.5,102.4,23.9,102.4z"/>
		<path class="st0" d="M29.2,103.8v-7.9h1.6l3.9,5.1v-5.1h1.6v7.9h-1.5l-4.1-5.3v5.3H29.2z"/>
		<path class="st0" d="M37.7,103.8v-7.9h1.6l3.9,5.1v-5.1h1.6v7.9h-1.5l-4.1-5.3v5.3H37.7z"/>
		<path class="st0" d="M46.2,103.8v-7.9h6.1v1.4h-4.5v1.8h2.9v1.4h-2.9v1.9h4.5v1.4H46.2z"/>
		<path class="st0" d="M57.4,103.9c-0.6,0-1.1-0.1-1.7-0.3s-1-0.5-1.3-0.9c-0.4-0.4-0.7-0.8-0.9-1.3c-0.2-0.5-0.3-1-0.3-1.6
			s0.1-1.1,0.3-1.6c0.2-0.5,0.5-0.9,0.9-1.3c0.4-0.4,0.8-0.7,1.3-0.9s1.1-0.3,1.7-0.3c0.4,0,0.9,0.1,1.3,0.2
			c0.4,0.1,0.8,0.3,1.1,0.5c0.4,0.2,0.7,0.5,0.9,0.8l-1.1,1.1c-0.3-0.4-0.6-0.6-1-0.8c-0.4-0.2-0.8-0.3-1.2-0.3
			c-0.4,0-0.7,0.1-1,0.2c-0.3,0.1-0.6,0.3-0.8,0.5c-0.2,0.2-0.4,0.5-0.5,0.8c-0.1,0.3-0.2,0.7-0.2,1c0,0.4,0.1,0.7,0.2,1
			c0.1,0.3,0.3,0.6,0.5,0.8c0.2,0.2,0.5,0.4,0.8,0.5c0.3,0.1,0.7,0.2,1,0.2c0.4,0,0.8-0.1,1.2-0.3c0.4-0.2,0.7-0.4,1-0.8l1.1,1.1
			c-0.2,0.3-0.5,0.6-0.9,0.8s-0.7,0.4-1.1,0.5C58.2,103.9,57.8,103.9,57.4,103.9z"/>
		<path class="st0" d="M63.8,103.8v-6.5h-2.7v-1.5h7v1.5h-2.7v6.5H63.8z"/>
		<path class="st0" d="M69,103.8v-7.9h1.6v7.9H69z"/>
		<path class="st0" d="M76,103.9c-0.6,0-1.1-0.1-1.7-0.3c-0.5-0.2-1-0.5-1.3-0.9c-0.4-0.4-0.7-0.8-0.9-1.3c-0.2-0.5-0.3-1-0.3-1.6
			s0.1-1.1,0.3-1.6c0.2-0.5,0.5-0.9,0.9-1.3c0.4-0.4,0.8-0.7,1.3-0.9c0.5-0.2,1.1-0.3,1.7-0.3c0.6,0,1.1,0.1,1.6,0.3
			c0.5,0.2,1,0.5,1.3,0.9c0.4,0.4,0.7,0.8,0.9,1.3c0.2,0.5,0.3,1,0.3,1.6s-0.1,1.1-0.3,1.6c-0.2,0.5-0.5,0.9-0.9,1.3
			c-0.4,0.4-0.8,0.7-1.3,0.9C77.2,103.8,76.6,103.9,76,103.9z M76,102.4c0.4,0,0.7-0.1,1-0.2c0.3-0.1,0.6-0.3,0.8-0.5
			s0.4-0.5,0.5-0.8c0.1-0.3,0.2-0.7,0.2-1c0-0.4-0.1-0.7-0.2-1c-0.1-0.3-0.3-0.6-0.5-0.8c-0.2-0.2-0.5-0.4-0.8-0.5
			c-0.3-0.1-0.6-0.2-1-0.2c-0.4,0-0.7,0.1-1,0.2c-0.3,0.1-0.6,0.3-0.8,0.5c-0.2,0.2-0.4,0.5-0.5,0.8c-0.1,0.3-0.2,0.6-0.2,1
			c0,0.4,0.1,0.7,0.2,1c0.1,0.3,0.3,0.6,0.5,0.8s0.5,0.4,0.8,0.5C75.3,102.4,75.7,102.4,76,102.4z"/>
		<path class="st0" d="M81.4,103.8v-7.9h1.6l3.9,5.1v-5.1h1.6v7.9H87l-4.1-5.3v5.3H81.4z"/>
		<path class="st0" d="M92.1,103.8v-7.9h6.1v1.4h-4.5v1.8h2.9v1.4h-2.9v1.9h4.5v1.4H92.1z"/>
		<path class="st0" d="M101.9,103.8l-3.2-7.9h1.8l2.4,6.3l2.5-6.3h1.7l-3.3,7.9H101.9z"/>
		<path class="st0" d="M111.7,103.9c-0.6,0-1.1-0.1-1.7-0.3c-0.5-0.2-1-0.5-1.3-0.9c-0.4-0.4-0.7-0.8-0.9-1.3
			c-0.2-0.5-0.3-1-0.3-1.6s0.1-1.1,0.3-1.6c0.2-0.5,0.5-0.9,0.9-1.3c0.4-0.4,0.8-0.7,1.3-0.9c0.5-0.2,1.1-0.3,1.7-0.3
			c0.6,0,1.1,0.1,1.6,0.3c0.5,0.2,1,0.5,1.3,0.9c0.4,0.4,0.7,0.8,0.9,1.3c0.2,0.5,0.3,1,0.3,1.6s-0.1,1.1-0.3,1.6
			c-0.2,0.5-0.5,0.9-0.9,1.3c-0.4,0.4-0.8,0.7-1.3,0.9C112.8,103.8,112.3,103.9,111.7,103.9z M111.7,102.4c0.4,0,0.7-0.1,1-0.2
			c0.3-0.1,0.6-0.3,0.8-0.5s0.4-0.5,0.5-0.8c0.1-0.3,0.2-0.7,0.2-1c0-0.4-0.1-0.7-0.2-1c-0.1-0.3-0.3-0.6-0.5-0.8
			c-0.2-0.2-0.5-0.4-0.8-0.5c-0.3-0.1-0.6-0.2-1-0.2c-0.4,0-0.7,0.1-1,0.2c-0.3,0.1-0.6,0.3-0.8,0.5c-0.2,0.2-0.4,0.5-0.5,0.8
			c-0.1,0.3-0.2,0.6-0.2,1c0,0.4,0.1,0.7,0.2,1c0.1,0.3,0.3,0.6,0.5,0.8s0.5,0.4,0.8,0.5C111,102.4,111.3,102.4,111.7,102.4z"/>
		<path class="st0" d="M117,103.8v-7.9h1.6v6.5h4.3v1.5H117z"/>
		<path class="st0" d="M127.5,103.9c-0.7,0-1.3-0.1-1.9-0.4c-0.5-0.3-0.9-0.7-1.2-1.2c-0.3-0.5-0.4-1.2-0.4-1.9v-4.5h1.6v4.5
			c0,0.4,0.1,0.8,0.2,1.1c0.2,0.3,0.4,0.5,0.7,0.7s0.6,0.2,1,0.2c0.4,0,0.7-0.1,1-0.2c0.3-0.2,0.5-0.4,0.6-0.7
			c0.2-0.3,0.2-0.7,0.2-1.1v-4.5h1.6v4.5c0,0.7-0.1,1.3-0.4,1.9s-0.7,0.9-1.2,1.2S128.2,103.9,127.5,103.9z"/>
		<path class="st0" d="M134.5,103.8v-6.5h-2.7v-1.5h7v1.5h-2.7v6.5H134.5z"/>
		<path class="st0" d="M139.8,103.8v-7.9h1.6v7.9H139.8z"/>
		<path class="st0" d="M146.7,103.9c-0.6,0-1.1-0.1-1.7-0.3s-1-0.5-1.3-0.9c-0.4-0.4-0.7-0.8-0.9-1.3c-0.2-0.5-0.3-1-0.3-1.6
			s0.1-1.1,0.3-1.6c0.2-0.5,0.5-0.9,0.9-1.3c0.4-0.4,0.8-0.7,1.3-0.9s1.1-0.3,1.7-0.3c0.6,0,1.1,0.1,1.6,0.3s1,0.5,1.3,0.9
			s0.7,0.8,0.9,1.3c0.2,0.5,0.3,1,0.3,1.6s-0.1,1.1-0.3,1.6c-0.2,0.5-0.5,0.9-0.9,1.3c-0.4,0.4-0.8,0.7-1.3,0.9
			S147.3,103.9,146.7,103.9z M146.7,102.4c0.4,0,0.7-0.1,1-0.2c0.3-0.1,0.6-0.3,0.8-0.5s0.4-0.5,0.5-0.8c0.1-0.3,0.2-0.7,0.2-1
			c0-0.4-0.1-0.7-0.2-1c-0.1-0.3-0.3-0.6-0.5-0.8c-0.2-0.2-0.5-0.4-0.8-0.5c-0.3-0.1-0.6-0.2-1-0.2c-0.4,0-0.7,0.1-1,0.2
			c-0.3,0.1-0.6,0.3-0.8,0.5c-0.2,0.2-0.4,0.5-0.5,0.8c-0.1,0.3-0.2,0.6-0.2,1c0,0.4,0.1,0.7,0.2,1c0.1,0.3,0.3,0.6,0.5,0.8
			s0.5,0.4,0.8,0.5C146.1,102.4,146.4,102.4,146.7,102.4z"/>
		<path class="st0" d="M152.1,103.8v-7.9h1.6l3.9,5.1v-5.1h1.6v7.9h-1.5l-4.1-5.3v5.3H152.1z"/>
		<path class="st0" d="M165,103.8v-6.5h-2.7v-1.5h7v1.5h-2.7v6.5H165z"/>
		<path class="st0" d="M170.3,103.8v-7.9h3.9c0.5,0,1,0.1,1.4,0.3c0.4,0.2,0.7,0.5,1,0.9c0.2,0.4,0.3,0.8,0.3,1.3
			c0,0.5-0.1,0.9-0.4,1.3s-0.7,0.7-1.1,0.9l1.8,3.3h-1.8l-1.6-3h-1.8v3H170.3z M171.9,99.4h2.1c0.4,0,0.7-0.1,0.9-0.3
			c0.2-0.2,0.3-0.5,0.3-0.8c0-0.3-0.1-0.6-0.3-0.8c-0.2-0.2-0.5-0.3-0.9-0.3h-2.1V99.4z"/>
		<path class="st0" d="M177.2,103.8l3.3-7.9h1.9l3.2,7.9h-1.8l-0.8-2.1h-3.3l-0.8,2.1H177.2z M180.2,100.4h2.3l-1.1-2.9L180.2,100.4
			z"/>
		<path class="st0" d="M186.3,103.8v-7.9h1.6l3.9,5.1v-5.1h1.6v7.9h-1.5l-4.1-5.3v5.3H186.3z"/>
		<path class="st0" d="M197.6,103.9c-0.6,0-1.3-0.1-1.9-0.4c-0.6-0.2-1.2-0.6-1.6-1l0.9-1.2c0.5,0.4,0.9,0.7,1.3,0.9
			s0.9,0.3,1.4,0.3c0.3,0,0.6,0,0.9-0.1c0.2-0.1,0.4-0.2,0.6-0.3c0.1-0.2,0.2-0.3,0.2-0.5c0-0.3-0.1-0.5-0.3-0.6
			c-0.2-0.2-0.5-0.3-1-0.3l-1.6-0.3c-0.7-0.1-1.2-0.4-1.5-0.7c-0.4-0.4-0.5-0.8-0.5-1.4c0-0.5,0.1-0.9,0.4-1.3
			c0.3-0.4,0.6-0.6,1.1-0.8c0.5-0.2,1-0.3,1.7-0.3c0.6,0,1.2,0.1,1.7,0.3c0.6,0.2,1.1,0.5,1.5,0.8l-0.9,1.2c-0.8-0.6-1.7-1-2.5-1
			c-0.3,0-0.6,0-0.8,0.1c-0.2,0.1-0.4,0.2-0.5,0.3s-0.2,0.3-0.2,0.5c0,0.3,0.1,0.5,0.3,0.6c0.2,0.1,0.5,0.2,0.9,0.3l1.5,0.2
			c0.8,0.1,1.4,0.4,1.8,0.8c0.4,0.4,0.6,0.9,0.6,1.5c0,0.5-0.1,1-0.4,1.3c-0.3,0.4-0.7,0.7-1.2,0.9
			C198.9,103.8,198.3,103.9,197.6,103.9z"/>
		<path class="st0" d="M205.8,103.9c-0.6,0-1.1-0.1-1.7-0.3s-1-0.5-1.3-0.9c-0.4-0.4-0.7-0.8-0.9-1.3c-0.2-0.5-0.3-1-0.3-1.6
			s0.1-1.1,0.3-1.6c0.2-0.5,0.5-0.9,0.9-1.3c0.4-0.4,0.8-0.7,1.3-0.9s1.1-0.3,1.7-0.3c0.6,0,1.1,0.1,1.6,0.3s1,0.5,1.3,0.9
			s0.7,0.8,0.9,1.3c0.2,0.5,0.3,1,0.3,1.6s-0.1,1.1-0.3,1.6c-0.2,0.5-0.5,0.9-0.9,1.3c-0.4,0.4-0.8,0.7-1.3,0.9
			S206.4,103.9,205.8,103.9z M205.8,102.4c0.4,0,0.7-0.1,1-0.2c0.3-0.1,0.6-0.3,0.8-0.5s0.4-0.5,0.5-0.8c0.1-0.3,0.2-0.7,0.2-1
			c0-0.4-0.1-0.7-0.2-1c-0.1-0.3-0.3-0.6-0.5-0.8c-0.2-0.2-0.5-0.4-0.8-0.5c-0.3-0.1-0.6-0.2-1-0.2c-0.4,0-0.7,0.1-1,0.2
			c-0.3,0.1-0.6,0.3-0.8,0.5c-0.2,0.2-0.4,0.5-0.5,0.8c-0.1,0.3-0.2,0.6-0.2,1c0,0.4,0.1,0.7,0.2,1c0.1,0.3,0.3,0.6,0.5,0.8
			s0.5,0.4,0.8,0.5C205.1,102.4,205.5,102.4,205.8,102.4z"/>
		<path class="st0" d="M211.2,103.8v-7.9h6.1v1.4h-4.5v1.9h3v1.4h-3v3.3H211.2z"/>
		<path class="st0" d="M218.4,103.8v-7.9h2.1l2.2,4.3l2.2-4.3h2.1v7.9h-1.5V98l-2.8,5.3l-2.7-5.3v5.9H218.4z"/>
		<path class="st0" d="M228.4,103.8v-7.9h3.9c0.5,0,1,0.1,1.4,0.3c0.4,0.2,0.7,0.5,1,0.9c0.2,0.4,0.3,0.8,0.3,1.3
			c0,0.5-0.1,0.9-0.4,1.3s-0.7,0.7-1.1,0.9l1.8,3.3h-1.8l-1.6-3h-1.8v3H228.4z M230.1,99.4h2.1c0.4,0,0.7-0.1,0.9-0.3
			c0.2-0.2,0.3-0.5,0.3-0.8c0-0.3-0.1-0.6-0.3-0.8c-0.2-0.2-0.5-0.3-0.9-0.3h-2.1V99.4z"/>
		<path class="st0" d="M235.4,103.8l3.3-7.9h1.9l3.2,7.9H242l-0.8-2.1h-3.3l-0.8,2.1H235.4z M238.4,100.4h2.3l-1.1-2.9L238.4,100.4z
			"/>
		<path class="st0" d="M244.2,101.2v-1.3h4.3v1.3H244.2z"/>
	</g>
</g>
<g>
	<g>
		<path class="st0" d="M1.3,114.5v-8.4h3.7c0.6,0,1,0.1,1.4,0.3c0.4,0.2,0.7,0.5,0.9,0.8c0.2,0.4,0.3,0.8,0.3,1.3s-0.1,0.9-0.3,1.3
			c-0.2,0.4-0.5,0.7-1,0.9C6,110.9,5.5,111,4.9,111H2.2v3.6H1.3z M2.2,110.2h2.7c0.6,0,1-0.1,1.4-0.4s0.5-0.7,0.5-1.2
			c0-0.5-0.2-0.9-0.5-1.2s-0.8-0.4-1.4-0.4H2.2V110.2z"/>
		<path class="st0" d="M8.9,114.5v-6h0.9v0.9c0.2-0.3,0.4-0.6,0.7-0.7c0.3-0.2,0.6-0.3,1-0.3c0.2,0,0.4,0,0.6,0.1v0.8
			c-0.1,0-0.2-0.1-0.3-0.1c-0.1,0-0.2,0-0.3,0c-0.4,0-0.7,0.1-1,0.3s-0.5,0.5-0.7,0.9v4.1H8.9z"/>
		<path class="st0" d="M15.9,114.7c-0.6,0-1.1-0.1-1.6-0.4c-0.5-0.3-0.8-0.7-1.1-1.1s-0.4-1-0.4-1.6c0-0.6,0.1-1.1,0.4-1.6
			c0.3-0.5,0.6-0.8,1.1-1.1c0.5-0.3,1-0.4,1.6-0.4c0.6,0,1.1,0.1,1.6,0.4s0.8,0.7,1.1,1.1c0.3,0.5,0.4,1,0.4,1.6
			c0,0.6-0.1,1.1-0.4,1.6c-0.3,0.5-0.6,0.8-1.1,1.1C17,114.5,16.5,114.7,15.9,114.7z M15.9,113.9c0.4,0,0.8-0.1,1.1-0.3
			c0.3-0.2,0.6-0.5,0.8-0.8c0.2-0.4,0.3-0.7,0.3-1.2c0-0.4-0.1-0.8-0.3-1.2s-0.5-0.6-0.8-0.8c-0.3-0.2-0.7-0.3-1.1-0.3
			s-0.8,0.1-1.1,0.3s-0.6,0.5-0.8,0.8s-0.3,0.7-0.3,1.2c0,0.4,0.1,0.8,0.3,1.2c0.2,0.4,0.5,0.6,0.8,0.8S15.5,113.9,15.9,113.9z"/>
		<path class="st0" d="M21.1,114.5v-5.3h-1.4v-0.8h1.4v-1.1c0-0.6,0.2-1,0.5-1.4c0.3-0.3,0.8-0.5,1.4-0.5c0.2,0,0.3,0,0.4,0
			c0.1,0,0.3,0,0.4,0.1v0.8c-0.1,0-0.3-0.1-0.4-0.1c-0.1,0-0.2,0-0.4,0c-0.4,0-0.6,0.1-0.8,0.3c-0.2,0.2-0.3,0.4-0.3,0.8v1.1h1.8
			v0.8H22v5.3H21.1z"/>
		<path class="st0" d="M27.6,114.6c-0.6,0-1.1-0.1-1.6-0.4c-0.5-0.3-0.8-0.7-1.1-1.1c-0.3-0.5-0.4-1-0.4-1.6c0-0.6,0.1-1.1,0.4-1.6
			c0.3-0.5,0.6-0.8,1.1-1.1c0.4-0.3,1-0.4,1.5-0.4c0.5,0,1,0.1,1.5,0.4s0.8,0.7,1,1.1c0.3,0.5,0.4,1,0.4,1.6v0.3h-5
			c0,0.4,0.2,0.7,0.4,1.1c0.2,0.3,0.5,0.6,0.8,0.7s0.7,0.3,1.1,0.3c0.3,0,0.6,0,0.9-0.1c0.3-0.1,0.5-0.2,0.7-0.4l0.6,0.6
			c-0.3,0.2-0.7,0.4-1.1,0.6C28.4,114.6,28,114.6,27.6,114.6z M25.3,111.1h4c0-0.4-0.2-0.7-0.4-1c-0.2-0.3-0.4-0.5-0.7-0.7
			c-0.3-0.2-0.6-0.2-0.9-0.2c-0.3,0-0.7,0.1-1,0.2c-0.3,0.2-0.5,0.4-0.7,0.7S25.4,110.7,25.3,111.1z"/>
		<path class="st0" d="M33.4,114.7c-0.5,0-1-0.1-1.4-0.2c-0.4-0.2-0.8-0.4-1.1-0.7l0.5-0.6c0.3,0.3,0.6,0.5,0.9,0.6
			c0.3,0.1,0.7,0.2,1,0.2c0.5,0,0.9-0.1,1.2-0.3c0.3-0.2,0.5-0.5,0.5-0.8c0-0.3-0.1-0.5-0.3-0.6c-0.2-0.1-0.5-0.3-0.8-0.3l-1-0.1
			c-0.6-0.1-1.1-0.3-1.3-0.5c-0.3-0.3-0.4-0.6-0.4-1.1c0-0.3,0.1-0.6,0.3-0.9c0.2-0.3,0.5-0.5,0.8-0.6s0.7-0.2,1.2-0.2
			c0.4,0,0.9,0.1,1.2,0.2c0.4,0.1,0.8,0.3,1.1,0.6l-0.5,0.6c-0.3-0.2-0.7-0.4-1-0.5s-0.6-0.2-1-0.2c-0.4,0-0.8,0.1-1,0.3
			c-0.3,0.2-0.4,0.4-0.4,0.7c0,0.3,0.1,0.5,0.3,0.6s0.5,0.2,0.9,0.3l1,0.1c0.6,0.1,1.1,0.3,1.4,0.5s0.5,0.6,0.5,1.1
			c0,0.3-0.1,0.7-0.3,0.9c-0.2,0.3-0.5,0.5-0.9,0.7C34.3,114.6,33.9,114.7,33.4,114.7z"/>
		<path class="st0" d="M38.8,114.7c-0.5,0-1-0.1-1.4-0.2c-0.4-0.2-0.8-0.4-1.1-0.7l0.5-0.6c0.3,0.3,0.6,0.5,0.9,0.6
			c0.3,0.1,0.7,0.2,1,0.2c0.5,0,0.9-0.1,1.2-0.3c0.3-0.2,0.5-0.5,0.5-0.8c0-0.3-0.1-0.5-0.3-0.6c-0.2-0.1-0.5-0.3-0.8-0.3l-1-0.1
			c-0.6-0.1-1.1-0.3-1.3-0.5c-0.3-0.3-0.4-0.6-0.4-1.1c0-0.3,0.1-0.6,0.3-0.9c0.2-0.3,0.5-0.5,0.8-0.6s0.7-0.2,1.2-0.2
			c0.4,0,0.9,0.1,1.2,0.2c0.4,0.1,0.8,0.3,1.1,0.6l-0.5,0.6c-0.3-0.2-0.7-0.4-1-0.5s-0.6-0.2-1-0.2c-0.4,0-0.8,0.1-1,0.3
			c-0.3,0.2-0.4,0.4-0.4,0.7c0,0.3,0.1,0.5,0.3,0.6s0.5,0.2,0.9,0.3l1,0.1c0.6,0.1,1.1,0.3,1.4,0.5s0.5,0.6,0.5,1.1
			c0,0.3-0.1,0.7-0.3,0.9c-0.2,0.3-0.5,0.5-0.9,0.7C39.7,114.6,39.3,114.7,38.8,114.7z"/>
		<path class="st0" d="M42.7,107.3c-0.2,0-0.3-0.1-0.4-0.2c-0.1-0.1-0.2-0.3-0.2-0.4c0-0.2,0.1-0.3,0.2-0.4c0.1-0.1,0.3-0.2,0.4-0.2
			c0.2,0,0.3,0.1,0.4,0.2c0.1,0.1,0.2,0.3,0.2,0.4c0,0.2-0.1,0.3-0.2,0.4C43,107.3,42.9,107.3,42.7,107.3z M42.3,114.5v-6h0.9v6
			H42.3z"/>
		<path class="st0" d="M47.5,114.7c-0.6,0-1.1-0.1-1.6-0.4c-0.5-0.3-0.8-0.7-1.1-1.1s-0.4-1-0.4-1.6c0-0.6,0.1-1.1,0.4-1.6
			c0.3-0.5,0.6-0.8,1.1-1.1c0.5-0.3,1-0.4,1.6-0.4c0.6,0,1.1,0.1,1.6,0.4s0.8,0.7,1.1,1.1c0.3,0.5,0.4,1,0.4,1.6
			c0,0.6-0.1,1.1-0.4,1.6c-0.3,0.5-0.6,0.8-1.1,1.1C48.6,114.5,48.1,114.7,47.5,114.7z M47.5,113.9c0.4,0,0.8-0.1,1.1-0.3
			c0.3-0.2,0.6-0.5,0.8-0.8c0.2-0.4,0.3-0.7,0.3-1.2c0-0.4-0.1-0.8-0.3-1.2s-0.5-0.6-0.8-0.8c-0.3-0.2-0.7-0.3-1.1-0.3
			s-0.8,0.1-1.1,0.3s-0.6,0.5-0.8,0.8s-0.3,0.7-0.3,1.2c0,0.4,0.1,0.8,0.3,1.2c0.2,0.4,0.5,0.6,0.8,0.8S47.1,113.9,47.5,113.9z"/>
		<path class="st0" d="M51.8,114.5v-6h0.9v0.7c0.5-0.6,1.1-0.8,1.9-0.8c0.5,0,0.9,0.1,1.2,0.3c0.3,0.2,0.6,0.5,0.8,0.8
			s0.3,0.8,0.3,1.2v3.8h-0.9v-3.6c0-0.5-0.2-1-0.5-1.3s-0.7-0.5-1.2-0.5c-0.4,0-0.7,0.1-1,0.2c-0.3,0.2-0.5,0.4-0.7,0.7v4.4H51.8z"
			/>
		<path class="st0" d="M60.3,114.6c-0.4,0-0.8-0.1-1.2-0.2c-0.3-0.2-0.6-0.4-0.8-0.6c-0.2-0.3-0.3-0.6-0.3-1c0-0.6,0.2-1,0.7-1.3
			s1-0.5,1.8-0.5c0.7,0,1.2,0.1,1.8,0.4v-0.8c0-0.5-0.1-0.8-0.4-1.1c-0.3-0.2-0.7-0.4-1.2-0.4c-0.3,0-0.6,0-0.9,0.1
			c-0.3,0.1-0.6,0.2-1,0.4l-0.3-0.7c0.4-0.2,0.8-0.4,1.2-0.5c0.4-0.1,0.7-0.1,1.1-0.1c0.8,0,1.4,0.2,1.8,0.5
			c0.4,0.4,0.6,0.9,0.6,1.6v4.1h-0.9v-0.6c-0.3,0.2-0.6,0.4-0.9,0.5C61.1,114.6,60.7,114.6,60.3,114.6z M59,112.8
			c0,0.3,0.1,0.6,0.4,0.8c0.3,0.2,0.7,0.3,1.1,0.3c0.4,0,0.7-0.1,1-0.2c0.3-0.1,0.6-0.3,0.8-0.5v-1.1c-0.2-0.2-0.5-0.3-0.8-0.4
			c-0.3-0.1-0.6-0.1-1-0.1c-0.5,0-0.9,0.1-1.2,0.3C59.1,112.2,59,112.4,59,112.8z"/>
		<path class="st0" d="M64.6,114.5v-8.4l0.9-0.2v8.6H64.6z"/>
		<path class="st0" d="M72.4,114.6c-0.6,0-1.1-0.1-1.6-0.4c-0.5-0.3-0.8-0.7-1.1-1.1c-0.3-0.5-0.4-1-0.4-1.6c0-0.6,0.1-1.1,0.4-1.6
			s0.6-0.8,1.1-1.1c0.5-0.3,1-0.4,1.6-0.4c0.4,0,0.9,0.1,1.3,0.2c0.4,0.2,0.8,0.4,1.1,0.7l-0.6,0.7c-0.2-0.3-0.5-0.5-0.8-0.6
			c-0.3-0.1-0.6-0.2-1-0.2c-0.4,0-0.8,0.1-1.1,0.3c-0.3,0.2-0.6,0.5-0.8,0.8s-0.3,0.7-0.3,1.2s0.1,0.8,0.3,1.2s0.5,0.6,0.8,0.8
			c0.3,0.2,0.7,0.3,1.1,0.3c0.3,0,0.6-0.1,0.9-0.2c0.3-0.1,0.6-0.3,0.8-0.6l0.6,0.6c-0.3,0.3-0.7,0.5-1.1,0.7
			C73.3,114.6,72.9,114.6,72.4,114.6z"/>
		<path class="st0" d="M78.6,114.7c-0.6,0-1.1-0.1-1.6-0.4c-0.5-0.3-0.8-0.7-1.1-1.1s-0.4-1-0.4-1.6c0-0.6,0.1-1.1,0.4-1.6
			c0.3-0.5,0.6-0.8,1.1-1.1c0.5-0.3,1-0.4,1.6-0.4c0.6,0,1.1,0.1,1.6,0.4s0.8,0.7,1.1,1.1c0.3,0.5,0.4,1,0.4,1.6
			c0,0.6-0.1,1.1-0.4,1.6c-0.3,0.5-0.6,0.8-1.1,1.1C79.7,114.5,79.2,114.7,78.6,114.7z M78.6,113.9c0.4,0,0.8-0.1,1.1-0.3
			c0.3-0.2,0.6-0.5,0.8-0.8c0.2-0.4,0.3-0.7,0.3-1.2c0-0.4-0.1-0.8-0.3-1.2s-0.5-0.6-0.8-0.8c-0.3-0.2-0.7-0.3-1.1-0.3
			s-0.8,0.1-1.1,0.3s-0.6,0.5-0.8,0.8s-0.3,0.7-0.3,1.2c0,0.4,0.1,0.8,0.3,1.2c0.2,0.4,0.5,0.6,0.8,0.8S78.2,113.9,78.6,113.9z"/>
		<path class="st0" d="M84.9,114.6c-0.4,0-0.8-0.1-1.2-0.2c-0.3-0.2-0.6-0.4-0.8-0.6c-0.2-0.3-0.3-0.6-0.3-1c0-0.6,0.2-1,0.7-1.3
			s1-0.5,1.8-0.5c0.7,0,1.2,0.1,1.8,0.4v-0.8c0-0.5-0.1-0.8-0.4-1.1c-0.3-0.2-0.7-0.4-1.2-0.4c-0.3,0-0.6,0-0.9,0.1
			c-0.3,0.1-0.6,0.2-1,0.4L83,109c0.4-0.2,0.8-0.4,1.2-0.5c0.4-0.1,0.7-0.1,1.1-0.1c0.8,0,1.4,0.2,1.8,0.5c0.4,0.4,0.6,0.9,0.6,1.6
			v4.1h-0.9v-0.6c-0.3,0.2-0.6,0.4-0.9,0.5C85.6,114.6,85.2,114.6,84.9,114.6z M83.5,112.8c0,0.3,0.1,0.6,0.4,0.8
			c0.3,0.2,0.7,0.3,1.1,0.3c0.4,0,0.7-0.1,1-0.2c0.3-0.1,0.6-0.3,0.8-0.5v-1.1c-0.2-0.2-0.5-0.3-0.8-0.4c-0.3-0.1-0.6-0.1-1-0.1
			c-0.5,0-0.9,0.1-1.2,0.3C83.6,112.2,83.5,112.4,83.5,112.8z"/>
		<path class="st0" d="M92,114.6c-0.6,0-1.1-0.1-1.6-0.4c-0.5-0.3-0.8-0.7-1.1-1.1c-0.3-0.5-0.4-1-0.4-1.6c0-0.6,0.1-1.1,0.4-1.6
			s0.6-0.8,1.1-1.1c0.5-0.3,1-0.4,1.6-0.4c0.4,0,0.9,0.1,1.3,0.2c0.4,0.2,0.8,0.4,1.1,0.7l-0.6,0.7c-0.2-0.3-0.5-0.5-0.8-0.6
			c-0.3-0.1-0.6-0.2-1-0.2c-0.4,0-0.8,0.1-1.1,0.3c-0.3,0.2-0.6,0.5-0.8,0.8s-0.3,0.7-0.3,1.2s0.1,0.8,0.3,1.2s0.5,0.6,0.8,0.8
			c0.3,0.2,0.7,0.3,1.1,0.3c0.3,0,0.6-0.1,0.9-0.2c0.3-0.1,0.6-0.3,0.8-0.6l0.6,0.6c-0.3,0.3-0.7,0.5-1.1,0.7
			C92.8,114.6,92.4,114.6,92,114.6z"/>
		<path class="st0" d="M95.4,114.5v-8.4l0.9-0.2v3.3c0.5-0.6,1.1-0.8,1.9-0.8c0.5,0,0.9,0.1,1.2,0.3c0.3,0.2,0.6,0.5,0.8,0.8
			s0.3,0.8,0.3,1.2v3.8h-0.9v-3.6c0-0.5-0.2-1-0.5-1.3s-0.7-0.5-1.2-0.5c-0.4,0-0.7,0.1-1,0.2c-0.3,0.2-0.5,0.4-0.7,0.7v4.4H95.4z"
			/>
		<path class="st0" d="M102.4,107.3c-0.2,0-0.3-0.1-0.4-0.2c-0.1-0.1-0.2-0.3-0.2-0.4c0-0.2,0.1-0.3,0.2-0.4
			c0.1-0.1,0.3-0.2,0.4-0.2c0.2,0,0.3,0.1,0.4,0.2c0.1,0.1,0.2,0.3,0.2,0.4c0,0.2-0.1,0.3-0.2,0.4
			C102.7,107.3,102.6,107.3,102.4,107.3z M102,114.5v-6h0.9v6H102z"/>
		<path class="st0" d="M104.4,114.5v-6h0.9v0.7c0.5-0.6,1.1-0.8,1.9-0.8c0.5,0,0.9,0.1,1.2,0.3c0.3,0.2,0.6,0.5,0.8,0.8
			s0.3,0.8,0.3,1.2v3.8h-0.9v-3.6c0-0.5-0.2-1-0.5-1.3s-0.7-0.5-1.2-0.5c-0.4,0-0.7,0.1-1,0.2c-0.3,0.2-0.5,0.4-0.7,0.7v4.4H104.4z"
			/>
		<path class="st0" d="M113.9,117.1c-0.4,0-0.8-0.1-1.2-0.2s-0.8-0.3-1.1-0.5l0.4-0.7c0.4,0.2,0.7,0.3,1,0.4
			c0.3,0.1,0.6,0.1,0.9,0.1c0.6,0,1-0.1,1.3-0.4c0.3-0.3,0.4-0.7,0.4-1.2v-0.8c-0.6,0.5-1.2,0.7-1.9,0.7c-0.6,0-1.1-0.1-1.5-0.4
			s-0.8-0.6-1.1-1.1c-0.3-0.5-0.4-1-0.4-1.6s0.1-1.1,0.4-1.6c0.3-0.5,0.6-0.8,1.1-1.1c0.5-0.3,1-0.4,1.5-0.4c0.3,0,0.7,0.1,1,0.2
			c0.3,0.1,0.6,0.3,0.9,0.5v-0.6h0.9v6.2c0,0.8-0.2,1.4-0.7,1.8C115.4,116.9,114.8,117.1,113.9,117.1z M113.8,113.8
			c0.4,0,0.7-0.1,1.1-0.2c0.3-0.1,0.6-0.3,0.8-0.6v-3c-0.2-0.3-0.5-0.5-0.8-0.6c-0.3-0.1-0.7-0.2-1.1-0.2c-0.4,0-0.8,0.1-1.1,0.3
			s-0.6,0.5-0.8,0.8s-0.3,0.7-0.3,1.2s0.1,0.8,0.3,1.2s0.5,0.6,0.8,0.8C113,113.7,113.4,113.8,113.8,113.8z"/>
		<path class="st0" d="M123,114.7c-0.6,0-1-0.1-1.5-0.3c-0.4-0.2-0.7-0.5-1-0.8c-0.2-0.4-0.3-0.8-0.3-1.3c0-0.3,0.1-0.6,0.2-0.9
			c0.1-0.3,0.3-0.5,0.6-0.8s0.6-0.5,1.1-0.7c-0.3-0.4-0.5-0.7-0.6-1c-0.1-0.3-0.2-0.6-0.2-0.9c0-0.4,0.1-0.7,0.3-1
			c0.2-0.3,0.4-0.5,0.7-0.7s0.7-0.3,1-0.3c0.4,0,0.7,0.1,1,0.2s0.5,0.4,0.7,0.6c0.2,0.3,0.2,0.6,0.2,0.9c0,0.4-0.1,0.7-0.3,1.1
			s-0.6,0.6-1,0.9l-0.6,0.4c0.3,0.4,0.7,0.7,1.1,1.1s0.8,0.8,1.2,1.1c0.2-0.3,0.4-0.7,0.5-1.1c0.1-0.4,0.2-0.8,0.3-1.2l0.8,0.1
			c-0.1,0.5-0.2,1-0.4,1.4c-0.2,0.4-0.4,0.9-0.6,1.2c0.3,0.2,0.5,0.4,0.8,0.6c0.3,0.2,0.5,0.4,0.7,0.6l-0.5,0.6
			c-0.2-0.2-0.5-0.4-0.7-0.6c-0.2-0.2-0.5-0.4-0.7-0.6c-0.3,0.4-0.7,0.7-1.2,0.8C124,114.6,123.5,114.7,123,114.7z M123,113.9
			c0.4,0,0.8-0.1,1.1-0.2c0.3-0.2,0.7-0.4,0.9-0.7c-0.5-0.4-0.9-0.9-1.4-1.3c-0.4-0.4-0.8-0.9-1.2-1.3c-0.4,0.2-0.7,0.4-0.9,0.6
			c-0.2,0.2-0.4,0.4-0.5,0.6c-0.1,0.2-0.1,0.4-0.1,0.7c0,0.5,0.2,0.9,0.5,1.2C122,113.8,122.4,113.9,123,113.9z M122.8,109.5
			l0.7-0.4c0.3-0.2,0.5-0.4,0.7-0.6s0.2-0.5,0.2-0.7c0-0.3-0.1-0.5-0.3-0.7c-0.2-0.2-0.5-0.3-0.8-0.3c-0.3,0-0.6,0.1-0.8,0.3
			c-0.2,0.2-0.3,0.5-0.3,0.9c0,0.2,0,0.5,0.2,0.7C122.4,108.9,122.6,109.2,122.8,109.5z"/>
		<path class="st0" d="M131.1,114.5v-8.4l0.9-0.2v8.6H131.1z"/>
		<path class="st0" d="M136.4,114.6c-0.6,0-1.1-0.1-1.6-0.4c-0.5-0.3-0.8-0.7-1.1-1.1c-0.3-0.5-0.4-1-0.4-1.6c0-0.6,0.1-1.1,0.4-1.6
			c0.3-0.5,0.6-0.8,1.1-1.1s1-0.4,1.5-0.4c0.5,0,1,0.1,1.5,0.4s0.8,0.7,1,1.1c0.3,0.5,0.4,1,0.4,1.6v0.3h-5c0,0.4,0.2,0.7,0.4,1.1
			c0.2,0.3,0.5,0.6,0.8,0.7c0.3,0.2,0.7,0.3,1.1,0.3c0.3,0,0.6,0,0.9-0.1c0.3-0.1,0.5-0.2,0.7-0.4l0.6,0.6c-0.3,0.2-0.7,0.4-1.1,0.6
			C137.2,114.6,136.8,114.6,136.4,114.6z M134.1,111.1h4c0-0.4-0.2-0.7-0.4-1c-0.2-0.3-0.4-0.5-0.7-0.7c-0.3-0.2-0.6-0.2-0.9-0.2
			c-0.3,0-0.7,0.1-1,0.2c-0.3,0.2-0.5,0.4-0.7,0.7C134.3,110.4,134.2,110.7,134.1,111.1z"/>
		<path class="st0" d="M142.2,114.6c-0.4,0-0.8-0.1-1.2-0.2c-0.3-0.2-0.6-0.4-0.8-0.6c-0.2-0.3-0.3-0.6-0.3-1c0-0.6,0.2-1,0.7-1.3
			c0.4-0.3,1-0.5,1.8-0.5c0.7,0,1.2,0.1,1.8,0.4v-0.8c0-0.5-0.1-0.8-0.4-1.1c-0.3-0.2-0.7-0.4-1.2-0.4c-0.3,0-0.6,0-0.9,0.1
			c-0.3,0.1-0.6,0.2-1,0.4l-0.3-0.7c0.4-0.2,0.8-0.4,1.2-0.5c0.4-0.1,0.7-0.1,1.1-0.1c0.8,0,1.4,0.2,1.8,0.5
			c0.4,0.4,0.6,0.9,0.6,1.6v4.1h-0.9v-0.6c-0.3,0.2-0.6,0.4-0.9,0.5C142.9,114.6,142.6,114.6,142.2,114.6z M140.8,112.8
			c0,0.3,0.1,0.6,0.4,0.8c0.3,0.2,0.7,0.3,1.1,0.3c0.4,0,0.7-0.1,1-0.2s0.6-0.3,0.8-0.5v-1.1c-0.2-0.2-0.5-0.3-0.8-0.4
			c-0.3-0.1-0.6-0.1-1-0.1c-0.5,0-0.9,0.1-1.2,0.3S140.8,112.4,140.8,112.8z"/>
		<path class="st0" d="M149.3,114.6c-0.6,0-1.1-0.1-1.5-0.4s-0.8-0.7-1.1-1.1c-0.3-0.5-0.4-1-0.4-1.6c0-0.6,0.1-1.1,0.4-1.6
			c0.3-0.5,0.6-0.8,1.1-1.1s1-0.4,1.5-0.4c0.4,0,0.7,0.1,1,0.2c0.3,0.1,0.6,0.3,0.9,0.5v-3l0.9-0.2v8.6h-0.9v-0.6
			C150.7,114.4,150.1,114.6,149.3,114.6z M149.4,113.8c0.4,0,0.7-0.1,1.1-0.2c0.3-0.1,0.6-0.4,0.8-0.6v-3c-0.2-0.3-0.5-0.5-0.8-0.6
			s-0.7-0.2-1.1-0.2c-0.4,0-0.8,0.1-1.1,0.3c-0.3,0.2-0.6,0.5-0.8,0.8c-0.2,0.3-0.3,0.7-0.3,1.2c0,0.4,0.1,0.8,0.3,1.2
			c0.2,0.4,0.5,0.6,0.8,0.8C148.6,113.7,149,113.8,149.4,113.8z"/>
		<path class="st0" d="M156.5,114.6c-0.6,0-1.1-0.1-1.6-0.4c-0.5-0.3-0.8-0.7-1.1-1.1c-0.3-0.5-0.4-1-0.4-1.6c0-0.6,0.1-1.1,0.4-1.6
			c0.3-0.5,0.6-0.8,1.1-1.1s1-0.4,1.5-0.4c0.5,0,1,0.1,1.5,0.4s0.8,0.7,1,1.1c0.3,0.5,0.4,1,0.4,1.6v0.3h-5c0,0.4,0.2,0.7,0.4,1.1
			c0.2,0.3,0.5,0.6,0.8,0.7c0.3,0.2,0.7,0.3,1.1,0.3c0.3,0,0.6,0,0.9-0.1c0.3-0.1,0.5-0.2,0.7-0.4l0.6,0.6c-0.3,0.2-0.7,0.4-1.1,0.6
			C157.3,114.6,156.9,114.6,156.5,114.6z M154.3,111.1h4c0-0.4-0.2-0.7-0.4-1c-0.2-0.3-0.4-0.5-0.7-0.7c-0.3-0.2-0.6-0.2-0.9-0.2
			c-0.3,0-0.7,0.1-1,0.2c-0.3,0.2-0.5,0.4-0.7,0.7C154.5,110.4,154.3,110.7,154.3,111.1z"/>
		<path class="st0" d="M160.4,114.5v-6h0.9v0.9c0.2-0.3,0.4-0.6,0.7-0.7s0.6-0.3,1-0.3c0.2,0,0.4,0,0.6,0.1v0.8
			c-0.1,0-0.2-0.1-0.3-0.1c-0.1,0-0.2,0-0.3,0c-0.4,0-0.7,0.1-1,0.3s-0.5,0.5-0.7,0.9v4.1H160.4z"/>
		<path class="st0" d="M166.5,114.7c-0.5,0-1-0.1-1.4-0.2c-0.4-0.2-0.8-0.4-1.1-0.7l0.5-0.6c0.3,0.3,0.6,0.5,0.9,0.6
			c0.3,0.1,0.7,0.2,1,0.2c0.5,0,0.9-0.1,1.2-0.3c0.3-0.2,0.5-0.5,0.5-0.8c0-0.3-0.1-0.5-0.3-0.6c-0.2-0.1-0.5-0.3-0.8-0.3l-1-0.1
			c-0.6-0.1-1.1-0.3-1.3-0.5c-0.3-0.3-0.4-0.6-0.4-1.1c0-0.3,0.1-0.6,0.3-0.9c0.2-0.3,0.5-0.5,0.8-0.6s0.7-0.2,1.2-0.2
			c0.4,0,0.9,0.1,1.2,0.2c0.4,0.1,0.8,0.3,1.1,0.6l-0.5,0.6c-0.3-0.2-0.7-0.4-1-0.5s-0.6-0.2-1-0.2c-0.4,0-0.8,0.1-1,0.3
			c-0.3,0.2-0.4,0.4-0.4,0.7c0,0.3,0.1,0.5,0.3,0.6s0.5,0.2,0.9,0.3l1,0.1c0.6,0.1,1.1,0.3,1.4,0.5c0.3,0.3,0.5,0.6,0.5,1.1
			c0,0.3-0.1,0.7-0.3,0.9s-0.5,0.5-0.9,0.7C167.4,114.6,167,114.7,166.5,114.7z"/>
		<path class="st0" d="M170,114.5v-8.4l0.9-0.2v3.3c0.5-0.6,1.1-0.8,1.9-0.8c0.5,0,0.9,0.1,1.2,0.3c0.3,0.2,0.6,0.5,0.8,0.8
			c0.2,0.3,0.3,0.8,0.3,1.2v3.8h-0.9v-3.6c0-0.5-0.2-1-0.5-1.3c-0.3-0.3-0.7-0.5-1.2-0.5c-0.4,0-0.7,0.1-1,0.2
			c-0.3,0.2-0.5,0.4-0.7,0.7v4.4H170z"/>
		<path class="st0" d="M177,107.3c-0.2,0-0.3-0.1-0.4-0.2c-0.1-0.1-0.2-0.3-0.2-0.4c0-0.2,0.1-0.3,0.2-0.4c0.1-0.1,0.3-0.2,0.4-0.2
			c0.2,0,0.3,0.1,0.4,0.2c0.1,0.1,0.2,0.3,0.2,0.4c0,0.2-0.1,0.3-0.2,0.4C177.4,107.3,177.2,107.3,177,107.3z M176.6,114.5v-6h0.9v6
			H176.6z"/>
		<path class="st0" d="M179,117v-8.5h0.9v0.7c0.5-0.5,1.2-0.7,2-0.7c0.6,0,1.1,0.1,1.5,0.4c0.5,0.3,0.8,0.6,1.1,1.1
			c0.3,0.5,0.4,1,0.4,1.6c0,0.6-0.1,1.1-0.4,1.6c-0.3,0.5-0.6,0.8-1.1,1.1c-0.5,0.3-1,0.4-1.6,0.4c-0.4,0-0.7-0.1-1-0.2
			c-0.3-0.1-0.6-0.3-0.9-0.5v3.1H179z M181.8,113.8c0.4,0,0.8-0.1,1.1-0.3c0.3-0.2,0.6-0.5,0.8-0.8c0.2-0.3,0.3-0.7,0.3-1.2
			c0-0.4-0.1-0.8-0.3-1.2c-0.2-0.4-0.5-0.6-0.8-0.8c-0.3-0.2-0.7-0.3-1.1-0.3c-0.4,0-0.7,0.1-1.1,0.2s-0.6,0.4-0.8,0.6v3
			c0.2,0.3,0.5,0.5,0.8,0.6C181,113.8,181.4,113.8,181.8,113.8z"/>
		<path class="st0" d="M191.5,114.6c-0.6,0-1.1-0.1-1.5-0.4s-0.8-0.7-1.1-1.1c-0.3-0.5-0.4-1-0.4-1.6c0-0.6,0.1-1.1,0.4-1.6
			c0.3-0.5,0.6-0.8,1.1-1.1s1-0.4,1.5-0.4c0.4,0,0.7,0.1,1,0.2c0.3,0.1,0.6,0.3,0.9,0.5v-3l0.9-0.2v8.6h-0.9v-0.6
			C192.9,114.4,192.2,114.6,191.5,114.6z M191.6,113.8c0.4,0,0.7-0.1,1.1-0.2c0.3-0.1,0.6-0.4,0.8-0.6v-3c-0.2-0.3-0.5-0.5-0.8-0.6
			s-0.7-0.2-1.1-0.2c-0.4,0-0.8,0.1-1.1,0.3c-0.3,0.2-0.6,0.5-0.8,0.8c-0.2,0.3-0.3,0.7-0.3,1.2c0,0.4,0.1,0.8,0.3,1.2
			c0.2,0.4,0.5,0.6,0.8,0.8C190.8,113.7,191.1,113.8,191.6,113.8z"/>
		<path class="st0" d="M198.6,114.6c-0.6,0-1.1-0.1-1.6-0.4c-0.5-0.3-0.8-0.7-1.1-1.1c-0.3-0.5-0.4-1-0.4-1.6c0-0.6,0.1-1.1,0.4-1.6
			c0.3-0.5,0.6-0.8,1.1-1.1s1-0.4,1.5-0.4c0.5,0,1,0.1,1.5,0.4s0.8,0.7,1,1.1c0.3,0.5,0.4,1,0.4,1.6v0.3h-5c0,0.4,0.2,0.7,0.4,1.1
			c0.2,0.3,0.5,0.6,0.8,0.7c0.3,0.2,0.7,0.3,1.1,0.3c0.3,0,0.6,0,0.9-0.1c0.3-0.1,0.5-0.2,0.7-0.4l0.6,0.6c-0.3,0.2-0.7,0.4-1.1,0.6
			C199.5,114.6,199.1,114.6,198.6,114.6z M196.4,111.1h4c0-0.4-0.2-0.7-0.4-1c-0.2-0.3-0.4-0.5-0.7-0.7c-0.3-0.2-0.6-0.2-0.9-0.2
			c-0.3,0-0.7,0.1-1,0.2c-0.3,0.2-0.5,0.4-0.7,0.7C196.6,110.4,196.5,110.7,196.4,111.1z"/>
		<path class="st0" d="M204.5,114.5l-2.6-6h1l2.1,4.9l2.1-4.9h1l-2.6,6H204.5z"/>
		<path class="st0" d="M211.6,114.6c-0.6,0-1.1-0.1-1.6-0.4c-0.5-0.3-0.8-0.7-1.1-1.1c-0.3-0.5-0.4-1-0.4-1.6c0-0.6,0.1-1.1,0.4-1.6
			c0.3-0.5,0.6-0.8,1.1-1.1s1-0.4,1.5-0.4c0.5,0,1,0.1,1.5,0.4s0.8,0.7,1,1.1c0.3,0.5,0.4,1,0.4,1.6v0.3h-5c0,0.4,0.2,0.7,0.4,1.1
			c0.2,0.3,0.5,0.6,0.8,0.7c0.3,0.2,0.7,0.3,1.1,0.3c0.3,0,0.6,0,0.9-0.1c0.3-0.1,0.5-0.2,0.7-0.4l0.6,0.6c-0.3,0.2-0.7,0.4-1.1,0.6
			C212.5,114.6,212.1,114.6,211.6,114.6z M209.4,111.1h4c0-0.4-0.2-0.7-0.4-1c-0.2-0.3-0.4-0.5-0.7-0.7c-0.3-0.2-0.6-0.2-0.9-0.2
			c-0.3,0-0.7,0.1-1,0.2c-0.3,0.2-0.5,0.4-0.7,0.7C209.6,110.4,209.5,110.7,209.4,111.1z"/>
		<path class="st0" d="M215.6,114.5v-8.4l0.9-0.2v8.6H215.6z"/>
		<path class="st0" d="M220.8,114.7c-0.6,0-1.1-0.1-1.6-0.4c-0.5-0.3-0.8-0.7-1.1-1.1s-0.4-1-0.4-1.6c0-0.6,0.1-1.1,0.4-1.6
			c0.3-0.5,0.6-0.8,1.1-1.1c0.5-0.3,1-0.4,1.6-0.4c0.6,0,1.1,0.1,1.6,0.4s0.8,0.7,1.1,1.1c0.3,0.5,0.4,1,0.4,1.6
			c0,0.6-0.1,1.1-0.4,1.6c-0.3,0.5-0.6,0.8-1.1,1.1C221.9,114.5,221.4,114.7,220.8,114.7z M220.8,113.9c0.4,0,0.8-0.1,1.1-0.3
			c0.3-0.2,0.6-0.5,0.8-0.8c0.2-0.4,0.3-0.7,0.3-1.2c0-0.4-0.1-0.8-0.3-1.2s-0.5-0.6-0.8-0.8c-0.3-0.2-0.7-0.3-1.1-0.3
			c-0.4,0-0.8,0.1-1.1,0.3s-0.6,0.5-0.8,0.8c-0.2,0.3-0.3,0.7-0.3,1.2c0,0.4,0.1,0.8,0.3,1.2c0.2,0.4,0.5,0.6,0.8,0.8
			S220.4,113.9,220.8,113.9z"/>
		<path class="st0" d="M225.1,117v-8.5h0.9v0.7c0.5-0.5,1.2-0.7,2-0.7c0.6,0,1.1,0.1,1.5,0.4c0.5,0.3,0.8,0.6,1.1,1.1
			c0.3,0.5,0.4,1,0.4,1.6c0,0.6-0.1,1.1-0.4,1.6c-0.3,0.5-0.6,0.8-1.1,1.1c-0.5,0.3-1,0.4-1.6,0.4c-0.4,0-0.7-0.1-1-0.2
			c-0.3-0.1-0.6-0.3-0.9-0.5v3.1H225.1z M227.9,113.8c0.4,0,0.8-0.1,1.1-0.3c0.3-0.2,0.6-0.5,0.8-0.8c0.2-0.3,0.3-0.7,0.3-1.2
			c0-0.4-0.1-0.8-0.3-1.2c-0.2-0.4-0.5-0.6-0.8-0.8c-0.3-0.2-0.7-0.3-1.1-0.3c-0.4,0-0.7,0.1-1.1,0.2s-0.6,0.4-0.8,0.6v3
			c0.2,0.3,0.5,0.5,0.8,0.6C227.2,113.8,227.5,113.8,227.9,113.8z"/>
		<path class="st0" d="M232.2,114.5v-6h0.9v0.7c0.5-0.5,1-0.8,1.8-0.8c0.4,0,0.8,0.1,1.1,0.3c0.3,0.2,0.6,0.5,0.8,0.8
			c0.2-0.4,0.5-0.6,0.9-0.8s0.7-0.3,1.2-0.3c0.4,0,0.8,0.1,1.2,0.3c0.3,0.2,0.6,0.5,0.8,0.8c0.2,0.3,0.3,0.8,0.3,1.2v3.8h-0.9v-3.6
			c0-0.5-0.1-1-0.4-1.3s-0.7-0.5-1.1-0.5c-0.3,0-0.6,0.1-0.9,0.2c-0.3,0.2-0.5,0.4-0.7,0.7c0,0.1,0,0.2,0,0.3c0,0.1,0,0.2,0,0.3v3.8
			h-0.9v-3.6c0-0.5-0.1-1-0.4-1.3s-0.7-0.5-1.1-0.5c-0.3,0-0.6,0.1-0.9,0.2c-0.3,0.1-0.5,0.4-0.7,0.7v4.5H232.2z"/>
		<path class="st0" d="M245.4,114.6c-0.6,0-1.1-0.1-1.6-0.4c-0.5-0.3-0.8-0.7-1.1-1.1c-0.3-0.5-0.4-1-0.4-1.6c0-0.6,0.1-1.1,0.4-1.6
			c0.3-0.5,0.6-0.8,1.1-1.1s1-0.4,1.5-0.4c0.5,0,1,0.1,1.5,0.4s0.8,0.7,1,1.1c0.3,0.5,0.4,1,0.4,1.6v0.3h-5c0,0.4,0.2,0.7,0.4,1.1
			c0.2,0.3,0.5,0.6,0.8,0.7c0.3,0.2,0.7,0.3,1.1,0.3c0.3,0,0.6,0,0.9-0.1c0.3-0.1,0.5-0.2,0.7-0.4l0.6,0.6c-0.3,0.2-0.7,0.4-1.1,0.6
			C246.3,114.6,245.9,114.6,245.4,114.6z M243.2,111.1h4c0-0.4-0.2-0.7-0.4-1c-0.2-0.3-0.4-0.5-0.7-0.7c-0.3-0.2-0.6-0.2-0.9-0.2
			c-0.3,0-0.7,0.1-1,0.2c-0.3,0.2-0.5,0.4-0.7,0.7C243.4,110.4,243.3,110.7,243.2,111.1z"/>
		<path class="st0" d="M249.4,114.5v-6h0.9v0.7c0.5-0.6,1.1-0.8,1.9-0.8c0.5,0,0.9,0.1,1.2,0.3c0.3,0.2,0.6,0.5,0.8,0.8
			c0.2,0.3,0.3,0.8,0.3,1.2v3.8h-0.9v-3.6c0-0.5-0.2-1-0.5-1.3c-0.3-0.3-0.7-0.5-1.2-0.5c-0.4,0-0.7,0.1-1,0.2
			c-0.3,0.2-0.5,0.4-0.7,0.7v4.4H249.4z"/>
		<path class="st0" d="M258.4,114.7c-0.5,0-0.9-0.1-1.2-0.4s-0.4-0.6-0.4-1.1v-3.9h-1.3v-0.8h1.3V107l0.9-0.2v1.8h1.8v0.8h-1.8v3.7
			c0,0.3,0.1,0.6,0.2,0.7c0.1,0.1,0.4,0.2,0.7,0.2c0.2,0,0.3,0,0.5,0c0.1,0,0.3-0.1,0.4-0.1v0.8c-0.2,0.1-0.3,0.1-0.5,0.1
			C258.7,114.6,258.6,114.7,258.4,114.7z"/>
	</g>
</g>
</svg>
