<?xml version="1.0" encoding="utf-8"?>
<!-- Generator: Adobe Illustrator 25.1.0, SVG Export Plug-In . SVG Version: 6.00 Build 0)  -->
<svg version="1.1" id="Layer_1" xmlns="http://www.w3.org/2000/svg" xmlns:xlink="http://www.w3.org/1999/xlink" x="0px" y="0px"
	 viewBox="0 0 260 123" style="enable-background:new 0 0 260 123;" xml:space="preserve">
<style type="text/css">
	.st0{fill:#604945;}
	.st1{fill:#828F4B;}
	.st2{fill:#D6C260;}
	.st3{enable-background:new    ;}
</style>
<image style="display:none;overflow:visible;enable-background:new    ;" width="260" height="112" xlink:href="1DC8F91A.jpg"  transform="matrix(0.9955 0 0 0.9955 0.8228 6.1566)">
</image>
<g>
	<path class="st0" d="M14.7,45.1c0,0,10.3,11.2,16.2,9.7c3.6-0.7,3.7-0.2,3.7-0.2s1,3.8,1.8,7.1c0.8,3.3-1.7,31.1-1.7,31.1h5.2h2.7
		c0,0-1.9-21.4-2.1-22.5c-0.2-1.1,8-7.1,8.5-8.2c0,0,10.8,0.9,16.4-4.4c0,0-6.1,2.3-12.8,1.7c0,0,8.2-8.8,7.6-16.5
		c0,0-4.8,13.2-18.9,21.3c0,0-1.9-6.1,1.9-16.8s14.9-10.2,15.9-19.9c0,0-2.7,4.7-8.7,7.8s-11,9.9-12.5,14.7c0,0-1.2-6.5-4.5-9.3
		S26.1,27.5,25.8,24c0,0-0.7,13.1,5.7,19.4c0,0,2.6,2.3,3.2,7c0,0-1.2,1.1-3.7,1.1S23.1,51.3,14.7,45.1z"/>
	<g>
		<path class="st1" d="M16.7,42.4v2.4c-0.4-0.3-0.8-0.6-1.2-0.9c-0.2-0.1-0.3-0.2-0.5-0.2v-1.3c0-0.5,0.4-0.9,0.9-0.9
			C16.3,41.5,16.7,41.9,16.7,42.4z"/>
		<path class="st1" d="M16.7,49.2v16.6c0,0.6-0.6,1-1.1,0.9l0,0c-0.4-0.1-0.6-0.5-0.6-0.9V47.5C15.5,47.9,16.1,48.5,16.7,49.2z"/>
		<path class="st1" d="M20.1,30.8V47c-0.6-0.3-1.2-0.7-1.8-1V30.8c0-0.5,0.4-0.9,0.9-0.9S20.1,30.3,20.1,30.8z"/>
		<path class="st1" d="M20.1,52v14.8c0,0.6-0.6,1-1.1,0.9l0,0c-0.4-0.1-0.6-0.5-0.6-0.9V50.5C18.9,51,19.5,51.5,20.1,52z"/>
		<path class="st1" d="M23.4,27.8v20.7c-0.6-0.2-1.2-0.5-1.8-0.8V27.8c0-0.5,0.4-0.9,0.9-0.9S23.4,27.3,23.4,27.8z"/>
		<path class="st1" d="M23.4,54.2v13.4c0,0.6-0.6,1-1.1,0.9l0,0c-0.4-0.1-0.6-0.5-0.6-0.9V53.1C22.3,53.5,22.8,53.9,23.4,54.2z"/>
		<path class="st1" d="M26.8,20.4v2.5c-0.3-0.3-0.6-0.4-1-0.4c-0.3,0-0.5,0.1-0.8,0.2v-2.4c0-0.5,0.4-0.9,0.9-0.9
			C26.4,19.5,26.8,19.9,26.8,20.4z"/>
		<path class="st1" d="M26.8,38.7v11c-0.5-0.1-1.1-0.3-1.8-0.5V32.6C25.4,34.5,25.9,36.7,26.8,38.7z"/>
		<path class="st1" d="M63.7,36.1v20.6c-0.5,0.1-1.1,0.3-1.8,0.5V36.1c0-0.5,0.4-0.9,0.9-0.9C63.3,35.2,63.7,35.6,63.7,36.1z"/>
		<path class="st1" d="M61.9,61.5c0.6-0.3,1.2-0.5,1.8-0.9v22.6c0,0.5-0.4,0.9-0.9,0.9s-0.9-0.4-0.9-0.9
			C61.9,83.2,61.9,61.5,61.9,61.5z"/>
		<path class="st1" d="M67,45v29.4c0,0.5-0.4,0.9-0.9,0.9s-0.9-0.4-0.9-0.9V59.6c0.4-0.3,0.8-0.6,1.2-1c0.5-0.5,0.6-1.2,0.2-1.8
			c-0.3-0.5-0.9-0.7-1.4-0.6V45c0-0.5,0.4-0.9,0.9-0.9C66.6,44.1,67,44.5,67,45z"/>
		<path class="st1" d="M60.3,29.2v12.3c-0.6-0.1-1.2,0.3-1.4,0.9c0,0-0.1,0.3-0.3,0.8v-9.9C59.3,32.1,60,30.8,60.3,29.2z"/>
		<path class="st1" d="M60.3,49.9v7.6c-0.6,0.1-1.1,0.2-1.8,0.3v-4.2C59.2,52.4,59.8,51.2,60.3,49.9z"/>
		<path class="st1" d="M58.5,62.6c0.6-0.1,1.2-0.3,1.8-0.5v14.1c0,0.5-0.4,0.9-0.9,0.9s-0.9-0.4-0.9-0.9
			C58.5,76.2,58.5,62.6,58.5,62.6z"/>
		<path class="st1" d="M57,35.1v11.2c-0.5,0.9-1.1,1.8-1.8,2.9V36.7C55.8,36.2,56.4,35.7,57,35.1z"/>
		<path class="st1" d="M57,56.1V58c-0.5,0-1,0-1.4,0C56,57.5,56.5,56.8,57,56.1z"/>
		<path class="st1" d="M57,62.9v17.3c0,0.5-0.4,0.9-0.9,0.9s-0.9-0.4-0.9-0.9v-17C55.8,63.1,56.4,63,57,62.9z"/>
		<path class="st1" d="M53.6,19.5v12c-0.5,0.4-1.1,0.9-1.8,1.3V19.5c0-0.5,0.4-0.9,0.9-0.9C53.2,18.7,53.6,19,53.6,19.5z"/>
		<path class="st1" d="M53.6,37.9v13.5c-0.5,0.7-1.1,1.5-1.8,2.2V39.1c0.3-0.2,0.6-0.5,0.9-0.7C53.1,38.3,53.3,38.1,53.6,37.9z"/>
		<path class="st1" d="M53.6,63.4v11.2c0,0.5-0.4,0.9-0.9,0.9s-0.9-0.4-0.9-0.9V63.4C52.4,63.4,53,63.4,53.6,63.4z"/>
		<path class="st1" d="M50.3,16.1v17.7c-0.2,0.1-0.3,0.2-0.5,0.3c-0.4,0.2-0.9,0.5-1.3,0.7V16.1c0-0.5,0.4-0.9,0.9-0.9
			C49.9,15.2,50.3,15.6,50.3,16.1z"/>
		<path class="st1" d="M50.3,40.3v15c-0.6,0.6-1.1,1.2-1.8,1.8V41.9C49.1,41.3,49.7,40.8,50.3,40.3z"/>
		<path class="st1" d="M50.3,63.5v14c0,0.5-0.4,0.9-0.9,0.9s-0.9-0.4-0.9-0.9V64.6c0.5-0.5,0.9-0.9,1.2-1.2
			C49.9,63.4,50.1,63.4,50.3,63.5z"/>
		<path class="st1" d="M46.9,7.5v28.4c-0.6,0.4-1.2,0.9-1.8,1.4V7.5c0-0.5,0.4-0.9,0.9-0.9C46.5,6.6,46.9,7,46.9,7.5z"/>
		<path class="st1" d="M46.9,43.6v14.9c-0.6,0.5-1.2,1-1.8,1.4V46.5C45.6,45.4,46.2,44.5,46.9,43.6z"/>
		<path class="st1" d="M46.9,66v2.7c0,0.5-0.4,0.9-0.9,0.9s-0.9-0.4-0.9-0.9v-1.2c0.4-0.4,0.9-0.7,1.2-1.1
			C46.6,66.3,46.7,66.1,46.9,66z"/>
		<path class="st1" d="M43.6,13.4v25.3c-0.6,0.6-1.2,1.3-1.8,1.9V13.4c0-0.5,0.4-0.9,0.9-0.9C43.2,12.6,43.6,13,43.6,13.4z"/>
		<path class="st1" d="M43.6,51v9.5c0,0.5-0.4,0.9-0.9,0.9c-0.1,0-0.3,0-0.4-0.1C42.2,59.2,42.2,55.7,43.6,51z"/>
		<path class="st1" d="M30.1,12.9v20c-0.7-1.5-1.3-3.1-1.8-4.6V12.9c0-0.5,0.4-0.9,0.9-0.9C29.8,12,30.1,12.4,30.1,12.9z"/>
		<path class="st1" d="M30.1,44v6.1c-0.5,0-1.1-0.1-1.8-0.2v-8.2C28.9,42.5,29.5,43.3,30.1,44z"/>
		<path class="st1" d="M33.1,49.7c-0.3,0.1-0.8,0.3-1.4,0.4v-4C32.2,46.9,32.8,48.1,33.1,49.7z"/>
		<path class="st1" d="M33.5,19.8v19.1c-0.6-0.7-1.2-1.6-1.8-2.7V19.8c0-0.5,0.4-0.9,0.9-0.9S33.5,19.3,33.5,19.8z"/>
		<path class="st1" d="M36.9,6.8v36c-0.5-0.9-1.1-1.7-1.8-2.5V6.8c0-0.5,0.4-0.9,0.9-0.9C36.5,5.9,36.9,6.3,36.9,6.8z"/>
		<path class="st1" d="M40.2,17v25.7c-0.7,0.9-1.3,1.8-1.8,2.8V17c0-0.5,0.4-0.9,0.9-0.9S40.2,16.5,40.2,17z"/>
	</g>
	<g>
		<path class="st2" d="M29.9,63.4c-1.3-0.1-2.7-0.2-4.1-0.8c-0.4-0.2-0.8-0.4-1-0.8c-0.3-0.4-0.1-1,0.3-1.2c0.1-0.1,0.2-0.1,0.3,0
			c0.9,0.8,2,1,3.2,1.2c0.9,0.1,1.8,0.1,2.7,0c1.1-0.1,2.2-0.4,3.1-1.2c0.1-0.1,0.2-0.1,0.3,0c0.5,0.4,0.6,0.9,0.1,1.4
			c-0.4,0.4-1,0.7-1.6,0.9c-0.5,0.2-1.1,0.3-1.6,0.4C31.1,63.4,30.6,63.4,29.9,63.4z"/>
		<path class="st2" d="M30,61.4c-1.1,0-2.1-0.1-3.1-0.5c-0.5-0.2-0.9-0.4-1.2-0.8c-0.3-0.4-0.3-0.8,0.1-1.1c0.1-0.1,0.1-0.1,0.2,0
			c0.7,0.8,1.7,1,2.6,1.2c1.5,0.2,3,0.2,4.4-0.4c0.4-0.2,0.7-0.4,1-0.7c0.1-0.1,0.2-0.1,0.3,0c0.3,0.4,0.3,0.8,0,1.1
			c-0.4,0.4-0.9,0.7-1.5,0.8C31.8,61.4,30.9,61.5,30,61.4z"/>
		<path class="st2" d="M29.9,59.9c-1,0-2-0.1-2.9-0.5c-0.3-0.1-0.5-0.3-0.7-0.4c-0.3-0.3-0.4-0.7-0.1-1.1c0.2-0.2,0.5-0.4,0.7-0.5
			c0.1,0,0.2,0,0.2,0.1c0.4,0.9,1.2,1.1,2.1,1.3c0.8,0.1,1.7,0,2.4-0.4c0.4-0.2,0.7-0.5,0.9-0.9c0.1-0.2,0.1-0.2,0.3-0.1
			c0.2,0.1,0.5,0.3,0.7,0.5c0.3,0.3,0.3,0.7-0.1,1c-0.6,0.5-1.3,0.7-2.1,0.9C30.9,59.9,30.4,59.9,29.9,59.9z"/>
		<path class="st2" d="M30,65c-1.3,0-2.5-0.1-3.6-0.6c-0.4-0.2-0.7-0.4-1-0.7c-0.2-0.2-0.3-0.4-0.2-0.7c0-0.1,0.1-0.2,0.3-0.1
			c1.1,0.5,2.3,0.8,3.5,0.9c1.6,0.1,3.2,0,4.7-0.6c0.2-0.1,0.5-0.2,0.7-0.3s0.3,0,0.3,0.1c0.1,0.3,0,0.5-0.2,0.7
			c-0.4,0.4-0.8,0.6-1.3,0.8C32.1,64.9,31,65,30,65z"/>
		<path class="st2" d="M30.3,55c0,0.2,0,0.5,0,0.7s0.1,0.2,0.2,0.2c0.3,0,0.5,0.1,0.8,0.2c0.2,0.1,0.3,0.1,0.4,0.2
			c0.6,0.4,0.7,1,0,1.5c-0.7,0.4-1.4,0.5-2.1,0.4c-0.6,0-1.1-0.2-1.6-0.5c-0.5-0.4-0.5-0.9,0-1.3c0.4-0.3,0.8-0.4,1.2-0.5
			c0.2,0,0.3-0.1,0.3-0.4c0-0.4,0-0.8,0-1.3c0-0.3,0.1-0.5,0.4-0.5s0.4,0.2,0.4,0.5C30.3,54.6,30.3,54.8,30.3,55L30.3,55z"/>
		<path class="st2" d="M29.9,66.4c-1.1,0-2.1-0.1-3.1-0.6c-0.2-0.1-0.4-0.2-0.6-0.4c-0.1-0.1-0.2-0.2-0.3-0.4c0-0.1-0.1-0.3,0-0.4
			s0.2,0,0.3,0.1c0.8,0.3,1.7,0.5,2.6,0.6s1.8,0,2.8-0.1c0.7-0.1,1.4-0.3,2-0.5c0.1,0,0.2-0.1,0.3,0s0.1,0.2,0,0.3
			c-0.1,0.2-0.2,0.4-0.4,0.5c-0.7,0.5-1.6,0.7-2.4,0.8C30.7,66.4,30.3,66.5,29.9,66.4z"/>
		<path class="st2" d="M29.9,67.6c-0.6,0-1.2-0.1-1.7-0.4c-0.2-0.1-0.4-0.2-0.5-0.3c-0.1-0.1-0.2-0.1-0.1-0.2s0.1,0,0.2,0
			c0.3,0,0.5,0.1,0.8,0.1c1.1,0.1,2.2,0.1,3.3-0.1c0.1,0,0.2-0.1,0.3,0c0,0.1-0.1,0.2-0.1,0.2c-0.2,0.2-0.5,0.3-0.7,0.4
			C30.9,67.5,30.4,67.6,29.9,67.6z"/>
		<path class="st2" d="M29.9,68.4c-0.3,0-0.6-0.1-0.9-0.2c-0.1,0-0.2-0.1-0.3-0.2c0,0-0.1-0.1,0-0.1h0.1c0.1,0,0.3,0.1,0.4,0.1
			c0.6,0.1,1.2,0.1,1.8-0.1h0.1c0,0.1,0,0.1-0.1,0.1c-0.1,0.1-0.2,0.2-0.4,0.2C30.5,68.3,30.2,68.4,29.9,68.4z"/>
	</g>
	<path class="st0" d="M31.2,79.9c-0.7-0.9-1.5-1.7-2.5-2.3c0.7,0.1,1.3,0.4,1.9,0.7c-0.6-0.6-1.3-1-2-1.4c0.4,0.1,0.8,0.3,1.2,0.5
		c-0.1-0.2-1.5-3.3-3.7-4.4c0.9,0,1.5,0.3,1.5,0.3c-0.3-0.5-1.4-1.6-2.7-2.4c-0.7-0.4-1.9-1.2-3.6-1.4c-0.3,0-0.6,0-0.8,0l0,0
		c-0.1,0-0.2,0-0.3,0l0,0c0,0-0.1,0-0.2,0l0,0c-0.7,0-2.9,0.1-4.3,0.9c0.1,0.3,0.2,0.9,0.1,1.4l0,0c0,2-0.5,2.7-0.5,2.7
		c0.1-2.3-1.1-3.4-1.1-3.4c0.5,0.1,1.3,0.6,1.3,0.7c-0.2-0.6-0.4-1-0.4-1c-0.2-0.3-0.4-0.6-0.6-0.9c0.4,0.1,0.8,0.3,1.2,0.5
		c-0.5-0.5-1.1-0.8-1.7-1.1c0.4,0.1,0.7,0.2,1,0.4c-0.1-0.1-0.6-1.2-1.5-2.2l0,0c-0.5-0.5-1.1-1-1.7-1.4c0.3,0,0.5,0,0.7,0.1
		c0.4,0.1,0.6,0.2,0.6,0.2c-0.3-0.4-1.2-1.3-2.4-2c-0.6-0.3-1.7-0.9-3.2-1.1c-0.6-0.1-0.9,0-1.3,0c-0.3,0-0.5,0-0.8,0
		c-0.4,0-0.8,0.1-1.2,0.2c-0.2,0-0.3,0.1-0.5,0.2H4c-0.1,0.1-0.2,0.1-0.3,0.2C3.6,64,3.5,64,3.5,63.8c0-0.1-0.1-0.1-0.2-0.2
		c-0.1-0.1-0.1-0.2-0.2-0.1C3,63.5,3,63.6,3,63.7c0,0.2,0,0.4,0,0.6c0,0.2-0.1,0.3-0.2,0.3c-0.2,0-0.4,0.1-0.6,0.2
		c-0.1,0-0.1,0.2-0.2,0c-0.1-0.1-0.2-0.3-0.1-0.4s0.2,0,0.3,0.1h0.1c0-0.1,0-0.1-0.1-0.2C2,64,1.9,63.8,1.8,63.6
		c0-0.1-0.1-0.2-0.2-0.2s-0.1,0.1-0.1,0.2c0,0.5-0.1,1,0.1,1.5c0.1,0.2,0,0.3-0.1,0.5c-0.3,0.6-0.4,1.3-0.5,2c0,0.1,0,0.2,0.1,0.3
		c0.2-0.4,0.3-0.8,0.6-1.1c0.1,0.5,0,1-0.2,1.5c-0.1,0.3-0.1,0.5,0.1,0.7c0.3,0.4,0.6,0.8,0.6,1.3c0,0.8,0,2.6-0.1,3.4
		c0,0.1,0,0.3,0,0.4c-0.1,0.5,0.2,1,0.6,1.3c0.2,0.1,0.4,0.3,0.6,0.4c0.3,0.1,0.5,0,0.7-0.2c0.1-0.1,0.2-0.2,0.3-0.2
		c0.3-0.1,0.6-0.5,0.6-0.9c0-0.1,0-0.2,0-0.3v-0.1c0.3-1,1.3-2.6,1.7-3.6l0,0L7,71.6c0,0,0,0.2,0.1,0.5c0,0.6,0,1.3,0,1.3
		c-0.2,0.7-0.3,1.4-0.4,2.1c0,0.9,0.1,1.8,0.6,2.6c0.2,0.3,0.3,0.6,0.3,0.9c0,0.1,0,0.2,0,0.2l0,0c0,0.6,0.2,1.2,0.5,1.8
		c0.2,0.5,0.4,1,0.7,1.6l0.7,3.5c0.1,0.4,0.3,0.8,0.3,1.2c0.1,0.7,0.4,1.4,0.3,2.2c-0.1,1.1-0.2,2.1-0.8,3c-0.4,0.6-0.3,0.6,0.4,0.6
		h0.7c0.2,0,0.4-0.1,0.5,0.2c0,0,0.1,0,0.2,0c0.6,0,1.1,0,1.7,0c0.2,0,0.3-0.1,0.4-0.3c0.2-0.4,0.1-0.8-0.2-1.2
		c-0.2-0.4-0.2-0.7,0-1.1c0.1-0.3,0.2-0.5,0.1-0.8c-0.1-0.8-0.2-1.6-0.3-2.4c0-0.2,0-0.3,0.1-0.4c0.2-0.3,0.2-0.6,0.2-0.9
		c0-0.2,0-0.4,0-0.7c-0.1-0.8,0.2-1.5,0.4-2.2c0.1-0.5,0.2-1,0.3-1.5l0,0l0.5-0.1c0.5-0.1,1.1-0.2,1.7-0.4l0.5-0.2l0,0
		c0,0.4,0.1,0.7,0.2,1.1c0.1,0.3,0.2,0.7,0.3,1c0.2,0.8,0.3,1.5,0.4,2.3c0.1,1-0.2,1.9-0.4,2.8c-0.2,0.8-0.6,1.5-0.8,2.2
		c-0.2,0.7-0.6,1.2-0.9,1.8c-0.1,0.3-0.1,0.3,0.2,0.3c0.5,0,1,0.1,1.5,0c0.2,0,0.3-0.1,0.3-0.3c0.1-0.3,0.2-0.6-0.1-0.9
		c-0.1-0.1-0.1-0.2,0-0.3c0.4-0.3,0.5-0.7,0.5-1.2c0-0.8,0.3-1.5,0.6-2.2c0.2-0.4,0.4-0.9,0.5-1.3c0-0.1,0-0.1,0-0.2
		c-0.1-0.5,0.2-0.8,0.4-1.2c0.3-0.4,0.3-0.9,0.1-1.3c-0.2-0.4-0.3-0.9-0.4-1.3c-0.1-0.8-0.2-2.8-0.2-2.8l0.1-0.1
		c0.3-0.2,0.7-0.5,1-0.7l0.6-0.4c0,0,0.5,1.1,0.4,2.5s0.5,3.8,0.5,3.9l0,0c0,0.2,0.1,0.4,0.1,0.7c0.1,0.6,0.3,1.1,0.3,1.7
		c0,0.5-0.1,1-0.2,1.4c0,0.6-0.3,1.2-0.4,1.9c0,0.1,0,0.2,0,0.4c0.1,0.3,0,0.5-0.2,0.7c-0.4,0.3-0.3,0.8-0.3,1.2
		c0,0.1,0.1,0.2,0.2,0.2c0.5,0,1,0.1,1.5,0c0.2,0,0.3-0.1,0.3-0.2c0-0.3,0.1-0.7-0.1-1c-0.1-0.2-0.1-0.5,0-0.7
		c0.2-0.3,0.1-0.7,0.1-1.1c-0.1-0.9-0.2-1.8,0-2.7c0-0.2,0.2-0.3,0.2-0.5C23,86.4,23,86,23,85.6c0-0.4,0.1-0.9,0.1-1.3v-0.1
		c0,0,0,0,0-0.2s0.1-0.5,0.2-1c0.2-1.1-0.1-1.1,0.3-2.5s0.8-4.2,0.8-4.2l0,0c0.1-0.6,0.1-1.2,0.1-1.8c0.1,0.2,0.1,0.4,0.1,0.6
		c0,0.4,0.1,0.9,0,1.3c1.6,1.8,2.2,5,2.2,5c0.1-0.7,0-1.1,0-1.2c0.5,1.5,0.7,3.4,0.3,5.8c0.2-0.2,0.3-0.4,0.4-0.6
		c0.6-1.1,0.8-2.2,0.5-3.5c0.3,0.5,0.3,1.9,0,2.9c-0.3,0.8-0.6,1.5-1.1,2.2c0,0.1,0,0.1-0.1,0.2c0.5-0.3,0.8-0.8,1.1-1.3
		c-0.1,0.4-0.3,0.9-0.5,1.3l-0.1,0.1v0.1c0.1,0.1,0.1,0,0.1-0.1c0.3-0.5,0.6-1,0.8-1.5c0.4-0.9,0.5-1.8,0.5-2.7
		c0-1.1-0.3-2.2-0.8-3.2c0.6,1,1,2.6,1,2.6c0-0.8-0.2-1.6-0.4-2.2c0.9,1.7,1.5,4,1.5,4c0.1-1.7-0.4-3.2-0.9-4.3
		c0.3,0.3,0.6,0.6,0.8,0.9c0.3,0.3,0.5,0.7,0.8,1.1c0,0.1,0.1,0.2,0.2,0.1s0-0.2,0-0.2c-0.3-0.6-0.7-1.3-1.1-1.8c0,0-0.1-0.1,0-0.1
		c0.2,0.2,0.4,0.4,0.7,0.7c0.2,0.3,0.4,0.5,0.6,0.8s0.4,0.5,0.5,0.8c0.2,0.3,0.3,0.6,0.4,0.9C32.7,82.7,31.9,80.9,31.2,79.9z
		 M12,88.5c0,0.4-0.1,0.9-0.3,1.3c-0.1,0.2-0.1,0.5,0,0.7c0.1,0.3,0,0.6-0.1,0.9c-0.1,0.2-0.2,0.5-0.4,0.7c-0.4-0.6-0.4-0.9,0.1-1.5
		c0.1-0.2,0.2-0.4,0.1-0.6c-0.1-0.3-0.2-0.7-0.3-1c-0.1-0.8-0.3-1.6-0.1-2.5c0.1-0.5,0-1-0.2-1.5c0-0.1-0.1-0.3,0-0.4
		c0.2-0.5,0-1-0.1-1.6c-0.1-0.7-0.3-1.3-0.3-2v-0.1h-0.1l0.2-0.7l0,0c0.4,0,0.9,0.1,0.9,0.7l0,0c0,0.4,0,0.9,0,1.4v0.1
		c0,0.3,0.2,1.5,0.2,1.9c0.1,0.5,0.2,2.5,0.2,2.5C12.1,87.4,12.1,88,12,88.5z M23,77.9c0.6-5.4-1.6-7.6-1.8-7.8
		C25.4,73,23,77.9,23,77.9z"/>
	<g class="st3">
		<path class="st0" d="M87.7,40.8c-0.4,0.4-0.8,0.7-1.3,0.8c2.1,0.3,3.6,1,4.7,2.1c1.1,1.1,1.6,2.5,1.6,4.1c0,1.9-0.8,3.5-2.5,4.7
			c-1.6,1.2-3.8,1.8-6.4,1.8c-2.7,0-4.8-0.6-6.3-1.9c-1.5-1.2-2.3-3-2.3-5.3c0-0.1,0-0.2,0-0.4l0.3-0.1c0.4,3,1.7,4.9,3.9,5.8V35.1
			c0-0.5-0.3-1-0.6-1.3c-0.4-0.3-0.9-0.5-1.4-0.5h-0.4v-0.3h5.3c2,0,3.5,0.4,4.7,1.3c1.2,0.9,1.8,2,1.8,3.4S88.5,40,87.7,40.8z
			 M81.5,33.9v19.2c0.7,0.1,1.5,0.1,2.4,0.1c2,0,3.6-0.5,4.7-1.5c1.1-1,1.7-2.4,1.7-4c0-0.9-0.2-1.7-0.5-2.3
			c-0.3-0.7-0.8-1.2-1.3-1.6c-1.4-1-3.3-1.5-5.9-1.5h0l0-0.3h0c1.1,0,2-0.3,2.8-1c0.8-0.7,1.1-1.7,1.1-3.1c0-2.6-1.5-4-4.6-4H81.5z"
			/>
		<path class="st0" d="M94.8,53.6c0.5,0,1-0.2,1.4-0.6c0.4-0.4,0.6-0.8,0.6-1.3V34.9c0-0.5-0.2-0.9-0.6-1.2s-0.9-0.5-1.4-0.5h-0.4
			l0-0.3h9.2c0.6,0,1.4-0.1,2.1-0.2c0.8-0.1,1.3-0.2,1.6-0.4v3.8h-0.3v-0.5c0-0.5-0.2-0.9-0.5-1.2c-0.3-0.3-0.8-0.5-1.2-0.5h-6.4
			v9.3h5.3c0.4,0,0.8-0.2,1.1-0.4c0.3-0.3,0.4-0.6,0.4-1v-0.4h0.3v4.7h-0.3v-0.4c0-0.4-0.1-0.7-0.4-1c-0.3-0.3-0.6-0.4-1.1-0.4h-5.3
			v9h4.5c1.6,0,2.7-0.3,3.6-1s1.5-1.6,2-2.9h0.3l-1.8,4.9H94.4v-0.3H94.8z"/>
		<path class="st0" d="M108.4,31.2c0.1,0,0.4,0,0.8,0s0.9,0.1,1.5,0.2c0.6,0.1,1.3,0.3,1.8,0.5c0.6,0.2,1.1,0.6,1.6,1
			c0.5,0.4,1,0.8,1.4,1.2c0.4,0.4,0.8,0.9,1.1,1.5c0.4,0.6,0.7,1.1,0.9,1.5c0.2,0.4,0.5,1,0.8,1.6c0.4,0.9,0.7,1.6,0.9,2.2
			c0.2,0.6,0.4,1,0.4,1c0,0.1,0.1,0.1,0.1,0.2c0.1,0.2,0.1,0.3,0.2,0.4c0.1-0.1,0.2-0.5,0.4-1.1c0.2-0.6,0.4-1.1,0.6-1.6
			c0.2-0.5,0.5-1.2,0.9-2c0.4-0.9,0.8-1.6,1.1-2.1c0.3-0.5,0.8-1.1,1.3-1.8s1.1-1.2,1.6-1.5c1.3-0.9,2.8-1.3,4.3-1.3v0.3
			c-1.2,0-2.4,0.6-3.6,1.8c-1.2,1.2-2.3,2.6-3.1,4.3c-0.9,1.7-1.6,3.4-2.1,5.2c-0.6,1.8-0.8,3.3-0.8,4.6v4.4c0,0.7,0.3,1.3,1,1.6
			c0.3,0.2,0.7,0.3,1,0.3h0.4v0.3h-6.9v-0.3h0.4c0.5,0,1-0.2,1.4-0.5c0.4-0.4,0.6-0.8,0.6-1.3v-4.5c0-1.3-0.3-2.9-0.9-4.7
			c-0.6-1.8-1.3-3.5-2.3-5.2c-0.9-1.6-2-3-3.3-4.2c-1.3-1.1-2.5-1.7-3.8-1.7V31.2z"/>
		<path class="st0" d="M131.4,35.5c2.2-2,5.2-3,8.7-3s6.5,1,8.7,3s3.4,4.6,3.4,7.9c0,3.3-1.1,5.9-3.4,7.9s-5.2,3-8.7,3s-6.5-1-8.7-3
			s-3.4-4.6-3.4-7.9C128.1,40.1,129.2,37.5,131.4,35.5z M133.1,50.7c1.8,1.8,4.1,2.8,7,2.8s5.2-0.9,7-2.8c1.8-1.8,2.7-4.3,2.7-7.2
			s-0.9-5.4-2.7-7.3c-1.8-1.8-4.1-2.8-7-2.8s-5.2,0.9-7,2.8c-1.8,1.8-2.7,4.3-2.7,7.3S131.4,48.8,133.1,50.7z"/>
		<path class="st0" d="M176.9,33.2c-0.5,0-1,0.2-1.4,0.5c-0.4,0.3-0.6,0.8-0.6,1.3v15.5c0,1.2,0.1,2.3,0.2,3.3l0.1,0.5H175
			l-17.1-17.4v14.9c0,0.5,0.2,0.9,0.6,1.3s0.8,0.5,1.4,0.5h0.6v0.3h-6.5v-0.3h0.6c0.5,0,1-0.2,1.4-0.5c0.4-0.3,0.6-0.8,0.6-1.3V36.2
			c0-1.2-0.1-2.3-0.2-3.3l-0.1-0.5h0.3l17.1,17.4V35c0-0.5-0.2-1-0.6-1.3c-0.4-0.3-0.8-0.5-1.4-0.5H171v-0.3h6.5v0.3H176.9z"/>
		<path class="st0" d="M198.3,35.8c2.1,1.9,3.1,4.5,3.1,7.6c0,3.1-1,5.7-3.1,7.6c-2.1,1.9-4.8,2.9-8.2,2.9h-10.7v-0.3h0.4
			c0.5,0,1-0.2,1.4-0.6c0.4-0.4,0.6-0.8,0.6-1.3V34.9c0-0.5-0.2-0.9-0.6-1.2c-0.4-0.3-0.9-0.5-1.4-0.5h-0.4l0-0.3h10.7
			C193.4,32.9,196.2,33.9,198.3,35.8z M183.9,33.8V53h6.2c1.8,0,3.3-0.4,4.7-1.2c1.4-0.8,2.4-1.9,3.1-3.4c0.7-1.4,1.1-3.1,1.1-5
			c0-2.9-0.8-5.2-2.5-7c-1.6-1.8-3.8-2.6-6.5-2.6H183.9z"/>
	</g>
	<g class="st3">
		<path class="st0" d="M106.8,58.4h-0.3c-0.7,0-1.4,0.2-2,0.7c-0.3,0.3-0.6,0.6-0.7,1l-5.3,16.3c0,0.2-0.1,0.4-0.2,0.6L98.1,78
			c-0.1,0.4-0.1,0.8-0.1,1.1s0,0.5,0,0.7h-0.3l-7.3-13l-5,9.7c-0.5,1.1-0.8,2.2-0.8,3.3h-0.3l-7.8-19.6c-0.3-0.6-0.7-1-1.2-1.3
			c-0.5-0.3-1-0.4-1.5-0.4h-0.3v-0.3H85v0.3h-0.3c-0.6,0-1,0.3-1.3,0.8c0,0.1,0,0.3,0,0.4c0,0.2,0,0.4,0.1,0.6l3.4,8.1l5.4-10.8
			l0.3,0l6.3,11l2.5-8.4c0-0.2,0.1-0.4,0.1-0.6c0-0.2,0-0.4-0.1-0.6c-0.1-0.2-0.2-0.4-0.4-0.5c-0.2-0.1-0.5-0.2-0.8-0.2H100v-0.3
			h6.9V58.4z"/>
		<path class="st0" d="M118.1,57.7c2.7,0,5,0.4,7,1.3c2,0.9,3.5,2.1,4.5,3.8c1,1.6,1.6,3.6,1.6,5.9c0,3.4-1.2,6.1-3.5,8
			s-5.5,2.9-9.6,2.9c-4.1,0-7.3-1-9.6-2.9c-2.3-1.9-3.5-4.6-3.5-8c0-3.4,1.2-6.1,3.5-8C110.9,58.7,114,57.7,118.1,57.7z M113.6,75.5
			c1.1,1.7,2.6,2.5,4.5,2.5c1.9,0,3.4-0.8,4.5-2.5c1.1-1.7,1.6-4,1.6-6.9c0-3-0.5-5.3-1.6-6.9c-1.1-1.7-2.6-2.5-4.5-2.5
			c-1.9,0-3.4,0.8-4.5,2.5c-1.1,1.7-1.6,4-1.6,6.9C112,71.6,112.6,73.9,113.6,75.5z"/>
		<path class="st0" d="M151.8,61.4c0.3,0.7,0.5,1.4,0.5,2.2s-0.1,1.4-0.3,2c-0.2,0.6-0.4,1.1-0.8,1.7c-0.8,1.2-2.1,1.9-4,2.2
			c0.8,0.2,1.6,0.6,2.2,1.2c0.7,0.6,1.3,1.3,2,2.3c1.6,2.6,2.8,4.2,3.6,4.9c0.6,0.6,1.4,0.8,2.4,0.9v0.3h-3.9
			c-2.7,0-4.7-0.3-5.9-0.9c-1.7-0.8-2.9-2.2-3.6-4.2c-0.2-0.6-0.4-1.2-0.5-1.8c-0.1-0.6-0.3-1.1-0.3-1.4s-0.2-0.6-0.3-0.8
			c-0.1-0.2-0.3-0.4-0.4-0.6c-0.3-0.2-0.5-0.4-0.9-0.5v-0.3h0.5c1.2,0,2.1-0.5,2.7-1.6c0.3-0.6,0.5-1.2,0.6-1.8
			c0.1-0.6,0.1-1.1,0.1-1.2s0-0.3,0-0.3c-0.1-2.6-1.3-4-3.6-4h-1.4v17.2c0,0.5,0.2,1,0.6,1.3c0.4,0.4,0.9,0.6,1.4,0.6h0.4v0.3h-11.3
			v-0.3h0.4c0.5,0,1-0.2,1.4-0.5s0.6-0.8,0.6-1.3V60.3c0-0.7-0.4-1.3-1-1.6c-0.3-0.2-0.7-0.2-1-0.2h-0.4v-0.3H144
			C148.1,58.1,150.7,59.2,151.8,61.4z"/>
		<path class="st0" d="M176.6,60.9c2.2,1.8,3.3,4.4,3.3,7.7c0,3.3-1.1,5.9-3.3,7.7c-2.2,1.8-5.3,2.8-9.2,2.8h-11.9v-0.3h0.4
			c0.5,0,1-0.2,1.4-0.6c0.4-0.4,0.6-0.8,0.6-1.3V60.1c0-0.5-0.2-0.9-0.6-1.2c-0.4-0.3-0.9-0.5-1.4-0.5h-0.4l0-0.3h11.9
			C171.3,58.1,174.4,59,176.6,60.9z M164.3,59.6v18h2.4c2,0,3.5-0.8,4.6-2.4c1.1-1.6,1.7-3.8,1.7-6.6s-0.6-5-1.7-6.6
			c-1.1-1.6-2.6-2.4-4.6-2.4H164.3z"/>
		<path class="st0" d="M193.9,80.3c2.4,0.6,4.4,1.1,6,1.5c1.6,0.4,3.3,0.7,5,1.1c1.7,0.3,3.3,0.5,4.8,0.5c1.4,0,2.7-0.2,3.9-0.6
			l0.3,0.2c-1.1,1.2-2.3,2.2-3.6,2.8c-1.4,0.7-2.8,1-4.1,1c-1.4,0-2.8-0.2-4.2-0.5c-1.5-0.3-2.9-0.8-4.3-1.3
			c-1.4-0.6-2.9-1.2-4.5-1.9c-1.6-0.6-3-1.3-4.4-1.9c-3.2-1.4-5.9-2-8.2-2v-0.3L191,59.6h-5.7c-1.7,0-2.9,0.6-3.6,1.8
			c-0.3,0.6-0.5,1.3-0.5,2.1v0.2H181v-6.2c0.3,0.1,0.9,0.2,1.7,0.4c0.8,0.1,1.5,0.2,2.2,0.2h10.9c0.6,0,1.3,0,2-0.1
			c0.7-0.1,1.1-0.2,1.3-0.3V58l-11.3,20.9C189.4,79.2,191.5,79.7,193.9,80.3z"/>
	</g>
</g>
<g>
	<g>
		<path class="st0" d="M1.3,114.5v-8.4H5c0.6,0,1,0.1,1.4,0.3c0.4,0.2,0.7,0.5,0.9,0.8c0.2,0.4,0.3,0.8,0.3,1.3s-0.1,0.9-0.3,1.3
			c-0.2,0.4-0.5,0.7-1,0.9C6,110.9,5.5,111,4.9,111H2.2v3.6L1.3,114.5L1.3,114.5z M2.2,110.2h2.7c0.6,0,1-0.1,1.4-0.4
			s0.5-0.7,0.5-1.2s-0.2-0.9-0.5-1.2S5.5,107,4.9,107H2.2V110.2z"/>
		<path class="st0" d="M8.9,114.5v-6h0.9v0.9c0.2-0.3,0.4-0.6,0.7-0.7c0.3-0.2,0.6-0.3,1-0.3c0.2,0,0.4,0,0.6,0.1v0.8
			c-0.1,0-0.2-0.1-0.3-0.1s-0.2,0-0.3,0c-0.4,0-0.7,0.1-1,0.3s-0.5,0.5-0.7,0.9v4.1C9.8,114.5,8.9,114.5,8.9,114.5z"/>
		<path class="st0" d="M15.9,114.7c-0.6,0-1.1-0.1-1.6-0.4s-0.8-0.7-1.1-1.1s-0.4-1-0.4-1.6s0.1-1.1,0.4-1.6
			c0.3-0.5,0.6-0.8,1.1-1.1c0.5-0.3,1-0.4,1.6-0.4s1.1,0.1,1.6,0.4s0.8,0.7,1.1,1.1c0.3,0.5,0.4,1,0.4,1.6s-0.1,1.1-0.4,1.6
			s-0.6,0.8-1.1,1.1C17,114.5,16.5,114.7,15.9,114.7z M15.9,113.9c0.4,0,0.8-0.1,1.1-0.3c0.3-0.2,0.6-0.5,0.8-0.8
			c0.2-0.4,0.3-0.7,0.3-1.2c0-0.4-0.1-0.8-0.3-1.2s-0.5-0.6-0.8-0.8c-0.3-0.2-0.7-0.3-1.1-0.3s-0.8,0.1-1.1,0.3s-0.6,0.5-0.8,0.8
			s-0.3,0.7-0.3,1.2c0,0.4,0.1,0.8,0.3,1.2c0.2,0.4,0.5,0.6,0.8,0.8S15.5,113.9,15.9,113.9z"/>
		<path class="st0" d="M21.1,114.5v-5.3h-1.4v-0.8h1.4v-1.1c0-0.6,0.2-1,0.5-1.4c0.3-0.3,0.8-0.5,1.4-0.5c0.2,0,0.3,0,0.4,0
			s0.3,0,0.4,0.1v0.8c-0.1,0-0.3-0.1-0.4-0.1s-0.2,0-0.4,0c-0.4,0-0.6,0.1-0.8,0.3c-0.2,0.2-0.3,0.4-0.3,0.8v1.1h1.8v0.8H22v5.3
			C22,114.5,21.1,114.5,21.1,114.5z"/>
		<path class="st0" d="M27.6,114.6c-0.6,0-1.1-0.1-1.6-0.4s-0.8-0.7-1.1-1.1c-0.3-0.5-0.4-1-0.4-1.6s0.1-1.1,0.4-1.6
			s0.6-0.8,1.1-1.1c0.4-0.3,1-0.4,1.5-0.4s1,0.1,1.5,0.4s0.8,0.7,1,1.1c0.3,0.5,0.4,1,0.4,1.6v0.3h-5c0,0.4,0.2,0.7,0.4,1.1
			c0.2,0.3,0.5,0.6,0.8,0.7s0.7,0.3,1.1,0.3c0.3,0,0.6,0,0.9-0.1s0.5-0.2,0.7-0.4l0.6,0.6c-0.3,0.2-0.7,0.4-1.1,0.6
			C28.4,114.6,28,114.6,27.6,114.6z M25.3,111.1h4c0-0.4-0.2-0.7-0.4-1c-0.2-0.3-0.4-0.5-0.7-0.7c-0.3-0.2-0.6-0.2-0.9-0.2
			s-0.7,0.1-1,0.2c-0.3,0.2-0.5,0.4-0.7,0.7S25.4,110.7,25.3,111.1z"/>
		<path class="st0" d="M33.4,114.7c-0.5,0-1-0.1-1.4-0.2c-0.4-0.2-0.8-0.4-1.1-0.7l0.5-0.6c0.3,0.3,0.6,0.5,0.9,0.6s0.7,0.2,1,0.2
			c0.5,0,0.9-0.1,1.2-0.3c0.3-0.2,0.5-0.5,0.5-0.8s-0.1-0.5-0.3-0.6s-0.5-0.3-0.8-0.3l-1-0.1c-0.6-0.1-1.1-0.3-1.3-0.5
			c-0.3-0.3-0.4-0.6-0.4-1.1c0-0.3,0.1-0.6,0.3-0.9c0.2-0.3,0.5-0.5,0.8-0.6s0.7-0.2,1.2-0.2c0.4,0,0.9,0.1,1.2,0.2
			c0.4,0.1,0.8,0.3,1.1,0.6l-0.5,0.6c-0.3-0.2-0.7-0.4-1-0.5s-0.6-0.2-1-0.2s-0.8,0.1-1,0.3c-0.3,0.2-0.4,0.4-0.4,0.7
			c0,0.3,0.1,0.5,0.3,0.6s0.5,0.2,0.9,0.3l1,0.1c0.6,0.1,1.1,0.3,1.4,0.5s0.5,0.6,0.5,1.1c0,0.3-0.1,0.7-0.3,0.9
			c-0.2,0.3-0.5,0.5-0.9,0.7C34.3,114.6,33.9,114.7,33.4,114.7z"/>
		<path class="st0" d="M38.8,114.7c-0.5,0-1-0.1-1.4-0.2c-0.4-0.2-0.8-0.4-1.1-0.7l0.5-0.6c0.3,0.3,0.6,0.5,0.9,0.6
			c0.3,0.1,0.7,0.2,1,0.2c0.5,0,0.9-0.1,1.2-0.3c0.3-0.2,0.5-0.5,0.5-0.8s-0.1-0.5-0.3-0.6s-0.5-0.3-0.8-0.3l-1-0.1
			c-0.6-0.1-1.1-0.3-1.3-0.5c-0.3-0.3-0.4-0.6-0.4-1.1c0-0.3,0.1-0.6,0.3-0.9s0.5-0.5,0.8-0.6s0.7-0.2,1.2-0.2
			c0.4,0,0.9,0.1,1.2,0.2c0.4,0.1,0.8,0.3,1.1,0.6l-0.5,0.6c-0.3-0.2-0.7-0.4-1-0.5s-0.6-0.2-1-0.2s-0.8,0.1-1,0.3
			c-0.3,0.2-0.4,0.4-0.4,0.7c0,0.3,0.1,0.5,0.3,0.6s0.5,0.2,0.9,0.3l1,0.1c0.6,0.1,1.1,0.3,1.4,0.5s0.5,0.6,0.5,1.1
			c0,0.3-0.1,0.7-0.3,0.9c-0.2,0.3-0.5,0.5-0.9,0.7C39.7,114.6,39.3,114.7,38.8,114.7z"/>
		<path class="st0" d="M42.7,107.3c-0.2,0-0.3-0.1-0.4-0.2c-0.1-0.1-0.2-0.3-0.2-0.4c0-0.2,0.1-0.3,0.2-0.4c0.1-0.1,0.3-0.2,0.4-0.2
			c0.2,0,0.3,0.1,0.4,0.2c0.1,0.1,0.2,0.3,0.2,0.4c0,0.2-0.1,0.3-0.2,0.4C43,107.3,42.9,107.3,42.7,107.3z M42.3,114.5v-6h0.9v6
			H42.3z"/>
		<path class="st0" d="M47.5,114.7c-0.6,0-1.1-0.1-1.6-0.4s-0.8-0.7-1.1-1.1s-0.4-1-0.4-1.6s0.1-1.1,0.4-1.6
			c0.3-0.5,0.6-0.8,1.1-1.1c0.5-0.3,1-0.4,1.6-0.4s1.1,0.1,1.6,0.4s0.8,0.7,1.1,1.1c0.3,0.5,0.4,1,0.4,1.6s-0.1,1.1-0.4,1.6
			c-0.3,0.5-0.6,0.8-1.1,1.1C48.6,114.5,48.1,114.7,47.5,114.7z M47.5,113.9c0.4,0,0.8-0.1,1.1-0.3c0.3-0.2,0.6-0.5,0.8-0.8
			c0.2-0.4,0.3-0.7,0.3-1.2c0-0.4-0.1-0.8-0.3-1.2s-0.5-0.6-0.8-0.8c-0.3-0.2-0.7-0.3-1.1-0.3s-0.8,0.1-1.1,0.3s-0.6,0.5-0.8,0.8
			s-0.3,0.7-0.3,1.2c0,0.4,0.1,0.8,0.3,1.2c0.2,0.4,0.5,0.6,0.8,0.8S47.1,113.9,47.5,113.9z"/>
		<path class="st0" d="M51.8,114.5v-6h0.9v0.7c0.5-0.6,1.1-0.8,1.9-0.8c0.5,0,0.9,0.1,1.2,0.3c0.3,0.2,0.6,0.5,0.8,0.8
			s0.3,0.8,0.3,1.2v3.8H56v-3.6c0-0.5-0.2-1-0.5-1.3s-0.7-0.5-1.2-0.5c-0.4,0-0.7,0.1-1,0.2c-0.3,0.2-0.5,0.4-0.7,0.7v4.4h-0.8
			V114.5z"/>
		<path class="st0" d="M60.3,114.6c-0.4,0-0.8-0.1-1.2-0.2c-0.3-0.2-0.6-0.4-0.8-0.6c-0.2-0.3-0.3-0.6-0.3-1c0-0.6,0.2-1,0.7-1.3
			s1-0.5,1.8-0.5c0.7,0,1.2,0.1,1.8,0.4v-0.8c0-0.5-0.1-0.8-0.4-1.1c-0.3-0.2-0.7-0.4-1.2-0.4c-0.3,0-0.6,0-0.9,0.1
			c-0.3,0.1-0.6,0.2-1,0.4l-0.3-0.7c0.4-0.2,0.8-0.4,1.2-0.5s0.7-0.1,1.1-0.1c0.8,0,1.4,0.2,1.8,0.5c0.4,0.4,0.6,0.9,0.6,1.6v4.1
			h-0.9v-0.6c-0.3,0.2-0.6,0.4-0.9,0.5C61.1,114.6,60.7,114.6,60.3,114.6z M59,112.8c0,0.3,0.1,0.6,0.4,0.8c0.3,0.2,0.7,0.3,1.1,0.3
			c0.4,0,0.7-0.1,1-0.2s0.6-0.3,0.8-0.5v-1.1c-0.2-0.2-0.5-0.3-0.8-0.4s-0.6-0.1-1-0.1c-0.5,0-0.9,0.1-1.2,0.3
			C59.1,112.2,59,112.4,59,112.8z"/>
		<path class="st0" d="M64.6,114.5v-8.4l0.9-0.2v8.6H64.6z"/>
		<path class="st0" d="M72.4,114.6c-0.6,0-1.1-0.1-1.6-0.4s-0.8-0.7-1.1-1.1c-0.3-0.5-0.4-1-0.4-1.6s0.1-1.1,0.4-1.6
			s0.6-0.8,1.1-1.1c0.5-0.3,1-0.4,1.6-0.4c0.4,0,0.9,0.1,1.3,0.2c0.4,0.2,0.8,0.4,1.1,0.7l-0.6,0.7c-0.2-0.3-0.5-0.5-0.8-0.6
			s-0.6-0.2-1-0.2s-0.8,0.1-1.1,0.3c-0.3,0.2-0.6,0.5-0.8,0.8s-0.3,0.7-0.3,1.2s0.1,0.8,0.3,1.2s0.5,0.6,0.8,0.8
			c0.3,0.2,0.7,0.3,1.1,0.3c0.3,0,0.6-0.1,0.9-0.2s0.6-0.3,0.8-0.6l0.6,0.6c-0.3,0.3-0.7,0.5-1.1,0.7
			C73.3,114.6,72.9,114.6,72.4,114.6z"/>
		<path class="st0" d="M78.6,114.7c-0.6,0-1.1-0.1-1.6-0.4s-0.8-0.7-1.1-1.1s-0.4-1-0.4-1.6s0.1-1.1,0.4-1.6s0.6-0.8,1.1-1.1
			c0.5-0.3,1-0.4,1.6-0.4s1.1,0.1,1.6,0.4s0.8,0.7,1.1,1.1c0.3,0.5,0.4,1,0.4,1.6s-0.1,1.1-0.4,1.6s-0.6,0.8-1.1,1.1
			C79.7,114.5,79.2,114.7,78.6,114.7z M78.6,113.9c0.4,0,0.8-0.1,1.1-0.3c0.3-0.2,0.6-0.5,0.8-0.8c0.2-0.4,0.3-0.7,0.3-1.2
			c0-0.4-0.1-0.8-0.3-1.2s-0.5-0.6-0.8-0.8c-0.3-0.2-0.7-0.3-1.1-0.3s-0.8,0.1-1.1,0.3s-0.6,0.5-0.8,0.8s-0.3,0.7-0.3,1.2
			c0,0.4,0.1,0.8,0.3,1.2c0.2,0.4,0.5,0.6,0.8,0.8S78.2,113.9,78.6,113.9z"/>
		<path class="st0" d="M84.9,114.6c-0.4,0-0.8-0.1-1.2-0.2c-0.3-0.2-0.6-0.4-0.8-0.6c-0.2-0.3-0.3-0.6-0.3-1c0-0.6,0.2-1,0.7-1.3
			s1-0.5,1.8-0.5c0.7,0,1.2,0.1,1.8,0.4v-0.8c0-0.5-0.1-0.8-0.4-1.1c-0.3-0.2-0.7-0.4-1.2-0.4c-0.3,0-0.6,0-0.9,0.1s-0.6,0.2-1,0.4
			L83,109c0.4-0.2,0.8-0.4,1.2-0.5c0.4-0.1,0.7-0.1,1.1-0.1c0.8,0,1.4,0.2,1.8,0.5c0.4,0.4,0.6,0.9,0.6,1.6v4.1h-0.9V114
			c-0.3,0.2-0.6,0.4-0.9,0.5C85.6,114.6,85.2,114.6,84.9,114.6z M83.5,112.8c0,0.3,0.1,0.6,0.4,0.8c0.3,0.2,0.7,0.3,1.1,0.3
			s0.7-0.1,1-0.2s0.6-0.3,0.8-0.5v-1.1c-0.2-0.2-0.5-0.3-0.8-0.4s-0.6-0.1-1-0.1c-0.5,0-0.9,0.1-1.2,0.3
			C83.6,112.2,83.5,112.4,83.5,112.8z"/>
		<path class="st0" d="M92,114.6c-0.6,0-1.1-0.1-1.6-0.4s-0.8-0.7-1.1-1.1c-0.3-0.5-0.4-1-0.4-1.6s0.1-1.1,0.4-1.6s0.6-0.8,1.1-1.1
			c0.5-0.3,1-0.4,1.6-0.4c0.4,0,0.9,0.1,1.3,0.2c0.4,0.2,0.8,0.4,1.1,0.7l-0.6,0.7c-0.2-0.3-0.5-0.5-0.8-0.6s-0.6-0.2-1-0.2
			s-0.8,0.1-1.1,0.3c-0.3,0.2-0.6,0.5-0.8,0.8s-0.3,0.7-0.3,1.2s0.1,0.8,0.3,1.2s0.5,0.6,0.8,0.8c0.3,0.2,0.7,0.3,1.1,0.3
			c0.3,0,0.6-0.1,0.9-0.2s0.6-0.3,0.8-0.6l0.6,0.6c-0.3,0.3-0.7,0.5-1.1,0.7C92.8,114.6,92.4,114.6,92,114.6z"/>
		<path class="st0" d="M95.4,114.5v-8.4l0.9-0.2v3.3c0.5-0.6,1.1-0.8,1.9-0.8c0.5,0,0.9,0.1,1.2,0.3c0.3,0.2,0.6,0.5,0.8,0.8
			s0.3,0.8,0.3,1.2v3.8h-0.9v-3.6c0-0.5-0.2-1-0.5-1.3s-0.7-0.5-1.2-0.5c-0.4,0-0.7,0.1-1,0.2c-0.3,0.2-0.5,0.4-0.7,0.7v4.4
			L95.4,114.5L95.4,114.5z"/>
		<path class="st0" d="M102.4,107.3c-0.2,0-0.3-0.1-0.4-0.2s-0.2-0.3-0.2-0.4c0-0.2,0.1-0.3,0.2-0.4s0.3-0.2,0.4-0.2
			c0.2,0,0.3,0.1,0.4,0.2s0.2,0.3,0.2,0.4c0,0.2-0.1,0.3-0.2,0.4C102.7,107.3,102.6,107.3,102.4,107.3z M102,114.5v-6h0.9v6H102z"/>
		<path class="st0" d="M104.4,114.5v-6h0.9v0.7c0.5-0.6,1.1-0.8,1.9-0.8c0.5,0,0.9,0.1,1.2,0.3c0.3,0.2,0.6,0.5,0.8,0.8
			s0.3,0.8,0.3,1.2v3.8h-0.9v-3.6c0-0.5-0.2-1-0.5-1.3s-0.7-0.5-1.2-0.5c-0.4,0-0.7,0.1-1,0.2c-0.3,0.2-0.5,0.4-0.7,0.7v4.4h-0.8
			V114.5z"/>
		<path class="st0" d="M113.9,117.1c-0.4,0-0.8-0.1-1.2-0.2s-0.8-0.3-1.1-0.5l0.4-0.7c0.4,0.2,0.7,0.3,1,0.4s0.6,0.1,0.9,0.1
			c0.6,0,1-0.1,1.3-0.4s0.4-0.7,0.4-1.2v-0.8c-0.6,0.5-1.2,0.7-1.9,0.7c-0.6,0-1.1-0.1-1.5-0.4s-0.8-0.6-1.1-1.1
			c-0.3-0.5-0.4-1-0.4-1.6s0.1-1.1,0.4-1.6s0.6-0.8,1.1-1.1c0.5-0.3,1-0.4,1.5-0.4c0.3,0,0.7,0.1,1,0.2s0.6,0.3,0.9,0.5v-0.6h0.9
			v6.2c0,0.8-0.2,1.4-0.7,1.8C115.4,116.9,114.8,117.1,113.9,117.1z M113.8,113.8c0.4,0,0.7-0.1,1.1-0.2c0.3-0.1,0.6-0.3,0.8-0.6v-3
			c-0.2-0.3-0.5-0.5-0.8-0.6s-0.7-0.2-1.1-0.2s-0.8,0.1-1.1,0.3s-0.6,0.5-0.8,0.8s-0.3,0.7-0.3,1.2s0.1,0.8,0.3,1.2s0.5,0.6,0.8,0.8
			C113,113.7,113.4,113.8,113.8,113.8z"/>
		<path class="st0" d="M123,114.7c-0.6,0-1-0.1-1.5-0.3c-0.4-0.2-0.7-0.5-1-0.8c-0.2-0.4-0.3-0.8-0.3-1.3c0-0.3,0.1-0.6,0.2-0.9
			s0.3-0.5,0.6-0.8s0.6-0.5,1.1-0.7c-0.3-0.4-0.5-0.7-0.6-1s-0.2-0.6-0.2-0.9c0-0.4,0.1-0.7,0.3-1c0.2-0.3,0.4-0.5,0.7-0.7
			s0.7-0.3,1-0.3c0.4,0,0.7,0.1,1,0.2s0.5,0.4,0.7,0.6c0.2,0.3,0.2,0.6,0.2,0.9c0,0.4-0.1,0.7-0.3,1.1s-0.6,0.6-1,0.9l-0.6,0.4
			c0.3,0.4,0.7,0.7,1.1,1.1s0.8,0.8,1.2,1.1c0.2-0.3,0.4-0.7,0.5-1.1s0.2-0.8,0.3-1.2l0.8,0.1c-0.1,0.5-0.2,1-0.4,1.4
			c-0.2,0.4-0.4,0.9-0.6,1.2c0.3,0.2,0.5,0.4,0.8,0.6s0.5,0.4,0.7,0.6l-0.5,0.6c-0.2-0.2-0.5-0.4-0.7-0.6s-0.5-0.4-0.7-0.6
			c-0.3,0.4-0.7,0.7-1.2,0.8C124,114.6,123.5,114.7,123,114.7z M123,113.9c0.4,0,0.8-0.1,1.1-0.2c0.3-0.2,0.7-0.4,0.9-0.7
			c-0.5-0.4-0.9-0.9-1.4-1.3c-0.4-0.4-0.8-0.9-1.2-1.3c-0.4,0.2-0.7,0.4-0.9,0.6c-0.2,0.2-0.4,0.4-0.5,0.6s-0.1,0.4-0.1,0.7
			c0,0.5,0.2,0.9,0.5,1.2C122,113.8,122.4,113.9,123,113.9z M122.8,109.5l0.7-0.4c0.3-0.2,0.5-0.4,0.7-0.6s0.2-0.5,0.2-0.7
			c0-0.3-0.1-0.5-0.3-0.7c-0.2-0.2-0.5-0.3-0.8-0.3s-0.6,0.1-0.8,0.3c-0.2,0.2-0.3,0.5-0.3,0.9c0,0.2,0,0.5,0.2,0.7
			C122.4,108.9,122.6,109.2,122.8,109.5z"/>
		<path class="st0" d="M131.1,114.5v-8.4l0.9-0.2v8.6H131.1z"/>
		<path class="st0" d="M136.4,114.6c-0.6,0-1.1-0.1-1.6-0.4s-0.8-0.7-1.1-1.1c-0.3-0.5-0.4-1-0.4-1.6s0.1-1.1,0.4-1.6
			c0.3-0.5,0.6-0.8,1.1-1.1s1-0.4,1.5-0.4s1,0.1,1.5,0.4s0.8,0.7,1,1.1c0.3,0.5,0.4,1,0.4,1.6v0.3h-5c0,0.4,0.2,0.7,0.4,1.1
			c0.2,0.3,0.5,0.6,0.8,0.7c0.3,0.2,0.7,0.3,1.1,0.3c0.3,0,0.6,0,0.9-0.1c0.3-0.1,0.5-0.2,0.7-0.4l0.6,0.6c-0.3,0.2-0.7,0.4-1.1,0.6
			C137.2,114.6,136.8,114.6,136.4,114.6z M134.1,111.1h4c0-0.4-0.2-0.7-0.4-1s-0.4-0.5-0.7-0.7s-0.6-0.2-0.9-0.2
			c-0.3,0-0.7,0.1-1,0.2c-0.3,0.2-0.5,0.4-0.7,0.7C134.3,110.4,134.2,110.7,134.1,111.1z"/>
		<path class="st0" d="M142.2,114.6c-0.4,0-0.8-0.1-1.2-0.2c-0.3-0.2-0.6-0.4-0.8-0.6c-0.2-0.3-0.3-0.6-0.3-1c0-0.6,0.2-1,0.7-1.3
			c0.4-0.3,1-0.5,1.8-0.5c0.7,0,1.2,0.1,1.8,0.4v-0.8c0-0.5-0.1-0.8-0.4-1.1c-0.3-0.2-0.7-0.4-1.2-0.4c-0.3,0-0.6,0-0.9,0.1
			c-0.3,0.1-0.6,0.2-1,0.4l-0.3-0.7c0.4-0.2,0.8-0.4,1.2-0.5s0.7-0.1,1.1-0.1c0.8,0,1.4,0.2,1.8,0.5c0.4,0.4,0.6,0.9,0.6,1.6v4.1
			h-0.9v-0.6c-0.3,0.2-0.6,0.4-0.9,0.5C142.9,114.6,142.6,114.6,142.2,114.6z M140.8,112.8c0,0.3,0.1,0.6,0.4,0.8
			c0.3,0.2,0.7,0.3,1.1,0.3c0.4,0,0.7-0.1,1-0.2s0.6-0.3,0.8-0.5v-1.1c-0.2-0.2-0.5-0.3-0.8-0.4s-0.6-0.1-1-0.1
			c-0.5,0-0.9,0.1-1.2,0.3S140.8,112.4,140.8,112.8z"/>
		<path class="st0" d="M149.3,114.6c-0.6,0-1.1-0.1-1.5-0.4s-0.8-0.7-1.1-1.1c-0.3-0.5-0.4-1-0.4-1.6s0.1-1.1,0.4-1.6
			c0.3-0.5,0.6-0.8,1.1-1.1s1-0.4,1.5-0.4c0.4,0,0.7,0.1,1,0.2s0.6,0.3,0.9,0.5v-3l0.9-0.2v8.6h-0.9v-0.6
			C150.7,114.4,150.1,114.6,149.3,114.6z M149.4,113.8c0.4,0,0.7-0.1,1.1-0.2c0.3-0.1,0.6-0.4,0.8-0.6v-3c-0.2-0.3-0.5-0.5-0.8-0.6
			s-0.7-0.2-1.1-0.2c-0.4,0-0.8,0.1-1.1,0.3c-0.3,0.2-0.6,0.5-0.8,0.8s-0.3,0.7-0.3,1.2c0,0.4,0.1,0.8,0.3,1.2
			c0.2,0.4,0.5,0.6,0.8,0.8C148.6,113.7,149,113.8,149.4,113.8z"/>
		<path class="st0" d="M156.5,114.6c-0.6,0-1.1-0.1-1.6-0.4s-0.8-0.7-1.1-1.1c-0.3-0.5-0.4-1-0.4-1.6s0.1-1.1,0.4-1.6
			c0.3-0.5,0.6-0.8,1.1-1.1s1-0.4,1.5-0.4s1,0.1,1.5,0.4s0.8,0.7,1,1.1c0.3,0.5,0.4,1,0.4,1.6v0.3h-5c0,0.4,0.2,0.7,0.4,1.1
			c0.2,0.3,0.5,0.6,0.8,0.7c0.3,0.2,0.7,0.3,1.1,0.3c0.3,0,0.6,0,0.9-0.1c0.3-0.1,0.5-0.2,0.7-0.4l0.6,0.6c-0.3,0.2-0.7,0.4-1.1,0.6
			C157.3,114.6,156.9,114.6,156.5,114.6z M154.3,111.1h4c0-0.4-0.2-0.7-0.4-1s-0.4-0.5-0.7-0.7s-0.6-0.2-0.9-0.2
			c-0.3,0-0.7,0.1-1,0.2c-0.3,0.2-0.5,0.4-0.7,0.7C154.5,110.4,154.3,110.7,154.3,111.1z"/>
		<path class="st0" d="M160.4,114.5v-6h0.9v0.9c0.2-0.3,0.4-0.6,0.7-0.7s0.6-0.3,1-0.3c0.2,0,0.4,0,0.6,0.1v0.8
			c-0.1,0-0.2-0.1-0.3-0.1s-0.2,0-0.3,0c-0.4,0-0.7,0.1-1,0.3s-0.5,0.5-0.7,0.9v4.1C161.3,114.5,160.4,114.5,160.4,114.5z"/>
		<path class="st0" d="M166.5,114.7c-0.5,0-1-0.1-1.4-0.2c-0.4-0.2-0.8-0.4-1.1-0.7l0.5-0.6c0.3,0.3,0.6,0.5,0.9,0.6
			c0.3,0.1,0.7,0.2,1,0.2c0.5,0,0.9-0.1,1.2-0.3c0.3-0.2,0.5-0.5,0.5-0.8s-0.1-0.5-0.3-0.6s-0.5-0.3-0.8-0.3l-1-0.1
			c-0.6-0.1-1.1-0.3-1.3-0.5c-0.3-0.3-0.4-0.6-0.4-1.1c0-0.3,0.1-0.6,0.3-0.9s0.5-0.5,0.8-0.6s0.7-0.2,1.2-0.2
			c0.4,0,0.9,0.1,1.2,0.2c0.4,0.1,0.8,0.3,1.1,0.6l-0.5,0.6c-0.3-0.2-0.7-0.4-1-0.5s-0.6-0.2-1-0.2s-0.8,0.1-1,0.3
			c-0.3,0.2-0.4,0.4-0.4,0.7c0,0.3,0.1,0.5,0.3,0.6s0.5,0.2,0.9,0.3l1,0.1c0.6,0.1,1.1,0.3,1.4,0.5c0.3,0.3,0.5,0.6,0.5,1.1
			c0,0.3-0.1,0.7-0.3,0.9s-0.5,0.5-0.9,0.7C167.4,114.6,167,114.7,166.5,114.7z"/>
		<path class="st0" d="M170,114.5v-8.4l0.9-0.2v3.3c0.5-0.6,1.1-0.8,1.9-0.8c0.5,0,0.9,0.1,1.2,0.3c0.3,0.2,0.6,0.5,0.8,0.8
			s0.3,0.8,0.3,1.2v3.8h-0.9v-3.6c0-0.5-0.2-1-0.5-1.3s-0.7-0.5-1.2-0.5c-0.4,0-0.7,0.1-1,0.2c-0.3,0.2-0.5,0.4-0.7,0.7v4.4
			L170,114.5L170,114.5z"/>
		<path class="st0" d="M177,107.3c-0.2,0-0.3-0.1-0.4-0.2c-0.1-0.1-0.2-0.3-0.2-0.4c0-0.2,0.1-0.3,0.2-0.4c0.1-0.1,0.3-0.2,0.4-0.2
			c0.2,0,0.3,0.1,0.4,0.2c0.1,0.1,0.2,0.3,0.2,0.4c0,0.2-0.1,0.3-0.2,0.4C177.4,107.3,177.2,107.3,177,107.3z M176.6,114.5v-6h0.9v6
			H176.6z"/>
		<path class="st0" d="M179,117v-8.5h0.9v0.7c0.5-0.5,1.2-0.7,2-0.7c0.6,0,1.1,0.1,1.5,0.4c0.5,0.3,0.8,0.6,1.1,1.1s0.4,1,0.4,1.6
			s-0.1,1.1-0.4,1.6c-0.3,0.5-0.6,0.8-1.1,1.1c-0.5,0.3-1,0.4-1.6,0.4c-0.4,0-0.7-0.1-1-0.2s-0.6-0.3-0.9-0.5v3.1L179,117L179,117z
			 M181.8,113.8c0.4,0,0.8-0.1,1.1-0.3c0.3-0.2,0.6-0.5,0.8-0.8s0.3-0.7,0.3-1.2c0-0.4-0.1-0.8-0.3-1.2c-0.2-0.4-0.5-0.6-0.8-0.8
			c-0.3-0.2-0.7-0.3-1.1-0.3c-0.4,0-0.7,0.1-1.1,0.2s-0.6,0.4-0.8,0.6v3c0.2,0.3,0.5,0.5,0.8,0.6C181,113.8,181.4,113.8,181.8,113.8
			z"/>
		<path class="st0" d="M191.5,114.6c-0.6,0-1.1-0.1-1.5-0.4s-0.8-0.7-1.1-1.1c-0.3-0.5-0.4-1-0.4-1.6s0.1-1.1,0.4-1.6
			c0.3-0.5,0.6-0.8,1.1-1.1s1-0.4,1.5-0.4c0.4,0,0.7,0.1,1,0.2s0.6,0.3,0.9,0.5v-3l0.9-0.2v8.6h-0.9v-0.6
			C192.9,114.4,192.2,114.6,191.5,114.6z M191.6,113.8c0.4,0,0.7-0.1,1.1-0.2c0.3-0.1,0.6-0.4,0.8-0.6v-3c-0.2-0.3-0.5-0.5-0.8-0.6
			s-0.7-0.2-1.1-0.2c-0.4,0-0.8,0.1-1.1,0.3c-0.3,0.2-0.6,0.5-0.8,0.8s-0.3,0.7-0.3,1.2c0,0.4,0.1,0.8,0.3,1.2
			c0.2,0.4,0.5,0.6,0.8,0.8C190.8,113.7,191.1,113.8,191.6,113.8z"/>
		<path class="st0" d="M198.6,114.6c-0.6,0-1.1-0.1-1.6-0.4s-0.8-0.7-1.1-1.1c-0.3-0.5-0.4-1-0.4-1.6s0.1-1.1,0.4-1.6
			c0.3-0.5,0.6-0.8,1.1-1.1s1-0.4,1.5-0.4s1,0.1,1.5,0.4s0.8,0.7,1,1.1c0.3,0.5,0.4,1,0.4,1.6v0.3h-5c0,0.4,0.2,0.7,0.4,1.1
			c0.2,0.3,0.5,0.6,0.8,0.7c0.3,0.2,0.7,0.3,1.1,0.3c0.3,0,0.6,0,0.9-0.1c0.3-0.1,0.5-0.2,0.7-0.4l0.6,0.6c-0.3,0.2-0.7,0.4-1.1,0.6
			C199.5,114.6,199.1,114.6,198.6,114.6z M196.4,111.1h4c0-0.4-0.2-0.7-0.4-1s-0.4-0.5-0.7-0.7s-0.6-0.2-0.9-0.2
			c-0.3,0-0.7,0.1-1,0.2c-0.3,0.2-0.5,0.4-0.7,0.7C196.6,110.4,196.5,110.7,196.4,111.1z"/>
		<path class="st0" d="M204.5,114.5l-2.6-6h1l2.1,4.9l2.1-4.9h1l-2.6,6H204.5z"/>
		<path class="st0" d="M211.6,114.6c-0.6,0-1.1-0.1-1.6-0.4s-0.8-0.7-1.1-1.1c-0.3-0.5-0.4-1-0.4-1.6s0.1-1.1,0.4-1.6
			c0.3-0.5,0.6-0.8,1.1-1.1s1-0.4,1.5-0.4s1,0.1,1.5,0.4s0.8,0.7,1,1.1c0.3,0.5,0.4,1,0.4,1.6v0.3h-5c0,0.4,0.2,0.7,0.4,1.1
			c0.2,0.3,0.5,0.6,0.8,0.7c0.3,0.2,0.7,0.3,1.1,0.3c0.3,0,0.6,0,0.9-0.1c0.3-0.1,0.5-0.2,0.7-0.4l0.6,0.6c-0.3,0.2-0.7,0.4-1.1,0.6
			C212.5,114.6,212.1,114.6,211.6,114.6z M209.4,111.1h4c0-0.4-0.2-0.7-0.4-1s-0.4-0.5-0.7-0.7s-0.6-0.2-0.9-0.2
			c-0.3,0-0.7,0.1-1,0.2c-0.3,0.2-0.5,0.4-0.7,0.7C209.6,110.4,209.5,110.7,209.4,111.1z"/>
		<path class="st0" d="M215.6,114.5v-8.4l0.9-0.2v8.6H215.6z"/>
		<path class="st0" d="M220.8,114.7c-0.6,0-1.1-0.1-1.6-0.4s-0.8-0.7-1.1-1.1s-0.4-1-0.4-1.6s0.1-1.1,0.4-1.6
			c0.3-0.5,0.6-0.8,1.1-1.1c0.5-0.3,1-0.4,1.6-0.4s1.1,0.1,1.6,0.4s0.8,0.7,1.1,1.1c0.3,0.5,0.4,1,0.4,1.6s-0.1,1.1-0.4,1.6
			c-0.3,0.5-0.6,0.8-1.1,1.1C221.9,114.5,221.4,114.7,220.8,114.7z M220.8,113.9c0.4,0,0.8-0.1,1.1-0.3c0.3-0.2,0.6-0.5,0.8-0.8
			c0.2-0.4,0.3-0.7,0.3-1.2c0-0.4-0.1-0.8-0.3-1.2s-0.5-0.6-0.8-0.8c-0.3-0.2-0.7-0.3-1.1-0.3c-0.4,0-0.8,0.1-1.1,0.3
			s-0.6,0.5-0.8,0.8s-0.3,0.7-0.3,1.2c0,0.4,0.1,0.8,0.3,1.2c0.2,0.4,0.5,0.6,0.8,0.8S220.4,113.9,220.8,113.9z"/>
		<path class="st0" d="M225.1,117v-8.5h0.9v0.7c0.5-0.5,1.2-0.7,2-0.7c0.6,0,1.1,0.1,1.5,0.4c0.5,0.3,0.8,0.6,1.1,1.1s0.4,1,0.4,1.6
			s-0.1,1.1-0.4,1.6c-0.3,0.5-0.6,0.8-1.1,1.1c-0.5,0.3-1,0.4-1.6,0.4c-0.4,0-0.7-0.1-1-0.2s-0.6-0.3-0.9-0.5v3.1L225.1,117
			L225.1,117z M227.9,113.8c0.4,0,0.8-0.1,1.1-0.3c0.3-0.2,0.6-0.5,0.8-0.8s0.3-0.7,0.3-1.2c0-0.4-0.1-0.8-0.3-1.2
			c-0.2-0.4-0.5-0.6-0.8-0.8c-0.3-0.2-0.7-0.3-1.1-0.3c-0.4,0-0.7,0.1-1.1,0.2s-0.6,0.4-0.8,0.6v3c0.2,0.3,0.5,0.5,0.8,0.6
			C227.2,113.8,227.5,113.8,227.9,113.8z"/>
		<path class="st0" d="M232.2,114.5v-6h0.9v0.7c0.5-0.5,1-0.8,1.8-0.8c0.4,0,0.8,0.1,1.1,0.3c0.3,0.2,0.6,0.5,0.8,0.8
			c0.2-0.4,0.5-0.6,0.9-0.8s0.7-0.3,1.2-0.3c0.4,0,0.8,0.1,1.2,0.3c0.3,0.2,0.6,0.5,0.8,0.8s0.3,0.8,0.3,1.2v3.8h-0.9v-3.6
			c0-0.5-0.1-1-0.4-1.3s-0.7-0.5-1.1-0.5c-0.3,0-0.6,0.1-0.9,0.2c-0.3,0.2-0.5,0.4-0.7,0.7c0,0.1,0,0.2,0,0.3c0,0.1,0,0.2,0,0.3v3.8
			h-0.9v-3.6c0-0.5-0.1-1-0.4-1.3s-0.7-0.5-1.1-0.5c-0.3,0-0.6,0.1-0.9,0.2c-0.3,0.1-0.5,0.4-0.7,0.7v4.5h-1V114.5z"/>
		<path class="st0" d="M245.4,114.6c-0.6,0-1.1-0.1-1.6-0.4s-0.8-0.7-1.1-1.1c-0.3-0.5-0.4-1-0.4-1.6s0.1-1.1,0.4-1.6
			c0.3-0.5,0.6-0.8,1.1-1.1s1-0.4,1.5-0.4s1,0.1,1.5,0.4s0.8,0.7,1,1.1c0.3,0.5,0.4,1,0.4,1.6v0.3h-5c0,0.4,0.2,0.7,0.4,1.1
			c0.2,0.3,0.5,0.6,0.8,0.7c0.3,0.2,0.7,0.3,1.1,0.3c0.3,0,0.6,0,0.9-0.1c0.3-0.1,0.5-0.2,0.7-0.4l0.6,0.6c-0.3,0.2-0.7,0.4-1.1,0.6
			C246.3,114.6,245.9,114.6,245.4,114.6z M243.2,111.1h4c0-0.4-0.2-0.7-0.4-1s-0.4-0.5-0.7-0.7s-0.6-0.2-0.9-0.2
			c-0.3,0-0.7,0.1-1,0.2c-0.3,0.2-0.5,0.4-0.7,0.7C243.4,110.4,243.3,110.7,243.2,111.1z"/>
		<path class="st0" d="M249.4,114.5v-6h0.9v0.7c0.5-0.6,1.1-0.8,1.9-0.8c0.5,0,0.9,0.1,1.2,0.3c0.3,0.2,0.6,0.5,0.8,0.8
			s0.3,0.8,0.3,1.2v3.8h-0.9v-3.6c0-0.5-0.2-1-0.5-1.3s-0.7-0.5-1.2-0.5c-0.4,0-0.7,0.1-1,0.2c-0.3,0.2-0.5,0.4-0.7,0.7v4.4h-0.8
			V114.5z"/>
		<path class="st0" d="M258.4,114.7c-0.5,0-0.9-0.1-1.2-0.4s-0.4-0.6-0.4-1.1v-3.9h-1.3v-0.8h1.3V107l0.9-0.2v1.8h1.8v0.8h-1.8v3.7
			c0,0.3,0.1,0.6,0.2,0.7s0.4,0.2,0.7,0.2c0.2,0,0.3,0,0.5,0c0.1,0,0.3-0.1,0.4-0.1v0.8c-0.2,0.1-0.3,0.1-0.5,0.1
			C258.7,114.6,258.6,114.7,258.4,114.7z"/>
	</g>
</g>
<g>
	<path class="st0" d="M5.3,104.1c-0.6,0-1.1-0.1-1.7-0.3c-0.5-0.2-1-0.5-1.4-0.9c-0.4-0.4-0.7-0.8-0.9-1.3c-0.2-0.5-0.3-1-0.3-1.6
		c0-0.6,0.1-1.1,0.3-1.6c0.2-0.5,0.5-0.9,0.9-1.3s0.8-0.7,1.4-0.9c0.5-0.2,1.1-0.3,1.7-0.3c0.4,0,0.9,0.1,1.3,0.2
		c0.4,0.1,0.8,0.3,1.1,0.5c0.4,0.2,0.7,0.5,0.9,0.8l-1.1,1.1c-0.3-0.4-0.6-0.6-1-0.8c-0.4-0.2-0.8-0.3-1.2-0.3c-0.4,0-0.7,0.1-1,0.2
		s-0.6,0.3-0.8,0.5c-0.2,0.2-0.4,0.5-0.5,0.8s-0.2,0.7-0.2,1c0,0.4,0.1,0.7,0.2,1c0.1,0.3,0.3,0.6,0.5,0.8c0.2,0.2,0.5,0.4,0.8,0.5
		s0.7,0.2,1,0.2c0.4,0,0.8-0.1,1.2-0.3c0.4-0.2,0.7-0.4,1-0.8l1.1,1.1c-0.3,0.3-0.5,0.6-0.9,0.8c-0.3,0.2-0.7,0.4-1.1,0.5
		C6.1,104,5.7,104.1,5.3,104.1z"/>
	<path class="st0" d="M13.3,104.1c-0.6,0-1.1-0.1-1.7-0.3c-0.5-0.2-1-0.5-1.3-0.9c-0.4-0.4-0.7-0.8-0.9-1.3c-0.2-0.5-0.3-1-0.3-1.6
		c0-0.6,0.1-1.1,0.3-1.6c0.2-0.5,0.5-0.9,0.9-1.3s0.8-0.7,1.3-0.9c0.5-0.2,1.1-0.3,1.7-0.3c0.6,0,1.1,0.1,1.6,0.3s1,0.5,1.3,0.9
		s0.7,0.8,0.9,1.3c0.2,0.5,0.3,1,0.3,1.6c0,0.6-0.1,1.1-0.3,1.6c-0.2,0.5-0.5,0.9-0.9,1.3c-0.4,0.4-0.8,0.7-1.3,0.9
		S13.9,104.1,13.3,104.1z M13.3,102.6c0.4,0,0.7-0.1,1-0.2c0.3-0.1,0.6-0.3,0.8-0.5c0.2-0.2,0.4-0.5,0.5-0.8s0.2-0.7,0.2-1
		c0-0.4-0.1-0.7-0.2-1s-0.3-0.6-0.5-0.8c-0.2-0.2-0.5-0.4-0.8-0.5c-0.3-0.1-0.6-0.2-1-0.2c-0.4,0-0.7,0.1-1,0.2
		c-0.3,0.1-0.6,0.3-0.8,0.5c-0.2,0.2-0.4,0.5-0.5,0.8s-0.2,0.6-0.2,1c0,0.4,0.1,0.7,0.2,1s0.3,0.6,0.5,0.8c0.2,0.2,0.5,0.4,0.8,0.5
		C12.6,102.5,12.9,102.6,13.3,102.6z"/>
	<path class="st0" d="M18.6,103.9v-8h1.6l4,5.2V96h1.6v8h-1.5l-4.1-5.3v5.3H18.6z"/>
	<path class="st0" d="M27.2,103.9v-8h1.6l4,5.2V96h1.6v8h-1.5l-4.1-5.3v5.3H27.2z"/>
	<path class="st0" d="M35.7,103.9v-8h6.1v1.4h-4.5v1.8h3v1.4h-3v1.9h4.5v1.4H35.7z"/>
	<path class="st0" d="M46.5,104.1c-0.6,0-1.1-0.1-1.7-0.3c-0.5-0.2-1-0.5-1.4-0.9c-0.4-0.4-0.7-0.8-0.9-1.3c-0.2-0.5-0.3-1-0.3-1.6
		c0-0.6,0.1-1.1,0.3-1.6c0.2-0.5,0.5-0.9,0.9-1.3s0.8-0.7,1.4-0.9c0.5-0.2,1.1-0.3,1.7-0.3c0.4,0,0.9,0.1,1.3,0.2
		c0.4,0.1,0.8,0.3,1.1,0.5c0.4,0.2,0.7,0.5,0.9,0.8l-1.1,1.1c-0.3-0.4-0.6-0.6-1-0.8c-0.4-0.2-0.8-0.3-1.2-0.3c-0.4,0-0.7,0.1-1,0.2
		s-0.6,0.3-0.8,0.5c-0.2,0.2-0.4,0.5-0.5,0.8s-0.2,0.7-0.2,1c0,0.4,0.1,0.7,0.2,1c0.1,0.3,0.3,0.6,0.5,0.8c0.2,0.2,0.5,0.4,0.8,0.5
		s0.7,0.2,1,0.2c0.4,0,0.8-0.1,1.2-0.3c0.4-0.2,0.7-0.4,1-0.8l1.1,1.1c-0.3,0.3-0.5,0.6-0.9,0.8c-0.3,0.2-0.7,0.4-1.1,0.5
		C47.4,104,46.9,104.1,46.5,104.1z"/>
	<path class="st0" d="M53.1,103.9v-6.5h-2.7V96h7v1.5h-2.7v6.5H53.1z"/>
	<path class="st0" d="M58.3,103.9v-8H60v8H58.3z"/>
	<path class="st0" d="M65.3,104.1c-0.6,0-1.1-0.1-1.7-0.3c-0.5-0.2-1-0.5-1.3-0.9c-0.4-0.4-0.7-0.8-0.9-1.3c-0.2-0.5-0.3-1-0.3-1.6
		c0-0.6,0.1-1.1,0.3-1.6c0.2-0.5,0.5-0.9,0.9-1.3s0.8-0.7,1.3-0.9c0.5-0.2,1.1-0.3,1.7-0.3c0.6,0,1.1,0.1,1.6,0.3s1,0.5,1.3,0.9
		s0.7,0.8,0.9,1.3c0.2,0.5,0.3,1,0.3,1.6c0,0.6-0.1,1.1-0.3,1.6c-0.2,0.5-0.5,0.9-0.9,1.3c-0.4,0.4-0.8,0.7-1.3,0.9
		S65.9,104.1,65.3,104.1z M65.3,102.6c0.4,0,0.7-0.1,1-0.2c0.3-0.1,0.6-0.3,0.8-0.5c0.2-0.2,0.4-0.5,0.5-0.8s0.2-0.7,0.2-1
		c0-0.4-0.1-0.7-0.2-1s-0.3-0.6-0.5-0.8c-0.2-0.2-0.5-0.4-0.8-0.5c-0.3-0.1-0.6-0.2-1-0.2c-0.4,0-0.7,0.1-1,0.2
		c-0.3,0.1-0.6,0.3-0.8,0.5c-0.2,0.2-0.4,0.5-0.5,0.8s-0.2,0.6-0.2,1c0,0.4,0.1,0.7,0.2,1s0.3,0.6,0.5,0.8c0.2,0.2,0.5,0.4,0.8,0.5
		C64.7,102.5,65,102.6,65.3,102.6z"/>
	<path class="st0" d="M70.7,103.9v-8h1.6l4,5.2V96h1.6v8h-1.5l-4.1-5.3v5.3H70.7z"/>
	<path class="st0" d="M81.5,103.9v-8h6.1v1.4h-4.5v1.8h3v1.4h-3v1.9h4.5v1.4H81.5z"/>
	<path class="st0" d="M91.4,103.9l-3.2-8h1.8l2.4,6.3l2.5-6.3h1.7l-3.3,8H91.4z"/>
	<path class="st0" d="M100.7,104.1c-0.6,0-1.1-0.1-1.7-0.3c-0.5-0.2-1-0.5-1.3-0.9c-0.4-0.4-0.7-0.8-0.9-1.3c-0.2-0.5-0.3-1-0.3-1.6
		c0-0.6,0.1-1.1,0.3-1.6c0.2-0.5,0.5-0.9,0.9-1.3s0.8-0.7,1.3-0.9c0.5-0.2,1.1-0.3,1.7-0.3c0.6,0,1.1,0.1,1.6,0.3s1,0.5,1.3,0.9
		s0.7,0.8,0.9,1.3c0.2,0.5,0.3,1,0.3,1.6c0,0.6-0.1,1.1-0.3,1.6c-0.2,0.5-0.5,0.9-0.9,1.3c-0.4,0.4-0.8,0.7-1.3,0.9
		S101.3,104.1,100.7,104.1z M100.7,102.6c0.4,0,0.7-0.1,1-0.2c0.3-0.1,0.6-0.3,0.8-0.5c0.2-0.2,0.4-0.5,0.5-0.8s0.2-0.7,0.2-1
		c0-0.4-0.1-0.7-0.2-1s-0.3-0.6-0.5-0.8c-0.2-0.2-0.5-0.4-0.8-0.5c-0.3-0.1-0.6-0.2-1-0.2c-0.4,0-0.7,0.1-1,0.2
		c-0.3,0.1-0.6,0.3-0.8,0.5c-0.2,0.2-0.4,0.5-0.5,0.8s-0.2,0.6-0.2,1c0,0.4,0.1,0.7,0.2,1s0.3,0.6,0.5,0.8c0.2,0.2,0.5,0.4,0.8,0.5
		C100,102.5,100.4,102.6,100.7,102.6z"/>
	<path class="st0" d="M106.1,103.9v-8h1.7v6.5h4.4v1.5H106.1z"/>
	<path class="st0" d="M116.2,104.1c-0.7,0-1.3-0.1-1.9-0.4c-0.5-0.3-0.9-0.7-1.2-1.2c-0.3-0.5-0.4-1.2-0.4-1.9V96h1.6v4.5
		c0,0.4,0.1,0.8,0.2,1.1s0.4,0.5,0.7,0.7c0.3,0.2,0.6,0.2,1,0.2c0.4,0,0.7-0.1,1-0.2c0.3-0.2,0.5-0.4,0.6-0.7
		c0.2-0.3,0.2-0.7,0.2-1.1V96h1.7v4.5c0,0.7-0.1,1.4-0.4,1.9c-0.3,0.5-0.7,1-1.2,1.2C117.5,103.9,116.9,104.1,116.2,104.1z"/>
	<path class="st0" d="M123.2,103.9v-6.5h-2.7V96h7v1.5h-2.7v6.5H123.2z"/>
	<path class="st0" d="M128.5,103.9v-8h1.7v8H128.5z"/>
	<path class="st0" d="M135.5,104.1c-0.6,0-1.1-0.1-1.7-0.3c-0.5-0.2-1-0.5-1.3-0.9c-0.4-0.4-0.7-0.8-0.9-1.3c-0.2-0.5-0.3-1-0.3-1.6
		c0-0.6,0.1-1.1,0.3-1.6c0.2-0.5,0.5-0.9,0.9-1.3s0.8-0.7,1.3-0.9c0.5-0.2,1.1-0.3,1.7-0.3c0.6,0,1.1,0.1,1.6,0.3s1,0.5,1.3,0.9
		s0.7,0.8,0.9,1.3c0.2,0.5,0.3,1,0.3,1.6c0,0.6-0.1,1.1-0.3,1.6s-0.5,0.9-0.9,1.3c-0.4,0.4-0.8,0.7-1.3,0.9S136.1,104.1,135.5,104.1
		z M135.5,102.6c0.4,0,0.7-0.1,1-0.2c0.3-0.1,0.6-0.3,0.8-0.5c0.2-0.2,0.4-0.5,0.5-0.8c0.1-0.3,0.2-0.7,0.2-1c0-0.4-0.1-0.7-0.2-1
		c-0.1-0.3-0.3-0.6-0.5-0.8c-0.2-0.2-0.5-0.4-0.8-0.5c-0.3-0.1-0.6-0.2-1-0.2c-0.4,0-0.7,0.1-1,0.2s-0.6,0.3-0.8,0.5
		c-0.2,0.2-0.4,0.5-0.5,0.8s-0.2,0.6-0.2,1c0,0.4,0.1,0.7,0.2,1s0.3,0.6,0.5,0.8c0.2,0.2,0.5,0.4,0.8,0.5
		C134.8,102.5,135.1,102.6,135.5,102.6z"/>
	<path class="st0" d="M140.9,103.9v-8h1.6l4,5.2V96h1.6v8h-1.5l-4.1-5.3v5.3H140.9z"/>
	<path class="st0" d="M153.9,103.9v-6.5h-2.7V96h7v1.5h-2.7v6.5H153.9z"/>
	<path class="st0" d="M159.1,103.9v-8h3.9c0.5,0,1,0.1,1.4,0.3s0.7,0.5,1,0.9c0.2,0.4,0.3,0.8,0.3,1.3c0,0.5-0.1,0.9-0.4,1.3
		c-0.3,0.4-0.7,0.7-1.1,0.9l1.8,3.3h-1.8l-1.6-3.1h-1.8v3.1H159.1z M160.8,99.5h2.1c0.4,0,0.7-0.1,0.9-0.3c0.2-0.2,0.3-0.5,0.3-0.8
		c0-0.3-0.1-0.6-0.3-0.8c-0.2-0.2-0.5-0.3-0.9-0.3h-2.1V99.5z"/>
	<path class="st0" d="M166.2,103.9l3.3-8h1.9l3.2,8h-1.8l-0.8-2.1h-3.3l-0.8,2.1H166.2z M169.2,100.5h2.3l-1.1-2.9L169.2,100.5z"/>
	<path class="st0" d="M175.3,103.9v-8h1.6l4,5.2V96h1.6v8h-1.5l-4.1-5.3v5.3H175.3z"/>
	<path class="st0" d="M186.7,104.1c-0.6,0-1.3-0.1-1.9-0.4s-1.2-0.6-1.6-1l0.9-1.2c0.5,0.4,0.9,0.7,1.3,0.9c0.4,0.2,0.9,0.3,1.4,0.3
		c0.3,0,0.6,0,0.9-0.1c0.2-0.1,0.4-0.2,0.6-0.3c0.1-0.2,0.2-0.3,0.2-0.5c0-0.3-0.1-0.5-0.3-0.6c-0.2-0.2-0.5-0.3-1-0.3l-1.6-0.3
		c-0.7-0.1-1.2-0.4-1.6-0.7c-0.4-0.4-0.5-0.8-0.5-1.4c0-0.5,0.1-0.9,0.4-1.3c0.3-0.4,0.6-0.6,1.1-0.8c0.5-0.2,1-0.3,1.7-0.3
		c0.6,0,1.2,0.1,1.8,0.3c0.6,0.2,1.1,0.5,1.5,0.8l-0.9,1.2c-0.8-0.6-1.7-1-2.5-1c-0.3,0-0.6,0-0.8,0.1s-0.4,0.2-0.5,0.3
		c-0.1,0.1-0.2,0.3-0.2,0.5c0,0.3,0.1,0.5,0.3,0.6s0.5,0.2,0.9,0.3l1.5,0.2c0.8,0.1,1.4,0.4,1.8,0.8c0.4,0.4,0.6,0.9,0.6,1.5
		c0,0.5-0.1,1-0.4,1.3c-0.3,0.4-0.7,0.7-1.2,0.9C188,104,187.4,104.1,186.7,104.1z"/>
	<path class="st0" d="M191,103.9v-8h6.2v1.4h-4.5v1.9h3v1.4h-3v3.3H191z"/>
	<path class="st0" d="M201.7,104.1c-0.6,0-1.1-0.1-1.7-0.3c-0.5-0.2-1-0.5-1.3-0.9c-0.4-0.4-0.7-0.8-0.9-1.3s-0.3-1-0.3-1.6
		c0-0.6,0.1-1.1,0.3-1.6c0.2-0.5,0.5-0.9,0.9-1.3s0.8-0.7,1.3-0.9c0.5-0.2,1.1-0.3,1.7-0.3c0.6,0,1.1,0.1,1.6,0.3s1,0.5,1.3,0.9
		s0.7,0.8,0.9,1.3c0.2,0.5,0.3,1,0.3,1.6c0,0.6-0.1,1.1-0.3,1.6s-0.5,0.9-0.9,1.3c-0.4,0.4-0.8,0.7-1.3,0.9S202.3,104.1,201.7,104.1
		z M201.7,102.6c0.4,0,0.7-0.1,1-0.2c0.3-0.1,0.6-0.3,0.8-0.5c0.2-0.2,0.4-0.5,0.5-0.8c0.1-0.3,0.2-0.7,0.2-1c0-0.4-0.1-0.7-0.2-1
		c-0.1-0.3-0.3-0.6-0.5-0.8c-0.2-0.2-0.5-0.4-0.8-0.5c-0.3-0.1-0.6-0.2-1-0.2c-0.4,0-0.7,0.1-1,0.2s-0.6,0.3-0.8,0.5
		c-0.2,0.2-0.4,0.5-0.5,0.8s-0.2,0.6-0.2,1c0,0.4,0.1,0.7,0.2,1s0.3,0.6,0.5,0.8c0.2,0.2,0.5,0.4,0.8,0.5
		C201,102.5,201.4,102.6,201.7,102.6z"/>
	<path class="st0" d="M207.1,103.9v-8h3.9c0.5,0,1,0.1,1.4,0.3s0.7,0.5,1,0.9c0.2,0.4,0.3,0.8,0.3,1.3c0,0.5-0.1,0.9-0.4,1.3
		c-0.3,0.4-0.7,0.7-1.1,0.9l1.8,3.3h-1.8l-1.6-3.1h-1.8v3.1H207.1z M208.7,99.5h2.1c0.4,0,0.7-0.1,0.9-0.3c0.2-0.2,0.3-0.5,0.3-0.8
		c0-0.3-0.1-0.6-0.3-0.8c-0.2-0.2-0.5-0.3-0.9-0.3h-2.1V99.5z"/>
	<path class="st0" d="M214.8,103.9v-8h2.1l2.2,4.3l2.2-4.3h2.1v8h-1.6v-5.9l-2.8,5.3l-2.8-5.3v5.9H214.8z"/>
	<path class="st0" d="M224.1,103.9l3.3-8h1.9l3.2,8h-1.8l-0.8-2.1h-3.3l-0.8,2.1H224.1z M227.2,100.5h2.3l-1.1-2.9L227.2,100.5z"/>
	<path class="st0" d="M233.9,103.9v-6.5h-2.7V96h7v1.5h-2.7v6.5H233.9z"/>
	<path class="st0" d="M239.2,103.9v-8h1.7v8H239.2z"/>
	<path class="st0" d="M246.2,104.1c-0.6,0-1.1-0.1-1.7-0.3c-0.5-0.2-1-0.5-1.3-0.9c-0.4-0.4-0.7-0.8-0.9-1.3s-0.3-1-0.3-1.6
		c0-0.6,0.1-1.1,0.3-1.6c0.2-0.5,0.5-0.9,0.9-1.3s0.8-0.7,1.3-0.9c0.5-0.2,1.1-0.3,1.7-0.3c0.6,0,1.1,0.1,1.6,0.3s1,0.5,1.3,0.9
		s0.7,0.8,0.9,1.3c0.2,0.5,0.3,1,0.3,1.6c0,0.6-0.1,1.1-0.3,1.6s-0.5,0.9-0.9,1.3c-0.4,0.4-0.8,0.7-1.3,0.9S246.8,104.1,246.2,104.1
		z M246.2,102.6c0.4,0,0.7-0.1,1-0.2c0.3-0.1,0.6-0.3,0.8-0.5c0.2-0.2,0.4-0.5,0.5-0.8c0.1-0.3,0.2-0.7,0.2-1c0-0.4-0.1-0.7-0.2-1
		c-0.1-0.3-0.3-0.6-0.5-0.8c-0.2-0.2-0.5-0.4-0.8-0.5c-0.3-0.1-0.6-0.2-1-0.2c-0.4,0-0.7,0.1-1,0.2s-0.6,0.3-0.8,0.5
		c-0.2,0.2-0.4,0.5-0.5,0.8s-0.2,0.6-0.2,1c0,0.4,0.1,0.7,0.2,1s0.3,0.6,0.5,0.8c0.2,0.2,0.5,0.4,0.8,0.5
		C245.5,102.5,245.8,102.6,246.2,102.6z"/>
	<path class="st0" d="M251.6,103.9v-8h1.6l4,5.2V96h1.6v8h-1.5l-4.1-5.3v5.3H251.6z"/>
</g>
</svg>
