<svg width="57" height="56" viewBox="0 0 57 56" fill="none" xmlns="http://www.w3.org/2000/svg">
<rect x="0.5" width="56" height="56" rx="28" fill="#E0CF6F"/>
<g clip-path="url(#clip0_12_1132)">
<path d="M30.5 30.252V32.342C29.5949 32.022 28.6263 31.9239 27.6754 32.0558C26.7245 32.1877 25.8192 32.5459 25.0354 33.1002C24.2517 33.6545 23.6123 34.3888 23.1712 35.2414C22.73 36.094 22.4998 37.04 22.5 38L20.5 37.999C20.4997 36.7779 20.7789 35.5729 21.3163 34.4764C21.8537 33.3799 22.6349 32.4209 23.6002 31.673C24.5655 30.9251 25.6892 30.4081 26.8852 30.1616C28.0811 29.9152 29.3177 29.9457 30.5 30.251V30.252ZM28.5 29C25.185 29 22.5 26.315 22.5 23C22.5 19.685 25.185 17 28.5 17C31.815 17 34.5 19.685 34.5 23C34.5 26.315 31.815 29 28.5 29ZM28.5 27C30.71 27 32.5 25.21 32.5 23C32.5 20.79 30.71 19 28.5 19C26.29 19 24.5 20.79 24.5 23C24.5 25.21 26.29 27 28.5 27ZM34.293 35.914L37.828 32.379L39.243 33.793L34.293 38.743L30.757 35.207L32.172 33.793L34.292 35.914H34.293Z" fill="#05040D"/>
</g>
<defs>
<clipPath id="clip0_12_1132">
<rect width="24" height="24" fill="white" transform="translate(16.5 16)"/>
</clipPath>
</defs>
</svg>
