<svg width="57" height="56" viewBox="0 0 57 56" fill="none" xmlns="http://www.w3.org/2000/svg">
<rect x="0.5" width="56" height="56" rx="28" fill="#E0CF6F"/>
<g clip-path="url(#clip0_12_1125)">
<path d="M28.5 38C22.977 38 18.5 33.523 18.5 28C18.5 22.477 22.977 18 28.5 18C34.023 18 38.5 22.477 38.5 28C38.5 33.523 34.023 38 28.5 38ZM28.5 36C30.6217 36 32.6566 35.1571 34.1569 33.6569C35.6571 32.1566 36.5 30.1217 36.5 28C36.5 25.8783 35.6571 23.8434 34.1569 22.3431C32.6566 20.8429 30.6217 20 28.5 20C26.3783 20 24.3434 20.8429 22.8431 22.3431C21.3429 23.8434 20.5 25.8783 20.5 28C20.5 30.1217 21.3429 32.1566 22.8431 33.6569C24.3434 35.1571 26.3783 36 28.5 36ZM29.5 28H33.5V30H27.5V23H29.5V28Z" fill="#05040D"/>
</g>
<defs>
<clipPath id="clip0_12_1125">
<rect width="24" height="24" fill="white" transform="translate(16.5 16)"/>
</clipPath>
</defs>
</svg>
