<svg width="168" height="167" viewBox="0 0 168 167" fill="none" xmlns="http://www.w3.org/2000/svg">
<circle cx="84" cy="83.5" r="83.5" fill="white"/>
<path d="M48.9004 61.8282C48.9004 61.8282 63.9187 78.1466 72.4892 75.9178C77.7695 74.8564 77.8756 75.5728 77.8756 75.5728C77.8756 75.5728 79.388 81.0919 80.4494 85.8946C81.5108 90.6972 77.9817 131.082 77.9817 131.082H85.597H89.5771C89.5771 131.082 86.7645 99.9842 86.5257 98.3391C86.2869 96.6939 98.1476 88.0173 98.8375 86.3722C98.8375 86.3722 114.572 87.6724 122.665 80.0305C122.665 80.0305 113.75 83.4269 104.012 82.4982C104.012 82.4982 115.979 69.7088 115.05 58.5645C115.05 58.5645 108.018 77.8017 87.5871 89.5297C87.5871 89.5297 84.7744 80.6143 90.3997 65.1184C96.0249 49.6225 112.105 50.3389 113.511 36.2493C113.511 36.2493 109.637 43.0421 100.828 47.6325C92.0182 52.2228 84.7479 61.9608 82.6517 68.9924C82.6517 68.9924 80.9005 59.4932 76.0713 55.4865C71.2686 51.5064 65.5107 36.2493 65.0331 31.0752C65.0331 31.0752 63.9717 50.0471 73.2587 59.2278C73.2587 59.2278 77.0265 62.6242 77.9552 69.4435C77.9552 69.4435 76.2039 71.0886 72.5688 71.0886C68.9336 71.0886 61.1061 70.7436 48.9004 61.8282Z" fill="#84904B"/>
<path d="M51.9254 57.9017V61.4308C51.3416 61.0328 50.7313 60.6082 50.1211 60.1571C49.8822 59.9979 49.6169 59.8653 49.3516 59.8122V57.9017C49.3516 57.1853 49.9353 56.6016 50.6517 56.6016C51.3416 56.6281 51.9254 57.1853 51.9254 57.9017Z" fill="#84904B"/>
<path d="M51.925 67.6931V91.8656C51.925 92.7147 51.1025 93.325 50.3065 93.1127H50.2799C49.7227 92.9535 49.3247 92.4494 49.3247 91.8656V65.252C50.0411 65.9418 50.9168 66.7909 51.925 67.6931Z" fill="#84904B"/>
<path d="M56.7808 40.9467V64.4558C55.9583 64.0048 55.1092 63.5006 54.207 62.9434V40.9467C54.207 40.2302 54.7908 39.6465 55.5072 39.6465C56.1971 39.673 56.7808 40.2302 56.7808 40.9467Z" fill="#84904B"/>
<path d="M56.7808 71.7786V93.2447C56.7808 94.0938 55.9583 94.7041 55.1623 94.4918C54.605 94.3326 54.207 93.8284 54.207 93.2447V69.709C55.0296 70.3989 55.8787 71.0888 56.7808 71.7786Z" fill="#84904B"/>
<path d="M61.6636 36.6742V66.7904C60.8411 66.472 59.992 66.0739 59.0898 65.6494V36.6742C59.0898 35.9578 59.6736 35.374 60.39 35.374C61.0799 35.4006 61.6636 35.9843 61.6636 36.6742Z" fill="#84904B"/>
<path d="M61.6636 75.0963V94.5988C61.6636 95.4479 60.8411 96.0582 60.0451 95.8459C59.4879 95.6867 59.0898 95.1826 59.0898 94.5988V73.4512C59.9389 74.0084 60.788 74.5921 61.6636 75.0963Z" fill="#84904B"/>
<path d="M66.5191 25.9281V29.6163C66.1476 29.2449 65.617 29.0326 65.0597 29.0326C64.6617 29.0326 64.2637 29.1653 63.9453 29.3775V25.9281C63.9453 25.2117 64.5291 24.6279 65.2455 24.6279C65.9619 24.6545 66.5191 25.2117 66.5191 25.9281Z" fill="#84904B"/>
<path d="M66.5191 52.4622V68.3826C65.7231 68.1969 64.874 67.958 63.9453 67.6396V43.5732C64.476 46.4655 65.2986 49.5434 66.5191 52.4622Z" fill="#84904B"/>
<path d="M120.118 48.7201V78.6771C119.428 78.8893 118.553 79.1281 117.544 79.3669V48.7201C117.544 48.0037 118.128 47.4199 118.845 47.4199C119.534 47.4465 120.118 48.0037 120.118 48.7201Z" fill="#84904B"/>
<path d="M117.544 85.6563C118.42 85.2848 119.295 84.8603 120.118 84.4092V117.205C120.118 117.922 119.534 118.505 118.818 118.505C118.101 118.505 117.518 117.922 117.518 117.205V85.6563H117.544Z" fill="#84904B"/>
<path d="M125 61.6167V104.337C125 105.053 124.416 105.637 123.7 105.637C122.984 105.637 122.4 105.053 122.4 104.337V82.9236C123.01 82.4991 123.567 82.0214 124.098 81.4908C124.815 80.8274 124.947 79.7395 124.443 78.917C124.018 78.2005 123.196 77.8556 122.4 77.9883V61.5902C122.4 60.8738 122.984 60.29 123.7 60.29C124.416 60.3166 125 60.9003 125 61.6167Z" fill="#84904B"/>
<path d="M115.235 38.6641V56.495C114.306 56.4154 113.457 56.9726 113.139 57.8217C113.139 57.8482 112.98 58.2727 112.635 58.9892V44.5546C113.829 42.9095 114.731 40.9991 115.235 38.6641Z" fill="#84904B"/>
<path d="M115.235 68.8604V79.872C114.439 80.0312 113.564 80.1639 112.662 80.27V74.1406C113.617 72.4955 114.519 70.7177 115.235 68.8604Z" fill="#84904B"/>
<path d="M112.661 87.2215C113.51 87.0092 114.386 86.7704 115.235 86.4785V106.989C115.235 107.706 114.651 108.29 113.935 108.29C113.219 108.29 112.635 107.706 112.635 106.989V87.2215H112.661Z" fill="#84904B"/>
<path d="M110.38 47.2881V63.5535C109.664 64.8006 108.814 66.2334 107.806 67.7459V49.57C108.682 48.8536 109.557 48.1106 110.38 47.2881Z" fill="#84904B"/>
<path d="M110.38 77.7754V80.4819C109.716 80.5349 109.026 80.5615 108.336 80.588C108.947 79.7654 109.637 78.8102 110.38 77.7754Z" fill="#84904B"/>
<path d="M110.38 87.7256V112.906C110.38 113.623 109.796 114.207 109.079 114.207C108.363 114.207 107.779 113.623 107.779 112.906V88.1236C108.628 88.0175 109.504 87.8848 110.38 87.7256Z" fill="#84904B"/>
<path d="M105.498 24.6545V42.1404C104.728 42.7773 103.853 43.4141 102.924 44.0244V24.6545C102.924 23.9381 103.508 23.3809 104.224 23.3809C104.914 23.3809 105.498 23.9646 105.498 24.6545Z" fill="#84904B"/>
<path d="M105.498 51.2939V70.9557C104.702 71.9905 103.853 73.0519 102.924 74.1398V53.1513C103.375 52.8329 103.826 52.488 104.304 52.1696C104.702 51.8777 105.1 51.5858 105.498 51.2939Z" fill="#84904B"/>
<path d="M105.497 88.3359V104.628C105.497 105.344 104.913 105.928 104.197 105.928C103.48 105.928 102.896 105.344 102.896 104.628V88.4686C103.719 88.4421 104.568 88.4155 105.497 88.3359Z" fill="#84904B"/>
<path d="M66.5191 77.1385C65.67 76.9262 64.7944 76.6874 63.9453 76.3955V96.9063C63.9453 97.6228 64.5291 98.2065 65.2455 98.2065C65.9619 98.2065 66.5457 97.6228 66.5457 96.9063V77.1385H66.5191Z" fill="#84904B"/>
<path d="M68.8281 76.9795V102.16C68.8281 102.877 69.4119 103.46 70.1283 103.46C70.8447 103.46 71.4285 102.877 71.4285 102.16V77.3775C70.5528 77.2714 69.7037 77.1387 68.8281 76.9795Z" fill="#84904B"/>
<path d="M73.4448 77.6963V93.9882C73.4448 94.7046 74.0286 95.2884 74.745 95.2884C75.4614 95.2884 76.0452 94.7046 76.0452 93.9882V77.829C75.2226 77.829 74.3735 77.7759 73.4448 77.6963Z" fill="#84904B"/>
<path d="M100.642 19.6927V45.4573C100.429 45.59 100.191 45.6961 99.9518 45.8288C99.315 46.1472 98.6782 46.5187 98.0679 46.8902V19.6927C98.0679 18.9763 98.6516 18.3926 99.368 18.3926C100.084 18.3926 100.642 18.9763 100.642 19.6927Z" fill="#84904B"/>
<path d="M100.642 54.9033V76.6878C99.8191 77.5369 98.97 78.386 98.0679 79.2351V57.1322C98.8904 56.3362 99.7395 55.5932 100.642 54.9033Z" fill="#84904B"/>
<path d="M100.641 88.4688V108.767C100.641 109.484 100.058 110.067 99.3412 110.067C98.6248 110.067 98.041 109.484 98.041 108.767V90.1669C98.837 89.477 99.3943 88.9198 99.8453 88.4688C100.084 88.4688 100.349 88.4688 100.641 88.4688Z" fill="#84904B"/>
<path d="M95.7594 7.14197V48.4024C94.8837 49.0393 94.0081 49.7291 93.1855 50.4456V7.14197C93.1855 6.42555 93.7693 5.8418 94.4592 5.8418C95.1756 5.86833 95.7594 6.45208 95.7594 7.14197Z" fill="#84904B"/>
<path d="M95.7594 59.6797V81.305C94.9368 82.0214 94.0877 82.7113 93.1855 83.3746V63.8721C93.9285 62.28 94.8041 60.9003 95.7594 59.6797Z" fill="#84904B"/>
<path d="M95.7594 92.1572V96.1373C95.7594 96.8538 95.1756 97.4375 94.4592 97.4375C93.7428 97.4375 93.1855 96.8538 93.1855 96.1373V94.3596C93.8224 93.8023 94.4592 93.2717 94.9899 92.8206C95.2552 92.5818 95.5205 92.3695 95.7594 92.1572Z" fill="#84904B"/>
<path d="M90.878 15.8185V52.5947C89.9758 53.4968 89.1002 54.4255 88.3042 55.3807V15.845C88.3042 15.1286 88.8879 14.5448 89.6044 14.5448C90.3208 14.5183 90.878 15.102 90.878 15.8185Z" fill="#84904B"/>
<path d="M90.8774 70.4521V84.2764C90.8774 84.9928 90.2936 85.5766 89.5772 85.5766C89.3915 85.5766 89.2057 85.5235 89.0465 85.4704C88.8343 82.3394 88.9669 77.2449 90.8774 70.4521Z" fill="#84904B"/>
<path d="M71.4019 15.0492V44.1571C70.4202 41.9547 69.518 39.6463 68.8281 37.5235V15.0492C68.8281 14.3328 69.4119 13.749 70.1283 13.749C70.8182 13.749 71.4019 14.3328 71.4019 15.0492Z" fill="#84904B"/>
<path d="M71.4019 60.2105V69.0198C70.6855 68.9933 69.8364 68.9402 68.8281 68.8075V56.8672C69.5711 58.0612 70.4202 59.1756 71.4019 60.2105Z" fill="#84904B"/>
<path d="M75.7521 68.4359C75.2745 68.6482 74.5846 68.8604 73.709 68.9666V63.1025C74.4519 64.3762 75.2745 66.154 75.7521 68.4359Z" fill="#84904B"/>
<path d="M76.2828 24.9994V52.7275C75.4337 51.7192 74.5581 50.366 73.709 48.827V24.9994C73.709 24.283 74.2927 23.6992 75.0092 23.6992C75.699 23.6992 76.2828 24.283 76.2828 24.9994Z" fill="#84904B"/>
<path d="M81.1387 6.21326V58.5915C80.3958 57.2913 79.5732 56.0442 78.5649 55.0094V6.21326C78.5649 5.49684 79.1487 4.91309 79.8386 4.91309C80.555 4.91309 81.1387 5.49684 81.1387 6.21326Z" fill="#84904B"/>
<path d="M86.0225 20.9135V58.2734C85.0673 59.6001 84.1917 60.9534 83.4487 62.2801V20.9135C83.4487 20.197 84.0325 19.6133 84.7489 19.6133C85.4653 19.6133 86.0225 20.197 86.0225 20.9135Z" fill="#84904B"/>
</svg>
