<svg width="56" height="56" viewBox="0 0 56 56" fill="none" xmlns="http://www.w3.org/2000/svg">
<rect width="56" height="56" rx="28" fill="#84904B"/>
<g clip-path="url(#clip0_2514_2169)">
<path d="M21 25.0002C21.2652 25.0002 21.5196 25.1056 21.7071 25.2931C21.8946 25.4806 22 25.735 22 26.0002C23.5711 25.9979 25.097 26.5265 26.33 27.5002H28.5C29.832 27.5002 31.03 28.0792 31.853 28.9992L35 29.0002C35.9453 28.9999 36.8712 29.2676 37.6705 29.7722C38.4698 30.2769 39.1097 30.9977 39.516 31.8512C37.151 34.9722 33.322 37.0002 29 37.0002C26.21 37.0002 23.85 36.3972 21.94 35.3422C21.87 35.5353 21.7422 35.702 21.574 35.8198C21.4058 35.9376 21.2053 36.0005 21 36.0002H18C17.7348 36.0002 17.4804 35.8948 17.2929 35.7073C17.1054 35.5198 17 35.2654 17 35.0002V26.0002C17 25.735 17.1054 25.4806 17.2929 25.2931C17.4804 25.1056 17.7348 25.0002 18 25.0002H21ZM22.001 28.0002L22 33.0212L22.045 33.0542C23.84 34.3142 26.178 35.0002 29 35.0002C32.004 35.0002 34.799 33.8442 36.835 31.8702L36.968 31.7372L36.848 31.6372C36.3758 31.2674 35.8034 31.0479 35.205 31.0072L35 31.0002L32.888 30.9992C32.961 31.3212 33 31.6562 33 32.0002V33.0002H24V31.0002L30.79 30.9992L30.756 30.9212C30.5644 30.5207 30.2696 30.1785 29.9019 29.9297C29.5343 29.6808 29.107 29.5343 28.664 29.5052L28.5 29.5002H25.57C25.1053 29.0249 24.5503 28.6474 23.9375 28.3898C23.3248 28.1322 22.6667 27.9997 22.002 28.0002H22.001ZM20 27.0002H19V34.0002H20V27.0002ZM29.646 19.5752L30 19.9302L30.354 19.5762C30.5858 19.3424 30.8615 19.1567 31.1653 19.0298C31.469 18.9028 31.7949 18.8371 32.1241 18.8365C32.4533 18.8358 32.7795 18.9002 33.0837 19.0259C33.388 19.1516 33.6645 19.3361 33.8973 19.5689C34.13 19.8018 34.3145 20.0783 34.4401 20.3826C34.5657 20.6869 34.63 21.0131 34.6292 21.3423C34.6285 21.6715 34.5627 21.9973 34.4356 22.3011C34.3086 22.6048 34.1228 22.8805 33.889 23.1122L30 27.0002L26.11 23.1102C25.8762 22.8784 25.6905 22.6027 25.5636 22.2989C25.4366 21.9952 25.3709 21.6693 25.3703 21.3401C25.3696 21.0109 25.434 20.6847 25.5597 20.3805C25.6854 20.0762 25.8699 19.7997 26.1027 19.5669C26.3356 19.3342 26.6121 19.1497 26.9164 19.0241C27.2207 18.8985 27.5469 18.8342 27.8761 18.835C28.2053 18.8357 28.5311 18.9015 28.8349 19.0286C29.1386 19.1556 29.4143 19.3414 29.646 19.5752ZM27.526 20.9902C27.4431 21.0726 27.3917 21.1815 27.3808 21.2978C27.3698 21.4142 27.4 21.5308 27.466 21.6272L27.524 21.6962L30 24.1702L32.476 21.6962C32.5588 21.6135 32.61 21.5043 32.6206 21.3877C32.6312 21.2711 32.6006 21.1545 32.534 21.0582L32.476 20.9882C32.3931 20.9055 32.2839 20.8545 32.1673 20.8441C32.0507 20.8337 31.9342 20.8645 31.838 20.9312L31.768 20.9892L29.999 22.7572L28.232 20.9872L28.164 20.9312C28.0677 20.8646 27.9511 20.834 27.8345 20.8446C27.7179 20.8552 27.6087 20.9064 27.526 20.9892V20.9902Z" fill="white"/>
</g>
<defs>
<clipPath id="clip0_2514_2169">
<rect width="24" height="24" fill="white" transform="translate(16 16)"/>
</clipPath>
</defs>
</svg>
