<svg width="56" height="56" viewBox="0 0 56 56" fill="none" xmlns="http://www.w3.org/2000/svg">
<rect width="56" height="56" rx="28" fill="#84904B"/>
<g clip-path="url(#clip0_2514_2154)">
<mask id="path-2-outside-1_2514_2154" maskUnits="userSpaceOnUse" x="15.406" y="15" width="25" height="26" fill="black">
<rect fill="white" x="15.406" y="15" width="25" height="26"/>
<path d="M36.9817 24.3058C34.7829 21.1176 31.4873 18.9576 27.6847 18.2044C27.4287 17.6167 26.5839 16 25.038 16C24.8265 16 24.655 16.1715 24.655 16.383V19.2214L23.9419 19.9346V17.9643C23.9419 17.7528 23.7704 17.5813 23.5589 17.5813C23.3473 17.5813 23.1759 17.7528 23.1759 17.9643V20.7006L16.9554 26.9211C16.6011 27.2753 16.406 27.7463 16.406 28.2473C16.406 28.7482 16.6011 29.2192 16.9553 29.5734C17.3096 29.9276 17.7805 30.1227 18.2815 30.1227C18.7438 30.1227 19.1805 29.9566 19.5235 29.6525L24.0767 28.6033C24.9459 29.0319 25.9464 29.1926 26.9105 29.056C27.1303 29.0249 27.3454 28.9786 27.5556 28.9192C28.3475 28.6955 29.0655 28.2755 29.6583 27.6828C30.9003 26.4408 31.3748 24.6181 30.8965 22.9261C30.839 22.7225 30.6271 22.6042 30.4238 22.6617C30.2203 22.7193 30.1019 22.9309 30.1595 23.1344C30.5623 24.5598 30.1627 26.0951 29.1166 27.1413C27.8365 28.4213 25.9034 28.7105 24.3068 27.8607C24.2252 27.8173 24.1308 27.8049 24.0408 27.8256L19.2508 28.9294C19.1808 28.9455 19.1168 28.981 19.066 29.0318C18.6334 29.4644 17.9295 29.4644 17.4969 29.0318C17.2874 28.8222 17.172 28.5436 17.172 28.2472C17.172 27.9508 17.2874 27.6722 17.4969 27.4627L23.8294 21.1302C23.8299 21.1297 25.3088 19.6508 25.3088 19.6508C25.3806 19.579 25.4209 19.4816 25.4209 19.38V16.8214C26.4813 17.1328 27.0408 18.6524 27.0469 18.6695C27.0482 18.6729 27.0497 18.6759 27.051 18.6792C27.0537 18.6861 27.0565 18.693 27.0595 18.6998C27.0621 18.7054 27.0649 18.7108 27.0677 18.7163C27.0705 18.7216 27.0732 18.7269 27.0762 18.732C27.0798 18.7383 27.0836 18.7442 27.0875 18.7502C27.0903 18.7544 27.093 18.7585 27.096 18.7626C27.1003 18.7688 27.105 18.7748 27.1097 18.7807C27.1127 18.7843 27.1157 18.788 27.1188 18.7916C27.1237 18.7972 27.1288 18.8027 27.134 18.808C27.1376 18.8116 27.1412 18.8152 27.1449 18.8187C27.1499 18.8234 27.155 18.828 27.1602 18.8324C27.1647 18.8362 27.1692 18.8398 27.1739 18.8434C27.1787 18.8471 27.1836 18.8507 27.1886 18.8542C27.1939 18.8579 27.1994 18.8615 27.2049 18.865C27.2097 18.8679 27.2146 18.8708 27.2195 18.8735C27.2253 18.8769 27.2313 18.8801 27.2373 18.8831C27.2426 18.8856 27.2478 18.888 27.2531 18.8904C27.259 18.893 27.2649 18.8955 27.2709 18.8978C27.2772 18.9001 27.2835 18.9022 27.2898 18.9043C27.2951 18.906 27.3004 18.9078 27.3058 18.9092C27.3134 18.9113 27.3211 18.9131 27.3289 18.9147C27.3321 18.9154 27.3352 18.9163 27.3384 18.9169C29.1304 19.2461 30.8065 19.9042 32.3005 20.8458C33.8822 21.8428 35.2595 23.1578 36.3512 24.7407C38.4147 27.7327 39.2243 31.3383 38.6454 34.9262C37.9153 34.9501 37.2657 35.0551 36.6663 35.2153C36.5727 34.3792 36.244 33.6136 35.7475 32.986V29.2934C35.7475 29.0819 35.576 28.9104 35.3645 28.9104C35.1529 28.9104 34.9815 29.0819 34.9815 29.2934V32.2286C34.7442 32.0453 34.4877 31.8856 34.2155 31.7533V26.2295C34.2155 26.018 34.0441 25.8465 33.8326 25.8465C33.621 25.8465 33.4496 26.018 33.4496 26.2295V31.466C33.2021 31.3989 32.9463 31.3521 32.6836 31.3293V30.1144C32.6836 29.9029 32.5122 29.7314 32.3006 29.7314C32.089 29.7315 31.9176 29.903 31.9176 30.1144V31.6957C31.9176 31.9072 32.0891 32.0787 32.3006 32.0787C34.2149 32.0787 35.7866 33.5692 35.9187 35.4505C35.0268 35.7736 34.2305 36.2095 33.4114 36.6583C31.2616 37.8358 28.8316 39.1665 23.7006 39.2313C23.8064 37.2423 24.7184 35.7144 25.6809 34.1025C26.3749 32.9403 27.0924 31.7385 27.5826 30.2751C27.6498 30.0746 27.5417 29.8575 27.3412 29.7903C27.3391 29.7896 27.3369 29.7892 27.3348 29.7885C27.1359 29.7256 26.9228 29.8333 26.8564 30.0318C26.3924 31.4168 25.6963 32.5825 25.0232 33.7099C23.9438 35.5177 22.9243 37.2252 22.9243 39.617C22.9243 39.8285 23.0957 40 23.3072 40C28.9053 40 31.6079 38.5196 33.7794 37.33C35.389 36.4483 36.7792 35.6868 38.9689 35.6868C39.1537 35.6868 39.3122 35.5548 39.3456 35.373C40.06 31.4825 39.2206 27.5521 36.9817 24.3058Z"/>
</mask>
<path d="M36.9817 24.3058C34.7829 21.1176 31.4873 18.9576 27.6847 18.2044C27.4287 17.6167 26.5839 16 25.038 16C24.8265 16 24.655 16.1715 24.655 16.383V19.2214L23.9419 19.9346V17.9643C23.9419 17.7528 23.7704 17.5813 23.5589 17.5813C23.3473 17.5813 23.1759 17.7528 23.1759 17.9643V20.7006L16.9554 26.9211C16.6011 27.2753 16.406 27.7463 16.406 28.2473C16.406 28.7482 16.6011 29.2192 16.9553 29.5734C17.3096 29.9276 17.7805 30.1227 18.2815 30.1227C18.7438 30.1227 19.1805 29.9566 19.5235 29.6525L24.0767 28.6033C24.9459 29.0319 25.9464 29.1926 26.9105 29.056C27.1303 29.0249 27.3454 28.9786 27.5556 28.9192C28.3475 28.6955 29.0655 28.2755 29.6583 27.6828C30.9003 26.4408 31.3748 24.6181 30.8965 22.9261C30.839 22.7225 30.6271 22.6042 30.4238 22.6617C30.2203 22.7193 30.1019 22.9309 30.1595 23.1344C30.5623 24.5598 30.1627 26.0951 29.1166 27.1413C27.8365 28.4213 25.9034 28.7105 24.3068 27.8607C24.2252 27.8173 24.1308 27.8049 24.0408 27.8256L19.2508 28.9294C19.1808 28.9455 19.1168 28.981 19.066 29.0318C18.6334 29.4644 17.9295 29.4644 17.4969 29.0318C17.2874 28.8222 17.172 28.5436 17.172 28.2472C17.172 27.9508 17.2874 27.6722 17.4969 27.4627L23.8294 21.1302C23.8299 21.1297 25.3088 19.6508 25.3088 19.6508C25.3806 19.579 25.4209 19.4816 25.4209 19.38V16.8214C26.4813 17.1328 27.0408 18.6524 27.0469 18.6695C27.0482 18.6729 27.0497 18.6759 27.051 18.6792C27.0537 18.6861 27.0565 18.693 27.0595 18.6998C27.0621 18.7054 27.0649 18.7108 27.0677 18.7163C27.0705 18.7216 27.0732 18.7269 27.0762 18.732C27.0798 18.7383 27.0836 18.7442 27.0875 18.7502C27.0903 18.7544 27.093 18.7585 27.096 18.7626C27.1003 18.7688 27.105 18.7748 27.1097 18.7807C27.1127 18.7843 27.1157 18.788 27.1188 18.7916C27.1237 18.7972 27.1288 18.8027 27.134 18.808C27.1376 18.8116 27.1412 18.8152 27.1449 18.8187C27.1499 18.8234 27.155 18.828 27.1602 18.8324C27.1647 18.8362 27.1692 18.8398 27.1739 18.8434C27.1787 18.8471 27.1836 18.8507 27.1886 18.8542C27.1939 18.8579 27.1994 18.8615 27.2049 18.865C27.2097 18.8679 27.2146 18.8708 27.2195 18.8735C27.2253 18.8769 27.2313 18.8801 27.2373 18.8831C27.2426 18.8856 27.2478 18.888 27.2531 18.8904C27.259 18.893 27.2649 18.8955 27.2709 18.8978C27.2772 18.9001 27.2835 18.9022 27.2898 18.9043C27.2951 18.906 27.3004 18.9078 27.3058 18.9092C27.3134 18.9113 27.3211 18.9131 27.3289 18.9147C27.3321 18.9154 27.3352 18.9163 27.3384 18.9169C29.1304 19.2461 30.8065 19.9042 32.3005 20.8458C33.8822 21.8428 35.2595 23.1578 36.3512 24.7407C38.4147 27.7327 39.2243 31.3383 38.6454 34.9262C37.9153 34.9501 37.2657 35.0551 36.6663 35.2153C36.5727 34.3792 36.244 33.6136 35.7475 32.986V29.2934C35.7475 29.0819 35.576 28.9104 35.3645 28.9104C35.1529 28.9104 34.9815 29.0819 34.9815 29.2934V32.2286C34.7442 32.0453 34.4877 31.8856 34.2155 31.7533V26.2295C34.2155 26.018 34.0441 25.8465 33.8326 25.8465C33.621 25.8465 33.4496 26.018 33.4496 26.2295V31.466C33.2021 31.3989 32.9463 31.3521 32.6836 31.3293V30.1144C32.6836 29.9029 32.5122 29.7314 32.3006 29.7314C32.089 29.7315 31.9176 29.903 31.9176 30.1144V31.6957C31.9176 31.9072 32.0891 32.0787 32.3006 32.0787C34.2149 32.0787 35.7866 33.5692 35.9187 35.4505C35.0268 35.7736 34.2305 36.2095 33.4114 36.6583C31.2616 37.8358 28.8316 39.1665 23.7006 39.2313C23.8064 37.2423 24.7184 35.7144 25.6809 34.1025C26.3749 32.9403 27.0924 31.7385 27.5826 30.2751C27.6498 30.0746 27.5417 29.8575 27.3412 29.7903C27.3391 29.7896 27.3369 29.7892 27.3348 29.7885C27.1359 29.7256 26.9228 29.8333 26.8564 30.0318C26.3924 31.4168 25.6963 32.5825 25.0232 33.7099C23.9438 35.5177 22.9243 37.2252 22.9243 39.617C22.9243 39.8285 23.0957 40 23.3072 40C28.9053 40 31.6079 38.5196 33.7794 37.33C35.389 36.4483 36.7792 35.6868 38.9689 35.6868C39.1537 35.6868 39.3122 35.5548 39.3456 35.373C40.06 31.4825 39.2206 27.5521 36.9817 24.3058Z" fill="white"/>
<path d="M36.9817 24.3058L36.817 24.4193L36.817 24.4193L36.9817 24.3058ZM27.6847 18.2044L27.5013 18.2843L27.5431 18.3802L27.6458 18.4006L27.6847 18.2044ZM24.655 19.2214L24.7965 19.3629L24.855 19.3043V19.2214H24.655ZM23.9419 19.9346H23.7419V20.4174L24.0833 20.076L23.9419 19.9346ZM23.1759 20.7006L23.3173 20.842L23.3759 20.7834V20.7006H23.1759ZM16.9554 26.9211L17.0968 27.0625L17.0968 27.0625L16.9554 26.9211ZM16.9553 29.5734L16.8139 29.7148L16.8139 29.7148L16.9553 29.5734ZM19.5235 29.6525L19.4786 29.4576L19.429 29.4691L19.3909 29.5029L19.5235 29.6525ZM24.0767 28.6033L24.1651 28.4239L24.1012 28.3924L24.0318 28.4084L24.0767 28.6033ZM26.9105 29.056L26.8825 28.858L26.8825 28.858L26.9105 29.056ZM27.5556 28.9192L27.5012 28.7267L27.5012 28.7267L27.5556 28.9192ZM29.6583 27.6828L29.7997 27.8243L29.7997 27.8243L29.6583 27.6828ZM30.8965 22.9261L30.7041 22.9805L30.7041 22.9805L30.8965 22.9261ZM30.4238 22.6617L30.4782 22.8542L30.4782 22.8542L30.4238 22.6617ZM30.1595 23.1344L30.3519 23.08L30.3519 23.08L30.1595 23.1344ZM24.3068 27.8607L24.4007 27.6841L24.4007 27.6841L24.3068 27.8607ZM24.0408 27.8256L23.996 27.6306L23.9959 27.6307L24.0408 27.8256ZM19.2508 28.9294L19.2059 28.7345L19.2058 28.7345L19.2508 28.9294ZM19.066 29.0318L18.9246 28.8903L18.9246 28.8903L19.066 29.0318ZM17.4969 29.0318L17.6384 28.8903L17.6384 28.8903L17.4969 29.0318ZM17.4969 27.4627L17.6384 27.6041L17.6384 27.6041L17.4969 27.4627ZM23.8294 21.1302L23.6879 20.9887L23.6879 20.9888L23.8294 21.1302ZM25.3088 19.6508L25.4502 19.7922L25.3088 19.6508ZM25.4209 16.8214L25.4773 16.6295L25.2209 16.5542V16.8214H25.4209ZM27.0469 18.6695L26.8586 18.7369L26.859 18.7378L27.0469 18.6695ZM27.051 18.6792L27.2372 18.6062L27.2367 18.605L27.051 18.6792ZM27.0595 18.6998L26.8775 18.7825L27.0595 18.6998ZM27.0677 18.7163L26.8902 18.8084L26.8902 18.8084L27.0677 18.7163ZM27.0762 18.732L27.2497 18.6325L27.2489 18.6312L27.0762 18.732ZM27.0875 18.7502L26.9202 18.8598L26.9205 18.8602L27.0875 18.7502ZM27.096 18.7626L27.259 18.6467L27.2588 18.6465L27.096 18.7626ZM27.1097 18.7807L27.2655 18.6552L27.2653 18.6549L27.1097 18.7807ZM27.1188 18.7916L26.968 18.923L26.9681 18.9231L27.1188 18.7916ZM27.134 18.808L27.2774 18.6686L27.2768 18.6679L27.134 18.808ZM27.1449 18.8187L27.0075 18.9641L27.008 18.9646L27.1449 18.8187ZM27.1602 18.8324L27.2898 18.68L27.2892 18.6795L27.1602 18.8324ZM27.1739 18.8434L27.0519 19.0019L27.052 19.002L27.1739 18.8434ZM27.1886 18.8542L27.3035 18.6905L27.3027 18.6899L27.1886 18.8542ZM27.2049 18.865L27.3099 18.6948L27.3097 18.6946L27.2049 18.865ZM27.2195 18.8735L27.3179 18.6994L27.3175 18.6992L27.2195 18.8735ZM27.2373 18.8831L27.1485 19.0623L27.1493 19.0627L27.2373 18.8831ZM27.2531 18.8904L27.3342 18.7076L27.334 18.7075L27.2531 18.8904ZM27.2709 18.8978L27.2002 19.0849L27.2004 19.0849L27.2709 18.8978ZM27.2898 18.9043L27.227 19.0942L27.2293 19.095L27.2898 18.9043ZM27.3058 18.9092L27.3588 18.7164L27.3586 18.7163L27.3058 18.9092ZM27.3289 18.9147L27.2877 19.1104L27.2885 19.1106L27.3289 18.9147ZM27.3384 18.9169L27.301 19.1134L27.3023 19.1137L27.3384 18.9169ZM32.3005 20.8458L32.1938 21.015L32.1938 21.015L32.3005 20.8458ZM36.3512 24.7407L36.5158 24.6271L36.3512 24.7407ZM38.6454 34.9262L38.652 35.126L38.8166 35.1206L38.8429 34.958L38.6454 34.9262ZM36.6663 35.2153L36.4675 35.2375L36.4934 35.4685L36.7179 35.4085L36.6663 35.2153ZM35.7475 32.986H35.5475V33.0556L35.5906 33.1101L35.7475 32.986ZM34.9815 32.2286L34.8592 32.3869L35.1815 32.6359V32.2286H34.9815ZM34.2155 31.7533H34.0155V31.8784L34.1281 31.9331L34.2155 31.7533ZM33.4496 31.466L33.3972 31.6591L33.6496 31.7275V31.466H33.4496ZM32.6836 31.3293H32.4836V31.5127L32.6663 31.5285L32.6836 31.3293ZM32.3006 29.7314V29.5314H32.3006L32.3006 29.7314ZM35.9187 35.4505L35.9868 35.6385L36.1288 35.5871L36.1182 35.4365L35.9187 35.4505ZM33.4114 36.6583L33.5075 36.8337L33.5075 36.8337L33.4114 36.6583ZM23.7006 39.2313L23.5009 39.2207L23.4895 39.434L23.7031 39.4313L23.7006 39.2313ZM25.6809 34.1025L25.5091 34L25.6809 34.1025ZM27.5826 30.2751L27.393 30.2116L27.393 30.2116L27.5826 30.2751ZM27.3412 29.7903L27.2765 29.9796L27.2776 29.9799L27.3412 29.7903ZM27.3348 29.7885L27.3953 29.5979L27.3951 29.5978L27.3348 29.7885ZM26.8564 30.0318L27.046 30.0953L27.046 30.0953L26.8564 30.0318ZM25.0232 33.7099L25.1949 33.8124V33.8124L25.0232 33.7099ZM33.7794 37.33L33.6834 37.1546L33.6834 37.1546L33.7794 37.33ZM39.3456 35.373L39.5423 35.4092L39.5423 35.4091L39.3456 35.373ZM37.1463 24.1922C34.9179 20.961 31.577 18.7715 27.7235 18.0082L27.6458 18.4006C31.3975 19.1437 34.6479 21.2741 36.817 24.4193L37.1463 24.1922ZM27.868 18.1245C27.7359 17.8213 27.4503 17.2477 26.9927 16.7469C26.5346 16.2455 25.8873 15.8 25.038 15.8V16.2C25.7346 16.2 26.2827 16.5629 26.6974 17.0167C27.1127 17.4713 27.3774 17.9999 27.5013 18.2843L27.868 18.1245ZM25.038 15.8C24.716 15.8 24.455 16.061 24.455 16.383H24.855C24.855 16.2819 24.9369 16.2 25.038 16.2V15.8ZM24.455 16.383V19.2214H24.855V16.383H24.455ZM24.5136 19.08L23.8004 19.7932L24.0833 20.076L24.7965 19.3629L24.5136 19.08ZM24.1419 19.9346V17.9643H23.7419V19.9346H24.1419ZM24.1419 17.9643C24.1419 17.6423 23.8809 17.3813 23.5589 17.3813V17.7813C23.66 17.7813 23.7419 17.8632 23.7419 17.9643H24.1419ZM23.5589 17.3813C23.2369 17.3813 22.9759 17.6423 22.9759 17.9643H23.3759C23.3759 17.8632 23.4578 17.7813 23.5589 17.7813V17.3813ZM22.9759 17.9643V20.7006H23.3759V17.9643H22.9759ZM23.0345 20.5591L16.8139 26.7797L17.0968 27.0625L23.3173 20.842L23.0345 20.5591ZM16.8139 26.7797C16.4221 27.1714 16.206 27.6933 16.206 28.2473H16.606C16.606 27.7994 16.78 27.3793 17.0968 27.0625L16.8139 26.7797ZM16.206 28.2473C16.206 28.8012 16.4221 29.3231 16.8139 29.7148L17.0967 29.432C16.78 29.1152 16.606 28.6952 16.606 28.2473H16.206ZM16.8139 29.7148C17.2057 30.1066 17.7275 30.3227 18.2815 30.3227V29.9227C17.8335 29.9227 17.4135 29.7487 17.0967 29.432L16.8139 29.7148ZM18.2815 30.3227C18.7926 30.3227 19.2765 30.1387 19.6562 29.8022L19.3909 29.5029C19.0845 29.7744 18.695 29.9227 18.2815 29.9227V30.3227ZM19.5684 29.8474L24.1216 28.7982L24.0318 28.4084L19.4786 29.4576L19.5684 29.8474ZM23.9882 28.7827C24.8935 29.2291 25.9347 29.3963 26.9386 29.254L26.8825 28.858C25.9582 28.9889 24.9983 28.8347 24.1651 28.4239L23.9882 28.7827ZM26.9386 29.254C27.1677 29.2216 27.3916 29.1734 27.61 29.1117L27.5012 28.7267C27.2992 28.7838 27.0929 28.8282 26.8825 28.858L26.9386 29.254ZM27.6099 29.1117C28.435 28.8787 29.1829 28.441 29.7997 27.8243L29.5168 27.5414C28.9481 28.1101 28.2601 28.5124 27.5012 28.7267L27.6099 29.1117ZM29.7997 27.8243C31.093 26.5309 31.587 24.6333 31.089 22.8717L30.7041 22.9805C31.1627 24.6029 30.7076 26.3506 29.5168 27.5414L29.7997 27.8243ZM31.089 22.8717C31.0014 22.5617 30.679 22.3817 30.3694 22.4693L30.4782 22.8542C30.5753 22.8267 30.6766 22.8833 30.7041 22.9805L31.089 22.8717ZM30.3694 22.4693C30.0596 22.5569 29.8794 22.879 29.967 23.1889L30.3519 23.08C30.3244 22.9828 30.3809 22.8817 30.4782 22.8542L30.3694 22.4693ZM29.967 23.1888C30.3502 24.5446 29.97 26.005 28.9751 26.9998L29.258 27.2827C30.3554 26.1852 30.7745 24.575 30.3519 23.08L29.967 23.1888ZM28.9751 26.9998C27.7572 28.2178 25.9197 28.4925 24.4007 27.6841L24.2128 28.0372C25.8872 28.9284 27.9158 28.6249 29.258 27.2827L28.9751 26.9998ZM24.4007 27.6841C24.2765 27.6181 24.1329 27.5992 23.996 27.6306L24.0856 28.0205C24.1287 28.0106 24.1738 28.0165 24.2128 28.0373L24.4007 27.6841ZM23.9959 27.6307L19.2059 28.7345L19.2957 29.1243L24.0857 28.0205L23.9959 27.6307ZM19.2058 28.7345C19.0993 28.7591 19.0019 28.8131 18.9246 28.8903L19.2073 29.1732C19.2317 29.1489 19.2623 29.132 19.2957 29.1243L19.2058 28.7345ZM18.9246 28.8903C18.5701 29.2448 17.9928 29.2448 17.6384 28.8903L17.3555 29.1732C17.8662 29.6839 18.6968 29.6839 19.2074 29.1732L18.9246 28.8903ZM17.6384 28.8903C17.4663 28.7183 17.372 28.4905 17.372 28.2472H16.972C16.972 28.5966 17.1084 28.9261 17.3555 29.1732L17.6384 28.8903ZM17.372 28.2472C17.372 28.0039 17.4663 27.7761 17.6384 27.6041L17.3555 27.3212C17.1084 27.5683 16.972 27.8978 16.972 28.2472H17.372ZM17.6384 27.6041L23.9708 21.2716L23.6879 20.9888L17.3555 27.3212L17.6384 27.6041ZM23.9708 21.2716C23.971 21.2713 24.3409 20.9015 24.7107 20.5317C24.8956 20.3468 25.0804 20.162 25.2191 20.0233C25.2884 19.954 25.3463 19.8961 25.3866 19.8558C25.4074 19.835 25.4222 19.8202 25.4336 19.8088C25.4386 19.8038 25.4435 19.7989 25.4459 19.7965C25.4461 19.7963 25.4463 19.7961 25.4464 19.7959C25.4466 19.7958 25.4468 19.7956 25.4469 19.7955C25.4478 19.7946 25.447 19.7954 25.4478 19.7946C25.4481 19.7943 25.4482 19.7942 25.4485 19.7939C25.4486 19.7937 25.449 19.7934 25.4491 19.7933C25.4495 19.7929 25.4497 19.7927 25.4499 19.7925C25.45 19.7924 25.45 19.7924 25.4501 19.7923C25.4501 19.7923 25.4501 19.7922 25.4502 19.7922C25.4502 19.7922 25.4502 19.7922 25.3088 19.6508C25.1673 19.5094 25.1673 19.5094 25.1673 19.5094C25.1673 19.5094 25.1673 19.5094 25.1673 19.5094C25.1673 19.5094 25.1671 19.5096 25.1671 19.5096C25.1668 19.5099 25.1667 19.51 25.1663 19.5104C25.1632 19.5135 25.1681 19.5086 25.1649 19.5118C25.1643 19.5124 25.1639 19.5128 25.1631 19.5136C25.161 19.5157 25.1554 19.5213 25.1507 19.526C25.1394 19.5373 25.1245 19.5522 25.1038 19.5729C25.0632 19.6135 25.0057 19.671 24.9363 19.7404C24.7976 19.8791 24.6127 20.064 24.4278 20.2489C24.0581 20.6186 23.6882 20.9885 23.6879 20.9887L23.9708 21.2716ZM25.4502 19.7922C25.5595 19.6829 25.6209 19.5346 25.6209 19.38H25.2209C25.2209 19.4285 25.2016 19.4751 25.1673 19.5094L25.4502 19.7922ZM25.6209 19.38V16.8214H25.2209V19.38H25.6209ZM25.3645 17.0133C25.8241 17.1482 26.1956 17.555 26.4615 17.9647C26.5918 18.1655 26.6911 18.3582 26.7582 18.5019C26.8253 18.6457 26.8591 18.7382 26.8586 18.7369L27.2352 18.602C27.2292 18.5854 27.0817 18.1855 26.797 17.7469C26.5165 17.3147 26.078 16.8059 25.4773 16.6295L25.3645 17.0133ZM26.859 18.7378C26.8619 18.7459 26.8648 18.7525 26.8657 18.7546C26.866 18.7551 26.8663 18.7559 26.8664 18.756C26.8665 18.7563 26.8665 18.7564 26.8665 18.7563C26.8664 18.7561 26.8659 18.7551 26.8653 18.7535L27.2367 18.605C27.2354 18.6017 27.2343 18.599 27.2335 18.5973C27.2331 18.5964 27.2328 18.5956 27.2326 18.5951C27.2323 18.5945 27.2323 18.5944 27.2321 18.5941C27.2317 18.5931 27.2332 18.5964 27.2349 18.6011L26.859 18.7378ZM26.8648 18.7523C26.8677 18.7596 26.8721 18.7706 26.8775 18.7825L27.2416 18.617C27.2409 18.6154 27.2398 18.6127 27.2372 18.6062L26.8648 18.7523ZM26.8775 18.7825C26.8824 18.7934 26.8874 18.803 26.8902 18.8084L27.2452 18.6241C27.2439 18.6215 27.2431 18.62 27.2424 18.6186C27.2418 18.6174 27.2416 18.617 27.2416 18.617L26.8775 18.7825ZM26.8902 18.8084C26.8926 18.813 26.8976 18.8227 26.9035 18.8329L27.2489 18.6312C27.2491 18.6314 27.2489 18.6311 27.2482 18.6299C27.2475 18.6285 27.2467 18.6269 27.2452 18.6241L26.8902 18.8084ZM26.9028 18.8316C26.9094 18.8431 26.9158 18.8531 26.9202 18.8598L27.2548 18.6406C27.2514 18.6354 27.2503 18.6334 27.2497 18.6325L26.9028 18.8316ZM26.9205 18.8602C26.9235 18.8647 26.9279 18.8714 26.9331 18.8786L27.2588 18.6465C27.2582 18.6456 27.2571 18.644 27.2546 18.6402L26.9205 18.8602ZM26.9329 18.8784C26.9403 18.8888 26.9476 18.8982 26.9542 18.9064L27.2653 18.6549C27.2624 18.6514 27.2604 18.6487 27.259 18.6467L26.9329 18.8784ZM26.954 18.9061C26.9575 18.9105 26.9624 18.9165 26.968 18.923L27.2696 18.6602C27.269 18.6595 27.2679 18.6582 27.2655 18.6552L26.954 18.9061ZM26.9681 18.9231C26.9756 18.9316 26.9833 18.9399 26.9912 18.948L27.2768 18.6679C27.2743 18.6654 27.2719 18.6628 27.2695 18.6601L26.9681 18.9231ZM26.9906 18.9474C26.9961 18.9531 27.0018 18.9586 27.0075 18.9641L27.2823 18.6734C27.2806 18.6718 27.279 18.6702 27.2774 18.6686L26.9906 18.9474ZM27.008 18.9646C27.0156 18.9717 27.0234 18.9786 27.0313 18.9853L27.2892 18.6795C27.2867 18.6774 27.2842 18.6752 27.2818 18.6729L27.008 18.9646ZM27.0307 18.9847C27.0376 18.9906 27.0447 18.9964 27.0519 19.0019L27.2958 18.6849C27.2938 18.6833 27.2918 18.6817 27.2898 18.68L27.0307 18.9847ZM27.052 19.002C27.0595 19.0078 27.067 19.0132 27.0746 19.0185L27.3027 18.6899C27.3002 18.6882 27.2979 18.6865 27.2957 18.6848L27.052 19.002ZM27.0737 19.0179C27.0814 19.0232 27.0903 19.0292 27.1002 19.0353L27.3097 18.6946C27.3084 18.6938 27.3065 18.6926 27.3035 18.6905L27.0737 19.0179ZM27.0999 19.0352C27.107 19.0395 27.1142 19.0438 27.1214 19.0479L27.3175 18.6992C27.315 18.6978 27.3125 18.6963 27.3099 18.6948L27.0999 19.0352ZM27.1211 19.0477C27.1288 19.052 27.1381 19.0571 27.1485 19.0623L27.3262 18.7039C27.3244 18.703 27.3219 18.7017 27.3179 18.6994L27.1211 19.0477ZM27.1493 19.0627C27.1577 19.0668 27.1656 19.0704 27.1722 19.0733L27.334 18.7075C27.33 18.7057 27.3274 18.7045 27.3254 18.7035L27.1493 19.0627ZM27.172 19.0732C27.1795 19.0765 27.1892 19.0807 27.2002 19.0849L27.3417 18.7107C27.3405 18.7103 27.3385 18.7094 27.3342 18.7076L27.172 19.0732ZM27.2004 19.0849C27.211 19.0889 27.2209 19.0922 27.227 19.0942L27.3526 18.7144C27.346 18.7123 27.3434 18.7114 27.3415 18.7107L27.2004 19.0849ZM27.2293 19.095C27.2316 19.0957 27.2425 19.0993 27.253 19.1021L27.3586 18.7163C27.359 18.7165 27.3589 18.7164 27.3574 18.716C27.3567 18.7157 27.3558 18.7155 27.3546 18.7151C27.3536 18.7147 27.3518 18.7142 27.3503 18.7137L27.2293 19.095ZM27.2527 19.1021C27.2662 19.1058 27.2787 19.1085 27.2877 19.1104L27.3701 18.719C27.3636 18.7176 27.3605 18.7169 27.3588 18.7164L27.2527 19.1021ZM27.2885 19.1106C27.2861 19.1101 27.2843 19.1096 27.2836 19.1095C27.2832 19.1094 27.2827 19.1092 27.284 19.1096C27.2854 19.1099 27.2925 19.1118 27.301 19.1134L27.3758 18.7205C27.3811 18.7215 27.3851 18.7226 27.3833 18.7221C27.383 18.722 27.381 18.7215 27.379 18.721C27.3767 18.7205 27.3734 18.7197 27.3693 18.7188L27.2885 19.1106ZM27.3023 19.1137C29.0693 19.4382 30.7215 20.087 32.1938 21.015L32.4071 20.6767C30.8915 19.7213 29.1915 19.0539 27.3745 18.7202L27.3023 19.1137ZM32.1938 21.015C33.7526 21.9976 35.1102 23.2936 36.1866 24.8542L36.5158 24.6271C35.4088 23.022 34.0118 21.6881 32.4071 20.6767L32.1938 21.015ZM36.1866 24.8542C38.2207 27.8037 39.0186 31.3572 38.448 34.8943L38.8429 34.958C39.4299 31.3194 38.6086 27.6617 36.5158 24.6271L36.1866 24.8542ZM38.6389 34.7263C37.893 34.7507 37.2283 34.8581 36.6146 35.0221L36.7179 35.4085C37.3031 35.2521 37.9376 35.1495 38.652 35.126L38.6389 34.7263ZM36.865 35.193C36.7672 34.3186 36.4233 33.518 35.9043 32.8619L35.5906 33.1101C36.0646 33.7093 36.3783 34.4398 36.4675 35.2375L36.865 35.193ZM35.9475 32.986V29.2934H35.5475V32.986H35.9475ZM35.9475 29.2934C35.9475 28.9715 35.6865 28.7104 35.3645 28.7104V29.1104C35.4656 29.1104 35.5475 29.1923 35.5475 29.2934H35.9475ZM35.3645 28.7104C35.0424 28.7104 34.7815 28.9715 34.7815 29.2934H35.1815C35.1815 29.1923 35.2634 29.1104 35.3645 29.1104V28.7104ZM34.7815 29.2934V32.2286H35.1815V29.2934H34.7815ZM35.1038 32.0704C34.8557 31.8787 34.5876 31.7118 34.303 31.5734L34.1281 31.9331C34.3878 32.0594 34.6326 32.2118 34.8592 32.3869L35.1038 32.0704ZM34.4155 31.7533V26.2295H34.0155V31.7533H34.4155ZM34.4155 26.2295C34.4155 25.9076 34.1546 25.6465 33.8326 25.6465V26.0465C33.9336 26.0465 34.0155 26.1284 34.0155 26.2295H34.4155ZM33.8326 25.6465C33.5105 25.6465 33.2496 25.9076 33.2496 26.2295H33.6496C33.6496 26.1284 33.7315 26.0465 33.8326 26.0465V25.6465ZM33.2496 26.2295V31.466H33.6496V26.2295H33.2496ZM33.5019 31.273C33.2435 31.2029 32.976 31.1539 32.7009 31.13L32.6663 31.5285C32.9166 31.5502 33.1606 31.5949 33.3972 31.6591L33.5019 31.273ZM32.8836 31.3293V30.1144H32.4836V31.3293H32.8836ZM32.8836 30.1144C32.8836 29.7925 32.6227 29.5314 32.3006 29.5314V29.9314C32.4017 29.9314 32.4836 30.0133 32.4836 30.1144H32.8836ZM32.3006 29.5314C31.9785 29.5315 31.7176 29.7925 31.7176 30.1144H32.1176C32.1176 30.0134 32.1995 29.9315 32.3007 29.9314L32.3006 29.5314ZM31.7176 30.1144V31.6957H32.1176V30.1144H31.7176ZM31.7176 31.6957C31.7176 32.0177 31.9786 32.2787 32.3006 32.2787V31.8787C32.1995 31.8787 32.1176 31.7968 32.1176 31.6957H31.7176ZM32.3006 32.2787C34.1089 32.2787 35.5944 33.6871 35.7192 35.4645L36.1182 35.4365C35.9788 33.4514 34.3208 31.8787 32.3006 31.8787V32.2787ZM35.8506 35.2624C34.942 35.5916 34.1325 36.0352 33.3153 36.4828L33.5075 36.8337C34.3285 36.3839 35.1117 35.9555 35.9868 35.6385L35.8506 35.2624ZM33.3153 36.4828C31.1798 37.6526 28.7831 38.9671 23.6981 39.0313L23.7031 39.4313C28.8801 39.3659 31.3435 38.019 33.5075 36.8337L33.3153 36.4828ZM23.9003 39.242C24.0031 37.3094 24.887 35.8221 25.8526 34.2051L25.5091 34C24.5498 35.6067 23.6097 37.1752 23.5009 39.2207L23.9003 39.242ZM25.8526 34.2051C26.5456 33.0445 27.2743 31.8253 27.7723 30.3386L27.393 30.2116C26.9106 31.6516 26.2041 32.8361 25.5091 34L25.8526 34.2051ZM27.7723 30.3387C27.8746 30.0334 27.7099 29.703 27.4047 29.6007L27.2776 29.9799C27.3735 30.0121 27.4251 30.1158 27.393 30.2116L27.7723 30.3387ZM27.4058 29.601C27.401 29.5994 27.3969 29.5982 27.394 29.5974C27.3912 29.5966 27.3889 29.596 27.3882 29.5958C27.3869 29.5955 27.3878 29.5957 27.3886 29.5959C27.3897 29.5962 27.3922 29.5969 27.3953 29.5979L27.2744 29.9792C27.2786 29.9805 27.282 29.9815 27.2842 29.982C27.2853 29.9823 27.2862 29.9826 27.2868 29.9827C27.2871 29.9828 27.2874 29.9829 27.2875 29.9829C27.2877 29.983 27.2878 29.983 27.2878 29.983C27.2882 29.9831 27.2869 29.9828 27.2852 29.9823C27.2834 29.9818 27.2803 29.9809 27.2765 29.9796L27.4058 29.601ZM27.3951 29.5978C27.0925 29.5021 26.768 29.6659 26.6667 29.9683L27.046 30.0953C27.0777 30.0007 27.1793 29.9491 27.2745 29.9792L27.3951 29.5978ZM26.6667 29.9683C26.2106 31.3298 25.5258 32.478 24.8515 33.6073L25.1949 33.8124C25.8669 32.687 26.5742 31.5037 27.046 30.0953L26.6667 29.9683ZM24.8515 33.6073C23.7741 35.4117 22.7243 37.1633 22.7243 39.617H23.1243C23.1243 37.2872 24.1134 35.6237 25.1949 33.8124L24.8515 33.6073ZM22.7243 39.617C22.7243 39.939 22.9852 40.2 23.3072 40.2V39.8C23.2062 39.8 23.1243 39.7181 23.1243 39.617H22.7243ZM23.3072 40.2C28.9523 40.2 31.6891 38.7031 33.8755 37.5054L33.6834 37.1546C31.5267 38.336 28.8583 39.8 23.3072 39.8V40.2ZM33.8755 37.5054C35.4844 36.6241 36.8349 35.8868 38.9689 35.8868V35.4868C36.7236 35.4868 35.2937 36.2725 33.6834 37.1546L33.8755 37.5054ZM38.9689 35.8868C39.2502 35.8868 39.4915 35.6859 39.5423 35.4092L39.1489 35.3369C39.1329 35.4237 39.0572 35.4868 38.9689 35.4868V35.8868ZM39.5423 35.4091C40.2663 31.4666 39.4155 27.4824 37.1463 24.1922L36.817 24.4193C39.0257 27.6218 39.8538 31.4983 39.1489 35.3369L39.5423 35.4091Z" fill="white" mask="url(#path-2-outside-1_2514_2154)"/>
<path d="M23.5191 22.5004L23.5191 22.5005L21.7338 24.9687L21.663 25.0395C21.6631 25.0395 21.6631 25.0395 21.6631 25.0395C21.7574 25.1338 21.8811 25.1809 22.0046 25.1809C22.128 25.1809 22.2518 25.1338 22.3462 25.0395L24.0607 23.3249H25.6667C25.9335 23.3249 26.1497 23.1087 26.1497 22.842C26.1497 22.5752 25.9335 22.359 25.6667 22.359H23.8606C23.7325 22.359 23.6097 22.4099 23.5191 22.5004Z" fill="white" stroke="white" stroke-width="0.2"/>
<path d="M32.3005 21.7711H32.3004C32.0336 21.7712 31.8175 21.9874 31.8175 22.2541V28.5827C31.8175 28.8494 32.0336 29.0656 32.3003 29.0657H32.3004C32.5672 29.0657 32.7834 28.8495 32.7834 28.5827V22.2541C32.7834 21.9873 32.5673 21.7711 32.3005 21.7711Z" fill="white" stroke="white" stroke-width="0.2"/>
</g>
<defs>
<clipPath id="clip0_2514_2154">
<rect width="24" height="24" fill="white" transform="translate(16 16)"/>
</clipPath>
</defs>
</svg>
