<svg width="56" height="56" viewBox="0 0 56 56" fill="none" xmlns="http://www.w3.org/2000/svg">
<rect width="56" height="56" rx="28" fill="#84904B"/>
<g clip-path="url(#clip0_2514_2161)">
<path d="M34.3641 26.98C35.9261 28.541 35.9261 31.074 34.3641 32.636L28.7071 38.293C28.3171 38.683 27.6831 38.683 27.2931 38.293L21.6361 32.636C20.0741 31.074 20.0741 28.541 21.6361 26.979C23.1981 25.417 25.7311 25.417 27.2931 26.979L27.9991 27.686L28.7071 26.979C30.2691 25.417 32.8021 25.417 34.3641 26.979V26.98ZM23.0501 28.392C22.2701 29.173 22.2701 30.44 23.0501 31.221L28.0001 36.171L32.9501 31.221C33.7301 30.44 33.7301 29.173 32.9501 28.392C32.1691 27.612 30.9021 27.612 30.1201 28.394L27.9981 30.512L25.8781 28.392C25.0981 27.612 23.8311 27.612 23.0501 28.392ZM28.0001 17C30.2101 17 32.0001 18.79 32.0001 21C32.0001 23.21 30.2101 25 28.0001 25C25.7901 25 24.0001 23.21 24.0001 21C24.0001 18.79 25.7901 17 28.0001 17ZM28.0001 19C26.8951 19 26.0001 19.895 26.0001 21C26.0001 22.105 26.8951 23 28.0001 23C29.1051 23 30.0001 22.105 30.0001 21C30.0001 19.895 29.1051 19 28.0001 19Z" fill="white"/>
</g>
<defs>
<clipPath id="clip0_2514_2161">
<rect width="24" height="24" fill="white" transform="translate(16 16)"/>
</clipPath>
</defs>
</svg>
