<svg width="56" height="56" viewBox="0 0 56 56" fill="none" xmlns="http://www.w3.org/2000/svg">
<rect width="56" height="56" rx="28" fill="#84904B"/>
<g clip-path="url(#clip0_2514_2153)">
<path d="M29.069 38.9996H26.0345C25.6321 38.9996 25.2462 38.8397 24.9616 38.5552C24.6771 38.2706 24.5172 37.8847 24.5172 37.4823V32.172C24.1148 32.172 23.7289 32.0121 23.4444 31.7276C23.1599 31.443 23 31.0571 23 30.6547V26.103C23 25.4994 23.2398 24.9205 23.6666 24.4937C24.0934 24.0669 24.6723 23.8271 25.2759 23.8271H29.8276C30.4312 23.8271 31.0101 24.0669 31.4369 24.4937C31.8637 24.9205 32.1034 25.4994 32.1034 26.103V30.6547C32.1034 31.0571 31.9436 31.443 31.6591 31.7276C31.3745 32.0121 30.9886 32.172 30.5862 32.172V37.4823C30.5862 37.8847 30.4264 38.2706 30.1418 38.5552C29.8573 38.8397 29.4714 38.9996 29.069 38.9996ZM25.2759 25.3444C25.1745 25.3377 25.0729 25.3527 24.9778 25.3885C24.8827 25.4242 24.7964 25.4799 24.7245 25.5517C24.6527 25.6235 24.5971 25.7099 24.5613 25.805C24.5256 25.9 24.5105 26.0017 24.5172 26.103V30.6547H26.0345V37.4823H29.069V30.6547H30.5862V26.103C30.5929 26.0017 30.5779 25.9 30.5421 25.805C30.5064 25.7099 30.4507 25.6235 30.3789 25.5517C30.3071 25.4799 30.2207 25.4242 30.1256 25.3885C30.0306 25.3527 29.9289 25.3377 29.8276 25.3444H25.2759Z" fill="white"/>
<path d="M27.5518 23.069C26.9517 23.069 26.365 22.891 25.866 22.5576C25.3669 22.2241 24.978 21.7502 24.7483 21.1957C24.5186 20.6413 24.4586 20.0311 24.5756 19.4425C24.6927 18.8539 24.9817 18.3132 25.4061 17.8888C25.8305 17.4644 26.3712 17.1754 26.9598 17.0583C27.5485 16.9412 28.1586 17.0013 28.7131 17.231C29.2675 17.4607 29.7415 17.8496 30.0749 18.3486C30.4083 18.8476 30.5863 19.4343 30.5863 20.0345C30.5863 20.8393 30.2666 21.6111 29.6975 22.1802C29.1284 22.7493 28.3566 23.069 27.5518 23.069ZM27.5518 18.5172C27.2517 18.5172 26.9584 18.6062 26.7089 18.7729C26.4594 18.9397 26.2649 19.1766 26.1501 19.4539C26.0352 19.7311 26.0052 20.0362 26.0637 20.3305C26.1223 20.6248 26.2668 20.8951 26.479 21.1073C26.6912 21.3195 26.9615 21.464 27.2558 21.5226C27.5501 21.5811 27.8552 21.5511 28.1324 21.4362C28.4097 21.3214 28.6466 21.1269 28.8134 20.8774C28.9801 20.6279 29.0691 20.3346 29.0691 20.0345C29.0691 19.6321 28.9092 19.2462 28.6247 18.9616C28.3401 18.6771 27.9542 18.5172 27.5518 18.5172Z" fill="white"/>
</g>
<defs>
<clipPath id="clip0_2514_2153">
<rect width="24" height="24" fill="white" transform="translate(16 16)"/>
</clipPath>
</defs>
</svg>
