<svg width="56" height="56" viewBox="0 0 56 56" fill="none" xmlns="http://www.w3.org/2000/svg">
<rect width="56" height="56" rx="28" fill="#84904B"/>
<g clip-path="url(#clip0_2514_2165)">
<g clip-path="url(#clip1_2514_2165)">
<path d="M39.1464 25.6661C39.1464 22.9185 37.0152 20.6595 34.319 20.4556C33.3781 17.8041 30.8604 16 28.0001 16C25.1398 16 22.6221 17.8041 21.6812 20.4556C18.985 20.6595 16.8538 22.9185 16.8538 25.6661C16.8538 27.068 17.4095 28.3928 18.3936 29.3706C18.354 29.6141 18.334 29.8603 18.334 30.1067C18.334 32.6384 20.3936 34.6979 22.9251 34.6979H25.4175V39.215C25.4175 39.6485 25.7689 40 26.2024 40H30.045C30.4784 40 30.8299 39.6486 30.8299 39.215V34.6979H33.0751C35.6066 34.6979 37.6662 32.6384 37.6662 30.1067C37.6662 29.8603 37.6462 29.6141 37.6066 29.3706C38.5908 28.3929 39.1464 27.068 39.1464 25.6661ZM29.4899 32.7124C29.3427 32.8596 29.26 33.0592 29.26 33.2675V38.4301H26.9873V32.321C26.9873 32.1128 26.9046 31.9131 26.7574 31.7659L25.3913 30.3998L25.6397 30.1514L26.6079 31.1197C26.8325 31.3442 27.17 31.4112 27.4635 31.2899C27.7567 31.1683 27.948 30.8821 27.948 30.5646V29.0987H28.2993V31.511C28.2993 31.8285 28.4906 32.1147 28.7839 32.2363C29.0772 32.3577 29.4148 32.2907 29.6394 32.0661L30.3604 31.345L30.6088 31.5934L29.4899 32.7124ZM36.2446 28.4883C36.0058 28.6853 35.9051 29.004 35.9872 29.3024C36.0596 29.5653 36.0963 29.8359 36.0963 30.1067C36.0963 31.7727 34.741 33.1281 33.0751 33.1281H31.2945L32.274 32.1485C32.4212 32.0013 32.5039 31.8017 32.5039 31.5935C32.5039 31.3853 32.4212 31.1855 32.274 31.0384L30.9155 29.6799C30.6294 29.3939 30.1775 29.3746 29.8693 29.6225V28.3137C29.8693 27.8802 29.5178 27.5287 29.0843 27.5287H27.1631C26.7296 27.5287 26.3781 27.8802 26.3781 28.3137V28.6695L26.1949 28.4861C26.0477 28.339 25.848 28.2562 25.6398 28.2562C25.4315 28.2562 25.2319 28.339 25.0847 28.4861L23.7262 29.8447C23.4196 30.1513 23.4196 30.6482 23.7262 30.9548L25.4175 32.6461V33.128H22.9251C21.2593 33.128 19.9039 31.7727 19.9039 30.1067C19.9039 29.8359 19.9405 29.5653 20.013 29.3023C20.0951 29.0039 19.9944 28.6852 19.7556 28.4882C18.9091 27.7904 18.4237 26.7616 18.4237 25.6661C18.4237 23.6503 20.0636 22.0104 22.0794 22.0104C22.1305 22.0104 22.1811 22.0124 22.2317 22.0145C22.6042 22.0288 22.9331 21.7844 23.0252 21.4252C23.6075 19.1552 25.6533 17.5698 28.0002 17.5698C30.3471 17.5698 32.3928 19.1552 32.9751 21.4252C33.0673 21.7844 33.3991 22.0284 33.7687 22.0145C33.8193 22.0123 33.8698 22.0104 33.921 22.0104C35.9368 22.0104 37.5766 23.6503 37.5766 25.6661C37.5766 26.7617 37.0911 27.7904 36.2446 28.4883Z" fill="white"/>
</g>
</g>
<defs>
<clipPath id="clip0_2514_2165">
<rect width="24" height="24" fill="white" transform="translate(16 16)"/>
</clipPath>
<clipPath id="clip1_2514_2165">
<rect width="24" height="24" fill="white" transform="translate(16 16)"/>
</clipPath>
</defs>
</svg>
