<svg width="56" height="56" viewBox="0 0 56 56" fill="none" xmlns="http://www.w3.org/2000/svg">
<rect width="56" height="56" rx="28" fill="#84904B"/>
<g clip-path="url(#clip0_2514_2173)">
<path d="M28 30V32C26.4087 32 24.8826 32.6321 23.7574 33.7574C22.6321 34.8826 22 36.4087 22 38H20C20 35.8783 20.8429 33.8434 22.3431 32.3431C23.8434 30.8429 25.8783 30 28 30ZM28 29C24.685 29 22 26.315 22 23C22 19.685 24.685 17 28 17C31.315 17 34 19.685 34 23C34 26.315 31.315 29 28 29ZM28 27C30.21 27 32 25.21 32 23C32 20.79 30.21 19 28 19C25.79 19 24 20.79 24 23C24 25.21 25.79 27 28 27ZM34 37.5L31.061 39.045L31.622 35.773L29.245 33.455L32.531 32.977L34 30L35.47 32.977L38.755 33.455L36.378 35.773L36.938 39.045L34 37.5Z" fill="white"/>
</g>
<defs>
<clipPath id="clip0_2514_2173">
<rect width="24" height="24" fill="white" transform="translate(16 16)"/>
</clipPath>
</defs>
</svg>
