<svg width="57" height="56" viewBox="0 0 57 56" fill="none" xmlns="http://www.w3.org/2000/svg">
<rect x="0.5" width="56" height="56" rx="28" fill="#E0CF6F"/>
<g clip-path="url(#clip0_12_1139)">
<path d="M28.5 38C22.977 38 18.5 33.523 18.5 28C18.5 22.477 22.977 18 28.5 18C34.023 18 38.5 22.477 38.5 28C38.5 33.523 34.023 38 28.5 38ZM26.21 35.667C25.2234 33.5743 24.6519 31.3102 24.527 29H20.562C20.7566 30.5389 21.3939 31.9882 22.3966 33.1717C23.3992 34.3552 24.724 35.2221 26.21 35.667ZM26.53 29C26.681 31.439 27.378 33.73 28.5 35.752C29.6523 33.6766 30.3254 31.3695 30.47 29H26.53ZM36.438 29H32.473C32.3481 31.3102 31.7766 33.5743 30.79 35.667C32.276 35.2221 33.6008 34.3552 34.6034 33.1717C35.6061 31.9882 36.2434 30.5389 36.438 29ZM20.562 27H24.527C24.6519 24.6898 25.2234 22.4257 26.21 20.333C24.724 20.7779 23.3992 21.6448 22.3966 22.8283C21.3939 24.0118 20.7566 25.4611 20.562 27ZM26.531 27H30.469C30.3248 24.6306 29.652 22.3235 28.5 20.248C27.3477 22.3234 26.6746 24.6305 26.53 27H26.531ZM30.79 20.333C31.7766 22.4257 32.3481 24.6898 32.473 27H36.438C36.2434 25.4611 35.6061 24.0118 34.6034 22.8283C33.6008 21.6448 32.276 20.7779 30.79 20.333Z" fill="#05040D"/>
</g>
<defs>
<clipPath id="clip0_12_1139">
<rect width="24" height="24" fill="white" transform="translate(16.5 16)"/>
</clipPath>
</defs>
</svg>
