<svg width="56" height="56" viewBox="0 0 56 56" fill="none" xmlns="http://www.w3.org/2000/svg">
<rect width="56" height="56" rx="28" fill="#604945"/>
<g clip-path="url(#clip0_23_711)">
<path d="M28 38C22.477 38 18 33.523 18 28C18 22.477 22.477 18 28 18C33.523 18 38 22.477 38 28C38 33.523 33.523 38 28 38ZM25.71 35.667C24.7234 33.5743 24.1519 31.3102 24.027 29H20.062C20.2566 30.5389 20.8939 31.9882 21.8966 33.1717C22.8992 34.3552 24.224 35.2221 25.71 35.667ZM26.03 29C26.181 31.439 26.878 33.73 28 35.752C29.1523 33.6766 29.8254 31.3695 29.97 29H26.03ZM35.938 29H31.973C31.8481 31.3102 31.2766 33.5743 30.29 35.667C31.776 35.2221 33.1008 34.3552 34.1034 33.1717C35.1061 31.9882 35.7434 30.5389 35.938 29ZM20.062 27H24.027C24.1519 24.6898 24.7234 22.4257 25.71 20.333C24.224 20.7779 22.8992 21.6448 21.8966 22.8283C20.8939 24.0118 20.2566 25.4611 20.062 27ZM26.031 27H29.969C29.8248 24.6306 29.152 22.3235 28 20.248C26.8477 22.3234 26.1746 24.6305 26.03 27H26.031ZM30.29 20.333C31.2766 22.4257 31.8481 24.6898 31.973 27H35.938C35.7434 25.4611 35.1061 24.0118 34.1034 22.8283C33.1008 21.6448 31.776 20.7779 30.29 20.333Z" fill="white"/>
</g>
<defs>
<clipPath id="clip0_23_711">
<rect width="24" height="24" fill="white" transform="translate(16 16)"/>
</clipPath>
</defs>
</svg>
